<?xml version="1.0" encoding="UTF-8"?>
<svg width="68px" height="81px" viewBox="0 0 68 81" version="1.1" xmlns="http://www.w3.org/2000/svg" xmlns:xlink="http://www.w3.org/1999/xlink">
    <!-- Generator: Sketch 42 (36781) - http://www.bohemiancoding.com/sketch -->
    <title>Group 7</title>
    <desc>Created with Sketch.</desc>
    <defs></defs>
    <g id="Page-1" stroke="none" stroke-width="1" fill="none" fill-rule="evenodd" fill-opacity="0.54">
        <g id="Skills" transform="translate(-786.000000, -650.000000)" fill="#000000">
            <g id="Group-6" transform="translate(382.000000, 427.000000)">
                <g id="android" transform="translate(396.000000, 222.000000)">
                    <g id="Group-7" transform="translate(8.000000, 0.000000)">
                        <polygon id="Shape" points="26.8081633 28.8081633 11.844898 28.8081633 11.844898 60.6095238 11.8802721 60.6095238 11.8802721 61.1755102 11.9156463 61.1755102 11.9156463 61.4231293 11.9510204 61.4231293 11.9510204 61.6 11.9863946 61.6 11.9863946 61.7768707 12.0217687 61.7768707 12.0217687 61.9183673 12.0571429 61.9183673 12.0571429 62.0244898 12.092517 62.0244898 12.092517 62.1306122 12.1278912 62.1306122 12.1278912 62.2367347 12.1632653 62.2367347 12.1632653 62.3428571 12.1986395 62.3428571 12.1986395 62.4489796 12.2340136 62.4489796 12.2340136 62.5197279 12.2693878 62.5197279 12.2693878 62.6258503 12.3047619 62.6258503 12.3047619 62.6965986 12.3401361 62.6965986 12.3401361 62.7673469 12.3755102 62.7673469 12.3755102 62.8734694 12.4108844 62.8734694 12.4108844 62.9088435 12.4462585 62.9088435 12.4462585 62.9795918 12.4816327 62.9795918 12.4816327 63.0503401 12.5170068 63.0503401 12.5170068 63.1210884 12.552381 63.1210884 12.552381 63.1918367 12.5877551 63.1918367 12.5877551 63.262585 12.6231293 63.262585 12.6231293 63.2979592 12.6585034 63.2979592 12.6585034 63.3687075 12.6938776 63.3687075 12.6938776 63.4040816 12.7292517 63.4040816 12.7292517 63.4748299 12.7646259 63.4748299 12.7646259 63.5102041 12.8 63.5102041 12.8 63.5809524 12.8353741 63.5809524 12.8353741 63.6163265 12.8707483 63.6163265 12.8707483 63.6870748 12.9061224 63.6870748 12.9061224 63.722449 12.9414966 63.722449 12.9414966 63.7578231 12.9768707 63.7578231 12.9768707 63.8285714 13.0122449 63.8285714 13.0122449 63.8639456 13.047619 63.8639456 13.047619 63.8993197 13.0829932 63.8993197 13.0829932 63.9346939 13.1183673 63.9346939 13.1183673 63.970068 13.1537415 63.970068 13.1537415 64.0408163 13.1891156 64.0408163 13.1891156 64.0761905 13.2244898 64.0761905 13.2244898 64.1115646 13.2598639 64.1115646 13.2598639 64.1469388 13.2952381 64.1469388 13.2952381 64.1823129 13.3306122 64.1823129 13.3306122 64.2176871 13.3659864 64.2176871 13.3659864 64.2530612 13.4013605 64.2530612 13.4013605 64.2884354 13.4367347 64.2884354 13.4367347 64.3238095 13.4721088 64.3238095 13.4721088 64.3591837 13.507483 64.3591837 13.507483 64.3945578 13.5428571 64.3945578 13.5428571 64.429932 13.5782313 64.429932 13.5782313 64.4653061 13.6136054 64.4653061 13.6136054 64.5006803 13.6489796 64.5006803 13.6489796 64.5360544 13.7197279 64.5360544 13.7197279 64.5714286 13.755102 64.5714286 13.755102 64.6068027 13.7904762 64.6068027 13.7904762 64.6421769 13.8258503 64.6421769 13.8258503 64.677551 13.8612245 64.677551 13.8612245 64.7129252 13.9319728 64.7129252 13.9319728 64.7482993 13.9673469 64.7482993 13.9673469 64.7836735 14.0027211 64.7836735 14.0027211 64.8190476 14.0734694 64.8190476 14.0734694 64.8544218 14.1088435 64.8544218 14.1088435 64.8897959 14.1795918 64.8897959 14.1795918 64.9251701 14.214966 64.9251701 14.214966 64.9605442 14.2857143 64.9605442 14.2857143 64.9959184 14.3210884 64.9959184 14.3210884 65.0312925 14.3918367 65.0312925 14.3918367 65.0666667 14.4272109 65.0666667 14.4272109 65.1020408 14.4979592 65.1020408 14.4979592 65.137415 14.5687075 65.137415 14.5687075 65.1727891 14.6394558 65.1727891 14.6394558 65.2081633 14.6748299 65.2081633 14.6748299 65.2435374 14.7455782 65.2435374 14.7455782 65.2789116 14.8163265 65.2789116 14.8163265 65.3142857 14.8870748 65.3142857 14.8870748 65.3496599 14.9931973 65.3496599 14.9931973 65.385034 15.0639456 65.385034 15.0639456 65.4204082 15.1346939 65.4204082 15.1346939 65.4557823 15.2408163 65.4557823 15.2408163 65.4911565 15.3115646 65.4911565 15.3115646 65.5265306 15.4176871 65.5265306 15.4176871 65.5619048 15.5238095 65.5619048 15.5238095 65.5972789 15.629932 65.5972789 15.629932 65.6326531 15.7714286 65.6326531 15.7714286 65.6680272 15.9129252 65.6680272 15.9129252 65.7034014 16.0897959 65.7034014 16.0897959 65.7387755 16.2666667 65.7387755 16.2666667 65.7741497 16.5142857 65.7741497 16.5142857 65.8095238 16.8680272 65.8095238 16.8680272 65.844898 20.6530612 65.844898 20.6530612 76.7755102 20.6884354 76.7755102 20.6884354 77.2707483 20.7238095 77.2707483 20.7238095 77.5183673 20.7591837 77.5183673 20.7591837 77.6952381 20.7945578 77.6952381 20.7945578 77.8367347 20.829932 77.8367347 20.829932 77.9782313 20.8653061 77.9782313 20.8653061 78.1197279 20.9006803 78.1197279 20.9006803 78.2258503 20.9360544 78.2258503 20.9360544 78.3319728 20.9714286 78.3319728 20.9714286 78.4027211 21.0068027 78.4027211 21.0068027 78.5088435 21.0421769 78.5088435 21.0421769 78.5795918 21.077551 78.5795918 21.077551 78.6857143 21.1129252 78.6857143 21.1129252 78.7564626 21.1482993 78.7564626 21.1482993 78.8272109 21.1836735 78.8272109 21.1836735 78.8979592 21.2190476 78.8979592 21.2190476 78.9687075 21.2544218 78.9687075 21.2544218 79.0394558 21.2897959 79.0394558 21.2897959 79.0748299 21.3251701 79.0748299 21.3251701 79.1455782 21.3605442 79.1455782 21.3605442 79.2163265 21.3959184 79.2163265 21.3959184 79.2870748 21.4312925 79.2870748 21.4312925 79.322449 21.4666667 79.322449 21.4666667 79.3931973 21.5020408 79.3931973 21.5020408 79.4285714 21.537415 79.4285714 21.537415 79.4993197 21.5727891 79.4993197 21.5727891 79.5346939 21.6081633 79.5346939 21.6081633 79.570068 21.6435374 79.570068 21.6435374 79.6408163 21.6789116 79.6408163 21.6789116 79.6761905 21.7142857 79.6761905 21.7142857 79.7115646 21.7496599 79.7115646 21.7496599 79.7823129 21.785034 79.7823129 21.785034 79.8176871 21.8204082 79.8176871 21.8204082 79.8530612 21.8557823 79.8530612 21.8557823 79.8884354 21.8911565 79.8884354 21.8911565 79.9238095 21.9265306 79.9238095 21.9265306 79.9591837 21.9619048 79.9591837 21.9619048 79.9945578 21.9972789 79.9945578 21.9972789 80.029932 22.0326531 80.029932 22.0326531 80.1006803 22.0680272 80.1006803 22.0680272 80.1360544 22.1034014 80.1360544 22.1034014 80.1714286 22.1387755 80.1714286 22.1387755 80.2068027 22.2095238 80.2068027 22.2095238 80.2421769 22.244898 80.2421769 22.244898 80.277551 22.2802721 80.277551 22.2802721 80.3129252 22.3156463 80.3129252 22.3156463 80.3482993 22.3510204 80.3482993 22.3510204 80.3836735 22.3863946 80.3836735 22.3863946 80.4190476 22.4217687 80.4190476 22.4217687 80.4544218 22.4571429 80.4544218 22.4571429 80.4897959 22.5278912 80.4897959 22.5278912 80.5251701 22.5632653 80.5251701 22.5632653 80.5605442 22.5986395 80.5605442 22.5986395 80.5959184 22.6693878 80.5959184 22.6693878 80.6312925 22.7047619 80.6312925 22.7047619 80.6666667 22.7401361 80.6666667 22.7401361 80.7020408 22.8108844 80.7020408 22.8108844 80.737415 22.8462585 80.737415 22.8462585 80.7727891 22.9170068 80.7727891 22.9170068 80.8081633 22.952381 80.8081633 22.952381 80.8435374 23.0231293 80.8435374 23.0231293 80.8789116 23.0938776 80.8789116 23.0938776 80.9142857 23.1292517 80.9142857 23.1292517 80.9496599 23.2 80.9496599 23.2 80.985034 23.2707483 80.985034 23.2707483 81.0204082 23.3414966 81.0204082 23.3414966 81.0557823 23.4122449 81.0557823 23.4122449 81.0911565 23.4829932 81.0911565 23.4829932 81.1265306 23.5537415 81.1265306 23.5537415 81.1619048 23.6244898 81.1619048 23.6244898 81.1972789 23.7306122 81.1972789 23.7306122 81.2326531 23.8013605 81.2326531 23.8013605 81.2680272 23.907483 81.2680272 23.907483 81.3034014 24.0136054 81.3034014 24.0136054 81.3387755 24.1197279 81.3387755 24.1197279 81.3741497 24.2258503 81.3741497 24.2258503 81.4095238 24.3673469 81.4095238 24.3673469 81.444898 24.5088435 81.444898 24.5088435 81.4802721 24.6857143 81.4802721 24.6857143 81.5156463 24.8979592 81.5156463 24.8979592 81.5510204 25.2517007 81.5510204 25.2517007 81.5863946 25.8530612 81.5863946 25.8530612 81.5510204 26.2068027 81.5510204 26.2068027 81.5156463 26.4190476 81.5156463 26.4190476 81.4802721 26.5959184 81.4802721 26.5959184 81.444898 26.7727891 81.444898 26.7727891 81.4095238 26.8789116 81.4095238 26.8789116 81.3741497 27.0204082 81.3741497 27.0204082 81.3387755 27.0911565 81.3387755 27.0911565 81.3034014 27.2326531 81.3034014 27.2326531 81.2680272 27.3034014 81.2680272 27.3034014 81.2326531 27.4095238 81.2326531 27.4095238 81.1972789 27.4802721 81.1972789 27.4802721 81.1619048 27.5510204 81.1619048 27.5510204 81.1265306 27.6217687 81.1265306 27.6217687 81.0911565 27.692517 81.0911565 27.692517 81.0557823 27.7632653 81.0557823 27.7632653 81.0204082 27.8340136 81.0204082 27.8340136 80.985034 27.9047619 80.985034 27.9047619 80.9496599 27.9755102 80.9496599 27.9755102 80.9142857 28.0462585 80.9142857 28.0462585 80.8789116 28.0816327 80.8789116 28.0816327 80.8435374 28.152381 80.8435374 28.152381 80.8081633 28.2231293 80.8081633 28.2231293 80.7727891 28.2585034 80.7727891 28.2585034 80.737415 28.3292517 80.737415 28.3292517 80.7020408 28.3646259 80.7020408 28.3646259 80.6666667 28.4 80.6666667 28.4 80.6312925 28.4707483 80.6312925 28.4707483 80.5959184 28.5061224 80.5959184 28.5061224 80.5605442 28.5414966 80.5605442 28.5414966 80.5251701 28.6122449 80.5251701 28.6122449 80.4897959 28.647619 80.4897959 28.647619 80.4544218 28.6829932 80.4544218 28.6829932 80.4190476 28.7183673 80.4190476 28.7183673 80.3836735 28.7537415 80.3836735 28.7537415 80.3482993 28.8244898 80.3482993 28.8244898 80.3129252 28.8598639 80.3129252 28.8598639 80.277551 28.8952381 80.277551 28.8952381 80.2421769 28.9306122 80.2421769 28.9306122 80.2068027 28.9659864 80.2068027 28.9659864 80.1714286 29.0013605 80.1714286 29.0013605 80.1360544 29.0367347 80.1360544 29.0367347 80.1006803 29.0721088 80.1006803 29.0721088 80.0653061 29.107483 80.0653061 29.107483 80.029932 29.1428571 80.029932 29.1428571 79.9945578 29.1782313 79.9945578 29.1782313 79.9591837 29.2136054 79.9591837 29.2136054 79.8884354 29.2489796 79.8884354 29.2489796 79.8530612 29.2843537 79.8530612 29.2843537 79.8176871 29.3197279 79.8176871 29.3197279 79.7823129 29.355102 79.7823129 29.355102 79.7469388 29.3904762 79.7469388 29.3904762 79.6761905 29.4258503 79.6761905 29.4258503 79.6408163 29.4612245 79.6408163 29.4612245 79.6054422 29.4965986 79.6054422 29.4965986 79.570068 29.5319728 79.570068 29.5319728 79.4993197 29.5673469 79.4993197 29.5673469 79.4639456 29.6027211 79.4639456 29.6027211 79.3931973 29.6380952 79.3931973 29.6380952 79.3578231 29.6734694 79.3578231 29.6734694 79.2870748 29.7088435 79.2870748 29.7088435 79.2517007 29.7442177 79.2517007 29.7442177 79.1809524 29.7795918 79.1809524 29.7795918 79.1102041 29.814966 79.1102041 29.814966 79.0394558 29.8503401 79.0394558 29.8503401 79.0040816 29.8857143 79.0040816 29.8857143 78.9333333 29.9210884 78.9333333 29.9210884 78.862585 29.9564626 78.862585 29.9564626 78.7918367 29.9918367 78.7918367 29.9918367 78.6857143 30.0272109 78.6857143 30.0272109 78.614966 30.062585 78.614966 30.062585 78.5442177 30.0979592 78.5442177 30.0979592 78.4380952 30.1333333 78.4380952 30.1333333 78.3673469 30.1687075 78.3673469 30.1687075 78.2612245 30.2040816 78.2612245 30.2040816 78.155102 30.2394558 78.155102 30.2394558 78.0489796 30.2748299 78.0489796 30.2748299 77.907483 30.3102041 77.907483 30.3102041 77.7659864 30.3455782 77.7659864 30.3455782 77.5891156 30.3809524 77.5891156 30.3809524 77.3768707 30.4163265 77.3768707 30.4163265 77.0585034 30.4517007 77.0585034 30.4517007 65.844898 37.0312925 65.844898 37.0312925 77.0585034 37.0666667 77.0585034 37.0666667 77.3768707 37.1020408 77.3768707 37.1020408 77.5891156 37.137415 77.5891156 37.137415 77.7659864 37.1727891 77.7659864 37.1727891 77.907483 37.2081633 77.907483 37.2081633 78.0489796 37.2435374 78.0489796 37.2435374 78.155102 37.2789116 78.155102 37.2789116 78.2612245 37.3142857 78.2612245 37.3142857 78.3673469 37.3496599 78.3673469 37.3496599 78.4380952 37.385034 78.4380952 37.385034 78.5442177 37.4204082 78.5442177 37.4204082 78.614966 37.4557823 78.614966 37.4557823 78.7210884 37.4911565 78.7210884 37.4911565 78.7918367 37.5265306 78.7918367 37.5265306 78.862585 37.5619048 78.862585 37.5619048 78.9333333 37.5972789 78.9333333 37.5972789 79.0040816 37.6326531 79.0040816 37.6326531 79.0394558 37.6680272 79.0394558 37.6680272 79.1102041 37.7034014 79.1102041 37.7034014 79.1809524 37.7387755 79.1809524 37.7387755 79.2517007 37.7741497 79.2517007 37.7741497 79.2870748 37.8095238 79.2870748 37.8095238 79.3578231 37.844898 79.3578231 37.844898 79.3931973 37.8802721 79.3931973 37.8802721 79.4639456 37.9156463 79.4639456 37.9156463 79.4993197 37.9510204 79.4993197 37.9510204 79.570068 37.9863946 79.570068 37.9863946 79.6054422 38.0217687 79.6054422 38.0217687 79.6408163 38.0571429 79.6408163 38.0571429 79.6761905 38.092517 79.6761905 38.092517 79.7469388 38.1278912 79.7469388 38.1278912 79.7823129 38.1632653 79.7823129 38.1632653 79.8176871 38.1986395 79.8176871 38.1986395 79.8530612 38.2340136 79.8530612 38.2340136 79.8884354 38.2693878 79.8884354 38.2693878 79.9591837 38.3047619 79.9591837 38.3047619 79.9945578 38.3401361 79.9945578 38.3401361 80.029932 38.3755102 80.029932 38.3755102 80.0653061 38.4108844 80.0653061 38.4108844 80.1006803 38.4462585 80.1006803 38.4462585 80.1360544 38.4816327 80.1360544 38.4816327 80.1714286 38.5170068 80.1714286 38.5170068 80.2068027 38.552381 80.2068027 38.552381 80.2421769 38.5877551 80.2421769 38.5877551 80.277551 38.6231293 80.277551 38.6231293 80.3129252 38.6585034 80.3129252 38.6585034 80.3482993 38.7292517 80.3482993 38.7292517 80.3836735 38.7646259 80.3836735 38.7646259 80.4190476 38.8 80.4190476 38.8 80.4544218 38.8353741 80.4544218 38.8353741 80.4897959 38.8707483 80.4897959 38.8707483 80.5251701 38.9414966 80.5251701 38.9414966 80.5605442 38.9768707 80.5605442 38.9768707 80.5959184 39.0122449 80.5959184 39.0122449 80.6312925 39.0829932 80.6312925 39.0829932 80.6666667 39.1183673 80.6666667 39.1183673 80.7020408 39.1537415 80.7020408 39.1537415 80.737415 39.2244898 80.737415 39.2244898 80.7727891 39.2598639 80.7727891 39.2598639 80.8081633 39.3306122 80.8081633 39.3306122 80.8435374 39.4013605 80.8435374 39.4013605 80.8789116 39.4367347 80.8789116 39.4367347 80.9142857 39.507483 80.9142857 39.507483 80.9496599 39.5782313 80.9496599 39.5782313 80.985034 39.6489796 80.985034 39.6489796 81.0204082 39.7197279 81.0204082 39.7197279 81.0557823 39.7904762 81.0557823 39.7904762 81.0911565 39.8258503 81.0911565 39.8258503 81.1265306 39.9319728 81.1265306 39.9319728 81.1619048 40.0027211 81.1619048 40.0027211 81.1972789 40.0734694 81.1972789 40.0734694 81.2326531 40.1795918 81.2326531 40.1795918 81.2680272 40.2503401 81.2680272 40.2503401 81.3034014 40.3918367 81.3034014 40.3918367 81.3387755 40.462585 81.3387755 40.462585 81.3741497 40.6040816 81.3741497 40.6040816 81.4095238 40.7102041 81.4095238 40.7102041 81.444898 40.8870748 81.444898 40.8870748 81.4802721 41.0639456 81.4802721 41.0639456 81.5156463 41.2761905 81.5156463 41.2761905 81.5510204 41.629932 81.5510204 41.629932 81.5863946 42.2312925 81.5863946 42.2312925 81.5510204 42.585034 81.5510204 42.585034 81.5156463 42.7972789 81.5156463 42.7972789 81.4802721 42.9741497 81.4802721 42.9741497 81.444898 43.1156463 81.444898 43.1156463 81.4095238 43.2571429 81.4095238 43.2571429 81.3741497 43.3632653 81.3741497 43.3632653 81.3387755 43.4693878 81.3387755 43.4693878 81.3034014 43.5755102 81.3034014 43.5755102 81.2680272 43.6816327 81.2680272 43.6816327 81.2326531 43.752381 81.2326531 43.752381 81.1972789 43.8585034 81.1972789 43.8585034 81.1619048 43.9292517 81.1619048 43.9292517 81.1265306 44 81.1265306 44 81.0911565 44.0707483 81.0911565 44.0707483 81.0557823 44.1414966 81.0557823 44.1414966 81.0204082 44.2122449 81.0204082 44.2122449 80.985034 44.2829932 80.985034 44.2829932 80.9496599 44.3537415 80.9496599 44.3537415 80.9142857 44.3891156 80.9142857 44.3891156 80.8789116 44.4598639 80.8789116 44.4598639 80.8435374 44.5306122 80.8435374 44.5306122 80.8081633 44.5659864 80.8081633 44.5659864 80.7727891 44.6367347 80.7727891 44.6367347 80.737415 44.6721088 80.737415 44.6721088 80.7020408 44.7428571 80.7020408 44.7428571 80.6666667 44.7782313 80.6666667 44.7782313 80.6312925 44.8136054 80.6312925 44.8136054 80.5959184 44.8843537 80.5959184 44.8843537 80.5605442 44.9197279 80.5605442 44.9197279 80.5251701 44.955102 80.5251701 44.955102 80.4897959 45.0258503 80.4897959 45.0258503 80.4544218 45.0612245 80.4544218 45.0612245 80.4190476 45.0965986 80.4190476 45.0965986 80.3836735 45.1319728 80.3836735 45.1319728 80.3482993 45.1673469 80.3482993 45.1673469 80.3129252 45.2027211 80.3129252 45.2027211 80.277551 45.2380952 80.277551 45.2380952 80.2421769 45.2734694 80.2421769 45.2734694 80.2068027 45.3088435 80.2068027 45.3088435 80.1714286 45.3795918 80.1714286 45.3795918 80.1360544 45.414966 80.1360544 45.414966 80.0653061 45.4503401 80.0653061 45.4503401 80.029932 45.4857143 80.029932 45.4857143 79.9945578 45.5210884 79.9945578 45.5210884 79.9591837 45.5564626 79.9591837 45.5564626 79.9238095 45.5918367 79.9238095 45.5918367 79.8884354 45.6272109 79.8884354 45.6272109 79.8530612 45.662585 79.8530612 45.662585 79.8176871 45.6979592 79.8176871 45.6979592 79.7469388 45.7333333 79.7469388 45.7333333 79.7115646 45.7687075 79.7115646 45.7687075 79.6761905 45.8040816 79.6761905 45.8040816 79.6408163 45.8394558 79.6408163 45.8394558 79.570068 45.8748299 79.570068 45.8748299 79.5346939 45.9102041 79.5346939 45.9102041 79.4993197 45.9455782 79.4993197 45.9455782 79.4285714 45.9809524 79.4285714 45.9809524 79.3931973 46.0163265 79.3931973 46.0163265 79.322449 46.0517007 79.322449 46.0517007 79.2870748 46.0870748 79.2870748 46.0870748 79.2163265 46.122449 79.2163265 46.122449 79.1455782 46.1578231 79.1455782 46.1578231 79.0748299 46.1931973 79.0748299 46.1931973 79.0394558 46.2285714 79.0394558 46.2285714 78.9687075 46.2639456 78.9687075 46.2639456 78.8979592 46.2993197 78.8979592 46.2993197 78.8272109 46.3346939 78.8272109 46.3346939 78.7564626 46.370068 78.7564626 46.370068 78.6857143 46.4054422 78.6857143 46.4054422 78.5795918 46.4408163 78.5795918 46.4408163 78.5088435 46.4761905 78.5088435 46.4761905 78.4027211 46.5115646 78.4027211 46.5115646 78.3319728 46.5469388 78.3319728 46.5469388 78.2258503 46.5823129 78.2258503 46.5823129 78.1197279 46.6176871 78.1197279 46.6176871 77.9782313 46.6530612 77.9782313 46.6530612 77.8367347 46.6884354 77.8367347 46.6884354 77.6952381 46.7238095 77.6952381 46.7238095 77.5183673 46.7591837 77.5183673 46.7591837 77.2707483 46.7945578 77.2707483 46.7945578 76.7755102 46.829932 76.7755102 46.829932 65.844898 50.614966 65.844898 50.614966 65.8095238 50.9687075 65.8095238 50.9687075 65.7741497 51.2163265 65.7741497 51.2163265 65.7387755 51.3931973 65.7387755 51.3931973 65.7034014 51.570068 65.7034014 51.570068 65.6680272 51.7115646 65.6680272 51.7115646 65.6326531 51.8530612 65.6326531 51.8530612 65.5972789 51.9591837 65.5972789 51.9591837 65.5619048 52.0653061 65.5619048 52.0653061 65.5265306 52.1714286 65.5265306 52.1714286 65.4911565 52.2421769 65.4911565 52.2421769 65.4557823 52.3482993 65.4557823 52.3482993 65.4204082 52.4190476 65.4204082 52.4190476 65.385034 52.4897959 65.385034 52.4897959 65.3496599 52.5959184 65.3496599 52.5959184 65.3142857 52.6666667 65.3142857 52.6666667 65.2789116 52.737415 65.2789116 52.737415 65.2435374 52.8081633 65.2435374 52.8081633 65.2081633 52.8435374 65.2081633 52.8435374 65.1727891 52.9142857 65.1727891 52.9142857 65.137415 52.985034 65.137415 52.985034 65.1020408 53.0557823 65.1020408 53.0557823 65.0666667 53.0911565 65.0666667 53.0911565 65.0312925 53.1619048 65.0312925 53.1619048 64.9959184 53.1972789 64.9959184 53.1972789 64.9605442 53.2680272 64.9605442 53.2680272 64.9251701 53.3034014 64.9251701 53.3034014 64.8897959 53.3741497 64.8897959 53.3741497 64.8544218 53.4095238 64.8544218 53.4095238 64.8190476 53.4802721 64.8190476 53.4802721 64.7836735 53.5156463 64.7836735 53.5156463 64.7482993 53.5510204 64.7482993 53.5510204 64.7129252 53.6217687 64.7129252 53.6217687 64.677551 53.6571429 64.677551 53.6571429 64.6421769 53.692517 64.6421769 53.692517 64.6068027 53.7278912 64.6068027 53.7278912 64.5714286 53.7632653 64.5714286 53.7632653 64.5360544 53.8340136 64.5360544 53.8340136 64.5006803 53.8693878 64.5006803 53.8693878 64.4653061 53.9047619 64.4653061 53.9047619 64.429932 53.9401361 64.429932 53.9401361 64.3945578 53.9755102 64.3945578 53.9755102 64.3591837 54.0108844 64.3591837 54.0108844 64.3238095 54.0462585 64.3238095 54.0462585 64.2884354 54.0816327 64.2884354 54.0816327 64.2530612 54.1170068 64.2530612 54.1170068 64.2176871 54.152381 64.2176871 54.152381 64.1823129 54.1877551 64.1823129 54.1877551 64.1469388 54.2231293 64.1469388 54.2231293 64.1115646 54.2585034 64.1115646 54.2585034 64.0761905 54.2938776 64.0761905 54.2938776 64.0408163 54.3292517 64.0408163 54.3292517 63.970068 54.3646259 63.970068 54.3646259 63.9346939 54.4 63.9346939 54.4 63.8993197 54.4353741 63.8993197 54.4353741 63.8639456 54.4707483 63.8639456 54.4707483 63.8285714 54.5061224 63.8285714 54.5061224 63.7578231 54.5414966 63.7578231 54.5414966 63.722449 54.5768707 63.722449 54.5768707 63.6870748 54.6122449 63.6870748 54.6122449 63.6163265 54.647619 63.6163265 54.647619 63.5809524 54.6829932 63.5809524 54.6829932 63.5102041 54.7183673 63.5102041 54.7183673 63.4748299 54.7537415 63.4748299 54.7537415 63.4040816 54.7891156 63.4040816 54.7891156 63.3687075 54.8244898 63.3687075 54.8244898 63.2979592 54.8598639 63.2979592 54.8598639 63.262585 54.8952381 63.262585 54.8952381 63.1918367 54.9306122 63.1918367 54.9306122 63.1210884 54.9659864 63.1210884 54.9659864 63.0503401 55.0013605 63.0503401 55.0013605 62.9795918 55.0367347 62.9795918 55.0367347 62.9088435 55.0721088 62.9088435 55.0721088 62.8734694 55.107483 62.8734694 55.107483 62.7673469 55.1428571 62.7673469 55.1428571 62.6965986 55.1782313 62.6965986 55.1782313 62.6258503 55.2136054 62.6258503 55.2136054 62.5197279 55.2489796 62.5197279 55.2489796 62.4489796 55.2843537 62.4489796 55.2843537 62.3428571 55.3197279 62.3428571 55.3197279 62.2367347 55.355102 62.2367347 55.355102 62.1306122 55.3904762 62.1306122 55.3904762 62.0244898 55.4258503 62.0244898 55.4258503 61.9183673 55.4612245 61.9183673 55.4612245 61.7768707 55.4965986 61.7768707 55.4965986 61.6 55.5319728 61.6 55.5319728 61.4231293 55.5673469 61.4231293 55.5673469 61.1401361 55.6027211 61.1401361 55.6027211 60.6095238 55.6380952 60.6095238 55.6380952 28.8081633"></polygon>
                        <polygon id="Shape" points="0.206802721 32.7346939 0.206802721 32.5578231 0.242176871 32.5578231 0.242176871 32.2040816 0.27755102 32.2040816 0.27755102 31.9918367 0.31292517 31.9918367 0.31292517 31.814966 0.34829932 31.814966 0.34829932 31.6734694 0.383673469 31.6734694 0.383673469 31.5319728 0.419047619 31.5319728 0.419047619 31.4258503 0.454421769 31.4258503 0.454421769 31.3197279 0.489795918 31.3197279 0.489795918 31.2136054 0.525170068 31.2136054 0.525170068 31.107483 0.560544218 31.107483 0.560544218 31.0367347 0.595918367 31.0367347 0.595918367 30.9306122 0.631292517 30.9306122 0.631292517 30.8598639 0.666666667 30.8598639 0.666666667 30.7891156 0.702040816 30.7891156 0.702040816 30.7183673 0.737414966 30.7183673 0.737414966 30.647619 0.772789116 30.647619 0.772789116 30.5768707 0.808163265 30.5768707 0.808163265 30.5061224 0.843537415 30.5061224 0.843537415 30.4353741 0.878911565 30.4353741 0.878911565 30.4 0.914285714 30.4 0.914285714 30.3292517 0.949659864 30.3292517 0.949659864 30.2585034 0.985034014 30.2585034 0.985034014 30.2231293 1.02040816 30.2231293 1.02040816 30.152381 1.05578231 30.152381 1.05578231 30.1170068 1.09115646 30.1170068 1.09115646 30.0462585 1.12653061 30.0462585 1.12653061 30.0108844 1.16190476 30.0108844 1.16190476 29.9401361 1.19727891 29.9401361 1.19727891 29.9047619 1.23265306 29.9047619 1.23265306 29.8693878 1.26802721 29.8693878 1.26802721 29.8340136 1.30340136 29.8340136 1.30340136 29.7632653 1.33877551 29.7632653 1.33877551 29.7278912 1.37414966 29.7278912 1.37414966 29.692517 1.40952381 29.692517 1.40952381 29.6571429 1.44489796 29.6571429 1.44489796 29.6217687 1.48027211 29.6217687 1.48027211 29.5863946 1.51564626 29.5863946 1.51564626 29.5156463 1.55102041 29.5156463 1.55102041 29.4802721 1.58639456 29.4802721 1.58639456 29.444898 1.62176871 29.444898 1.62176871 29.4095238 1.65714286 29.4095238 1.65714286 29.3741497 1.69251701 29.3741497 1.69251701 29.3387755 1.72789116 29.3387755 1.72789116 29.3034014 1.79863946 29.3034014 1.79863946 29.2680272 1.83401361 29.2680272 1.83401361 29.2326531 1.86938776 29.2326531 1.86938776 29.1972789 1.9047619 29.1972789 1.9047619 29.1619048 1.94013605 29.1619048 1.94013605 29.1265306 1.9755102 29.1265306 1.9755102 29.0911565 2.01088435 29.0911565 2.01088435 29.0557823 2.08163265 29.0557823 2.08163265 29.0204082 2.1170068 29.0204082 2.1170068 28.985034 2.15238095 28.985034 2.15238095 28.9496599 2.22312925 28.9496599 2.22312925 28.9142857 2.2585034 28.9142857 2.2585034 28.8789116 2.29387755 28.8789116 2.29387755 28.8435374 2.36462585 28.8435374 2.36462585 28.8081633 2.4 28.8081633 2.4 28.7727891 2.4707483 28.7727891 2.4707483 28.737415 2.50612245 28.737415 2.50612245 28.7020408 2.57687075 28.7020408 2.57687075 28.6666667 2.64761905 28.6666667 2.64761905 28.6312925 2.6829932 28.6312925 2.6829932 28.5959184 2.7537415 28.5959184 2.7537415 28.5605442 2.8244898 28.5605442 2.8244898 28.5251701 2.8952381 28.5251701 2.8952381 28.4897959 2.96598639 28.4897959 2.96598639 28.4544218 3.03673469 28.4544218 3.03673469 28.4190476 3.10748299 28.4190476 3.10748299 28.3836735 3.17823129 28.3836735 3.17823129 28.3482993 3.28435374 28.3482993 3.28435374 28.3129252 3.35510204 28.3129252 3.35510204 28.277551 3.46122449 28.277551 3.46122449 28.2421769 3.56734694 28.2421769 3.56734694 28.2068027 3.67346939 28.2068027 3.67346939 28.1714286 3.81496599 28.1714286 3.81496599 28.1360544 3.92108844 28.1360544 3.92108844 28.1006803 4.09795918 28.1006803 4.09795918 28.0653061 4.27482993 28.0653061 4.27482993 28.029932 4.52244898 28.029932 4.52244898 27.9945578 4.98231293 27.9945578 4.98231293 27.9591837 5.22993197 27.9591837 5.22993197 27.9945578 5.68979592 27.9945578 5.68979592 28.029932 5.93741497 28.029932 5.93741497 28.0653061 6.11428571 28.0653061 6.11428571 28.1006803 6.29115646 28.1006803 6.29115646 28.1360544 6.39727891 28.1360544 6.39727891 28.1714286 6.53877551 28.1714286 6.53877551 28.2068027 6.64489796 28.2068027 6.64489796 28.2421769 6.75102041 28.2421769 6.75102041 28.277551 6.85714286 28.277551 6.85714286 28.3129252 6.92789116 28.3129252 6.92789116 28.3482993 7.03401361 28.3482993 7.03401361 28.3836735 7.1047619 28.3836735 7.1047619 28.4190476 7.1755102 28.4190476 7.1755102 28.4544218 7.2462585 28.4544218 7.2462585 28.4897959 7.3170068 28.4897959 7.3170068 28.5251701 7.3877551 28.5251701 7.3877551 28.5605442 7.4585034 28.5605442 7.4585034 28.5959184 7.5292517 28.5959184 7.5292517 28.6312925 7.56462585 28.6312925 7.56462585 28.6666667 7.63537415 28.6666667 7.63537415 28.7020408 7.70612245 28.7020408 7.70612245 28.737415 7.7414966 28.737415 7.7414966 28.7727891 7.8122449 28.7727891 7.8122449 28.8081633 7.84761905 28.8081633 7.84761905 28.8435374 7.91836735 28.8435374 7.91836735 28.8789116 7.9537415 28.8789116 7.9537415 28.9142857 7.98911565 28.9142857 7.98911565 28.9496599 8.05986395 28.9496599 8.05986395 28.985034 8.0952381 28.985034 8.0952381 29.0204082 8.13061224 29.0204082 8.13061224 29.0557823 8.16598639 29.0557823 8.16598639 29.0911565 8.23673469 29.0911565 8.23673469 29.1265306 8.27210884 29.1265306 8.27210884 29.1619048 8.30748299 29.1619048 8.30748299 29.1972789 8.34285714 29.1972789 8.34285714 29.2326531 8.37823129 29.2326531 8.37823129 29.2680272 8.41360544 29.2680272 8.41360544 29.3034014 8.44897959 29.3034014 8.44897959 29.3387755 8.51972789 29.3387755 8.51972789 29.3741497 8.55510204 29.3741497 8.55510204 29.4095238 8.59047619 29.4095238 8.59047619 29.444898 8.62585034 29.444898 8.62585034 29.5156463 8.66122449 29.5156463 8.66122449 29.5510204 8.69659864 29.5510204 8.69659864 29.5863946 8.73197279 29.5863946 8.73197279 29.6217687 8.76734694 29.6217687 8.76734694 29.6571429 8.80272109 29.6571429 8.80272109 29.692517 8.83809524 29.692517 8.83809524 29.7278912 8.87346939 29.7278912 8.87346939 29.7632653 8.90884354 29.7632653 8.90884354 29.8340136 8.94421769 29.8340136 8.94421769 29.8693878 8.97959184 29.8693878 8.97959184 29.9047619 9.01496599 29.9047619 9.01496599 29.9755102 9.05034014 29.9755102 9.05034014 30.0108844 9.08571429 30.0108844 9.08571429 30.0462585 9.12108844 30.0462585 9.12108844 30.1170068 9.15646259 30.1170068 9.15646259 30.152381 9.19183673 30.152381 9.19183673 30.2231293 9.22721088 30.2231293 9.22721088 30.2585034 9.26258503 30.2585034 9.26258503 30.3292517 9.29795918 30.3292517 9.29795918 30.4 9.33333333 30.4 9.33333333 30.4353741 9.36870748 30.4353741 9.36870748 30.5061224 9.40408163 30.5061224 9.40408163 30.5768707 9.43945578 30.5768707 9.43945578 30.647619 9.47482993 30.647619 9.47482993 30.7183673 9.51020408 30.7183673 9.51020408 30.7891156 9.54557823 30.7891156 9.54557823 30.8598639 9.58095238 30.8598639 9.58095238 30.9306122 9.61632653 30.9306122 9.61632653 31.0367347 9.65170068 31.0367347 9.65170068 31.107483 9.68707483 31.107483 9.68707483 31.2136054 9.72244898 31.2136054 9.72244898 31.3197279 9.75782313 31.3197279 9.75782313 31.4258503 9.79319728 31.4258503 9.79319728 31.5319728 9.82857143 31.5319728 9.82857143 31.6734694 9.86394558 31.6734694 9.86394558 31.814966 9.89931973 31.814966 9.89931973 31.9918367 9.93469388 31.9918367 9.93469388 32.2394558 9.97006803 32.2394558 9.97006803 32.5931973 10.0054422 32.5931973 10.0054422 53.6054422 9.97006803 53.6054422 9.97006803 53.9591837 9.93469388 53.9591837 9.93469388 54.2068027 9.89931973 54.2068027 9.89931973 54.3836735 9.86394558 54.3836735 9.86394558 54.5251701 9.82857143 54.5251701 9.82857143 54.6666667 9.79319728 54.6666667 9.79319728 54.7727891 9.75782313 54.7727891 9.75782313 54.8789116 9.72244898 54.8789116 9.72244898 54.985034 9.68707483 54.985034 9.68707483 55.0911565 9.65170068 55.0911565 9.65170068 55.1619048 9.61632653 55.1619048 9.61632653 55.2680272 9.58095238 55.2680272 9.58095238 55.3387755 9.54557823 55.3387755 9.54557823 55.4095238 9.51020408 55.4095238 9.51020408 55.4802721 9.47482993 55.4802721 9.47482993 55.5510204 9.43945578 55.5510204 9.43945578 55.6217687 9.40408163 55.6217687 9.40408163 55.692517 9.36870748 55.692517 9.36870748 55.7632653 9.33333333 55.7632653 9.33333333 55.7986395 9.29795918 55.7986395 9.29795918 55.8693878 9.26258503 55.8693878 9.26258503 55.9401361 9.22721088 55.9401361 9.22721088 55.9755102 9.19183673 55.9755102 9.19183673 56.0462585 9.15646259 56.0462585 9.15646259 56.0816327 9.12108844 56.0816327 9.12108844 56.152381 9.08571429 56.152381 9.08571429 56.1877551 9.05034014 56.1877551 9.05034014 56.2231293 9.01496599 56.2231293 9.01496599 56.2938776 8.97959184 56.2938776 8.97959184 56.3292517 8.94421769 56.3292517 8.94421769 56.3646259 8.90884354 56.3646259 8.90884354 56.4353741 8.87346939 56.4353741 8.87346939 56.4707483 8.83809524 56.4707483 8.83809524 56.5061224 8.80272109 56.5061224 8.80272109 56.5414966 8.76734694 56.5414966 8.76734694 56.5768707 8.73197279 56.5768707 8.73197279 56.6122449 8.69659864 56.6122449 8.69659864 56.647619 8.66122449 56.647619 8.66122449 56.6829932 8.62585034 56.6829932 8.62585034 56.7537415 8.59047619 56.7537415 8.59047619 56.7891156 8.55510204 56.7891156 8.55510204 56.8244898 8.48435374 56.8244898 8.48435374 56.8598639 8.44897959 56.8598639 8.44897959 56.8952381 8.41360544 56.8952381 8.41360544 56.9306122 8.37823129 56.9306122 8.37823129 56.9659864 8.34285714 56.9659864 8.34285714 57.0013605 8.30748299 57.0013605 8.30748299 57.0367347 8.27210884 57.0367347 8.27210884 57.0721088 8.23673469 57.0721088 8.23673469 57.107483 8.20136054 57.107483 8.20136054 57.1428571 8.13061224 57.1428571 8.13061224 57.1782313 8.0952381 57.1782313 8.0952381 57.2136054 8.05986395 57.2136054 8.05986395 57.2489796 7.98911565 57.2489796 7.98911565 57.2843537 7.9537415 57.2843537 7.9537415 57.3197279 7.91836735 57.3197279 7.91836735 57.355102 7.84761905 57.355102 7.84761905 57.3904762 7.8122449 57.3904762 7.8122449 57.4258503 7.7414966 57.4258503 7.7414966 57.4612245 7.6707483 57.4612245 7.6707483 57.4965986 7.63537415 57.4965986 7.63537415 57.5319728 7.56462585 57.5319728 7.56462585 57.5673469 7.49387755 57.5673469 7.49387755 57.6027211 7.4585034 57.6027211 7.4585034 57.6380952 7.3877551 57.6380952 7.3877551 57.6734694 7.3170068 57.6734694 7.3170068 57.7088435 7.2462585 57.7088435 7.2462585 57.7442177 7.1755102 57.7442177 7.1755102 57.7795918 7.1047619 57.7795918 7.1047619 57.814966 6.99863946 57.814966 6.99863946 57.8503401 6.92789116 57.8503401 6.92789116 57.8857143 6.82176871 57.8857143 6.82176871 57.9210884 6.75102041 57.9210884 6.75102041 57.9564626 6.64489796 57.9564626 6.64489796 57.9918367 6.53877551 57.9918367 6.53877551 58.0272109 6.39727891 58.0272109 6.39727891 58.062585 6.29115646 58.062585 6.29115646 58.0979592 6.11428571 58.0979592 6.11428571 58.1333333 5.93741497 58.1333333 5.93741497 58.1687075 5.68979592 58.1687075 5.68979592 58.2040816 5.26530612 58.2040816 5.26530612 58.2394558 4.94693878 58.2394558 4.94693878 58.2040816 4.52244898 58.2040816 4.52244898 58.1687075 4.27482993 58.1687075 4.27482993 58.1333333 4.09795918 58.1333333 4.09795918 58.0979592 3.92108844 58.0979592 3.92108844 58.062585 3.77959184 58.062585 3.77959184 58.0272109 3.67346939 58.0272109 3.67346939 57.9918367 3.56734694 57.9918367 3.56734694 57.9564626 3.46122449 57.9564626 3.46122449 57.9210884 3.35510204 57.9210884 3.35510204 57.8857143 3.28435374 57.8857143 3.28435374 57.8503401 3.17823129 57.8503401 3.17823129 57.814966 3.10748299 57.814966 3.10748299 57.7795918 3.03673469 57.7795918 3.03673469 57.7442177 2.96598639 57.7442177 2.96598639 57.7088435 2.8952381 57.7088435 2.8952381 57.6734694 2.8244898 57.6734694 2.8244898 57.6380952 2.7537415 57.6380952 2.7537415 57.6027211 2.6829932 57.6027211 2.6829932 57.5673469 2.64761905 57.5673469 2.64761905 57.5319728 2.57687075 57.5319728 2.57687075 57.4965986 2.50612245 57.4965986 2.50612245 57.4612245 2.4707483 57.4612245 2.4707483 57.4258503 2.4 57.4258503 2.4 57.3904762 2.36462585 57.3904762 2.36462585 57.355102 2.29387755 57.355102 2.29387755 57.3197279 2.2585034 57.3197279 2.2585034 57.2843537 2.22312925 57.2843537 2.22312925 57.2489796 2.15238095 57.2489796 2.15238095 57.2136054 2.1170068 57.2136054 2.1170068 57.1782313 2.08163265 57.1782313 2.08163265 57.1428571 2.01088435 57.1428571 2.01088435 57.107483 1.9755102 57.107483 1.9755102 57.0721088 1.94013605 57.0721088 1.94013605 57.0367347 1.9047619 57.0367347 1.9047619 57.0013605 1.86938776 57.0013605 1.86938776 56.9659864 1.83401361 56.9659864 1.83401361 56.9306122 1.79863946 56.9306122 1.79863946 56.8952381 1.76326531 56.8952381 1.76326531 56.8598639 1.69251701 56.8598639 1.69251701 56.8244898 1.65714286 56.8244898 1.65714286 56.7891156 1.62176871 56.7891156 1.62176871 56.7537415 1.58639456 56.7537415 1.58639456 56.7183673 1.55102041 56.7183673 1.55102041 56.647619 1.51564626 56.647619 1.51564626 56.6122449 1.48027211 56.6122449 1.48027211 56.5768707 1.44489796 56.5768707 1.44489796 56.5414966 1.40952381 56.5414966 1.40952381 56.5061224 1.37414966 56.5061224 1.37414966 56.4707483 1.33877551 56.4707483 1.33877551 56.4353741 1.30340136 56.4353741 1.30340136 56.3646259 1.26802721 56.3646259 1.26802721 56.3292517 1.23265306 56.3292517 1.23265306 56.2938776 1.19727891 56.2938776 1.19727891 56.2231293 1.16190476 56.2231293 1.16190476 56.1877551 1.12653061 56.1877551 1.12653061 56.152381 1.09115646 56.152381 1.09115646 56.0816327 1.05578231 56.0816327 1.05578231 56.0462585 1.02040816 56.0462585 1.02040816 55.9755102 0.985034014 55.9755102 0.985034014 55.9401361 0.949659864 55.9401361 0.949659864 55.8693878 0.914285714 55.8693878 0.914285714 55.7986395 0.878911565 55.7986395 0.878911565 55.7632653 0.843537415 55.7632653 0.843537415 55.692517 0.808163265 55.692517 0.808163265 55.6217687 0.772789116 55.6217687 0.772789116 55.5510204 0.737414966 55.5510204 0.737414966 55.4802721 0.702040816 55.4802721 0.702040816 55.4095238 0.666666667 55.4095238 0.666666667 55.3387755 0.631292517 55.3387755 0.631292517 55.2680272 0.595918367 55.2680272 0.595918367 55.1619048 0.560544218 55.1619048 0.560544218 55.0911565 0.525170068 55.0911565 0.525170068 54.985034 0.489795918 54.985034 0.489795918 54.8789116 0.454421769 54.8789116 0.454421769 54.7727891 0.419047619 54.7727891 0.419047619 54.6666667 0.383673469 54.6666667 0.383673469 54.5251701 0.34829932 54.5251701 0.34829932 54.3836735 0.31292517 54.3836735 0.31292517 54.2068027 0.27755102 54.2068027 0.27755102 53.9945578 0.242176871 53.9945578 0.242176871 53.6408163 0.206802721 53.6408163"></polygon>
                        <polygon id="Shape" points="57.477551 53.4285714 57.477551 32.5931973 57.5129252 32.5931973 57.5129252 32.2394558 57.5482993 32.2394558 57.5482993 31.9918367 57.5836735 31.9918367 57.5836735 31.814966 57.6190476 31.814966 57.6190476 31.6734694 57.6544218 31.6734694 57.6544218 31.5319728 57.6897959 31.5319728 57.6897959 31.4258503 57.7251701 31.4258503 57.7251701 31.3197279 57.7605442 31.3197279 57.7605442 31.2136054 57.7959184 31.2136054 57.7959184 31.107483 57.8312925 31.107483 57.8312925 31.0367347 57.8666667 31.0367347 57.8666667 30.9306122 57.9020408 30.9306122 57.9020408 30.8598639 57.937415 30.8598639 57.937415 30.7891156 57.9727891 30.7891156 57.9727891 30.7183673 58.0081633 30.7183673 58.0081633 30.647619 58.0435374 30.647619 58.0435374 30.5768707 58.0789116 30.5768707 58.0789116 30.5061224 58.1142857 30.5061224 58.1142857 30.4353741 58.1496599 30.4353741 58.1496599 30.4 58.185034 30.4 58.185034 30.3292517 58.2204082 30.3292517 58.2204082 30.2585034 58.2557823 30.2585034 58.2557823 30.2231293 58.2911565 30.2231293 58.2911565 30.152381 58.3265306 30.152381 58.3265306 30.1170068 58.3619048 30.1170068 58.3619048 30.0462585 58.3972789 30.0462585 58.3972789 30.0108844 58.4326531 30.0108844 58.4326531 29.9755102 58.4680272 29.9755102 58.4680272 29.9047619 58.5034014 29.9047619 58.5034014 29.8693878 58.5387755 29.8693878 58.5387755 29.8340136 58.5741497 29.8340136 58.5741497 29.7632653 58.6095238 29.7632653 58.6095238 29.7278912 58.644898 29.7278912 58.644898 29.692517 58.6802721 29.692517 58.6802721 29.6571429 58.7156463 29.6571429 58.7156463 29.6217687 58.7510204 29.6217687 58.7510204 29.5863946 58.7863946 29.5863946 58.7863946 29.5510204 58.8217687 29.5510204 58.8217687 29.5156463 58.8571429 29.5156463 58.8571429 29.444898 58.892517 29.444898 58.892517 29.4095238 58.9278912 29.4095238 58.9278912 29.3741497 58.9632653 29.3741497 58.9632653 29.3387755 59.0340136 29.3387755 59.0340136 29.3034014 59.0693878 29.3034014 59.0693878 29.2680272 59.1047619 29.2680272 59.1047619 29.2326531 59.1401361 29.2326531 59.1401361 29.1972789 59.1755102 29.1972789 59.1755102 29.1619048 59.2108844 29.1619048 59.2108844 29.1265306 59.2462585 29.1265306 59.2462585 29.0911565 59.2816327 29.0911565 59.2816327 29.0557823 59.352381 29.0557823 59.352381 29.0204082 59.3877551 29.0204082 59.3877551 28.985034 59.4231293 28.985034 59.4231293 28.9496599 59.4938776 28.9496599 59.4938776 28.9142857 59.5292517 28.9142857 59.5292517 28.8789116 59.5646259 28.8789116 59.5646259 28.8435374 59.6353741 28.8435374 59.6353741 28.8081633 59.6707483 28.8081633 59.6707483 28.7727891 59.7414966 28.7727891 59.7414966 28.737415 59.7768707 28.737415 59.7768707 28.7020408 59.847619 28.7020408 59.847619 28.6666667 59.9183673 28.6666667 59.9183673 28.6312925 59.9537415 28.6312925 59.9537415 28.5959184 60.0244898 28.5959184 60.0244898 28.5605442 60.0952381 28.5605442 60.0952381 28.5251701 60.1659864 28.5251701 60.1659864 28.4897959 60.2367347 28.4897959 60.2367347 28.4544218 60.307483 28.4544218 60.307483 28.4190476 60.3782313 28.4190476 60.3782313 28.3836735 60.4489796 28.3836735 60.4489796 28.3482993 60.555102 28.3482993 60.555102 28.3129252 60.6258503 28.3129252 60.6258503 28.277551 60.7319728 28.277551 60.7319728 28.2421769 60.8380952 28.2421769 60.8380952 28.2068027 60.9442177 28.2068027 60.9442177 28.1714286 61.0857143 28.1714286 61.0857143 28.1360544 61.1918367 28.1360544 61.1918367 28.1006803 61.3687075 28.1006803 61.3687075 28.0653061 61.5455782 28.0653061 61.5455782 28.029932 61.7931973 28.029932 61.7931973 27.9945578 62.2530612 27.9945578 62.2530612 27.9591837 62.5006803 27.9591837 62.5006803 27.9945578 62.9605442 27.9945578 62.9605442 28.029932 63.2081633 28.029932 63.2081633 28.0653061 63.385034 28.0653061 63.385034 28.1006803 63.5619048 28.1006803 63.5619048 28.1360544 63.6680272 28.1360544 63.6680272 28.1714286 63.8095238 28.1714286 63.8095238 28.2068027 63.9156463 28.2068027 63.9156463 28.2421769 64.0217687 28.2421769 64.0217687 28.277551 64.1278912 28.277551 64.1278912 28.3129252 64.1986395 28.3129252 64.1986395 28.3482993 64.3047619 28.3482993 64.3047619 28.3836735 64.3755102 28.3836735 64.3755102 28.4190476 64.4462585 28.4190476 64.4462585 28.4544218 64.5170068 28.4544218 64.5170068 28.4897959 64.5877551 28.4897959 64.5877551 28.5251701 64.6585034 28.5251701 64.6585034 28.5605442 64.7292517 28.5605442 64.7292517 28.5959184 64.8 28.5959184 64.8 28.6312925 64.8353741 28.6312925 64.8353741 28.6666667 64.9061224 28.6666667 64.9061224 28.7020408 64.9768707 28.7020408 64.9768707 28.737415 65.0122449 28.737415 65.0122449 28.7727891 65.0829932 28.7727891 65.0829932 28.8081633 65.1183673 28.8081633 65.1183673 28.8435374 65.1891156 28.8435374 65.1891156 28.8789116 65.2244898 28.8789116 65.2244898 28.9142857 65.2598639 28.9142857 65.2598639 28.9496599 65.3306122 28.9496599 65.3306122 28.985034 65.3659864 28.985034 65.3659864 29.0204082 65.4013605 29.0204082 65.4013605 29.0557823 65.4721088 29.0557823 65.4721088 29.0911565 65.507483 29.0911565 65.507483 29.1265306 65.5428571 29.1265306 65.5428571 29.1619048 65.5782313 29.1619048 65.5782313 29.1972789 65.6136054 29.1972789 65.6136054 29.2326531 65.6489796 29.2326531 65.6489796 29.2680272 65.6843537 29.2680272 65.6843537 29.3034014 65.7197279 29.3034014 65.7197279 29.3387755 65.7904762 29.3387755 65.7904762 29.3741497 65.8258503 29.3741497 65.8258503 29.4095238 65.8612245 29.4095238 65.8612245 29.444898 65.8965986 29.444898 65.8965986 29.4802721 65.9319728 29.4802721 65.9319728 29.5510204 65.9673469 29.5510204 65.9673469 29.5863946 66.0027211 29.5863946 66.0027211 29.6217687 66.0380952 29.6217687 66.0380952 29.6571429 66.0734694 29.6571429 66.0734694 29.692517 66.1088435 29.692517 66.1088435 29.7278912 66.1442177 29.7278912 66.1442177 29.7632653 66.1795918 29.7632653 66.1795918 29.8340136 66.214966 29.8340136 66.214966 29.8693878 66.2503401 29.8693878 66.2503401 29.9047619 66.2857143 29.9047619 66.2857143 29.9401361 66.3210884 29.9401361 66.3210884 30.0108844 66.3564626 30.0108844 66.3564626 30.0462585 66.3918367 30.0462585 66.3918367 30.1170068 66.4272109 30.1170068 66.4272109 30.152381 66.462585 30.152381 66.462585 30.2231293 66.4979592 30.2231293 66.4979592 30.2585034 66.5333333 30.2585034 66.5333333 30.3292517 66.5687075 30.3292517 66.5687075 30.4 66.6040816 30.4 66.6040816 30.4353741 66.6394558 30.4353741 66.6394558 30.5061224 66.6748299 30.5061224 66.6748299 30.5768707 66.7102041 30.5768707 66.7102041 30.647619 66.7455782 30.647619 66.7455782 30.7183673 66.7809524 30.7183673 66.7809524 30.7891156 66.8163265 30.7891156 66.8163265 30.8598639 66.8517007 30.8598639 66.8517007 30.9306122 66.8870748 30.9306122 66.8870748 31.0367347 66.922449 31.0367347 66.922449 31.107483 66.9578231 31.107483 66.9578231 31.2136054 66.9931973 31.2136054 66.9931973 31.3197279 67.0285714 31.3197279 67.0285714 31.4258503 67.0639456 31.4258503 67.0639456 31.5319728 67.0993197 31.5319728 67.0993197 31.6734694 67.1346939 31.6734694 67.1346939 31.814966 67.170068 31.814966 67.170068 31.9918367 67.2054422 31.9918367 67.2054422 32.2040816 67.2408163 32.2040816 67.2408163 32.5578231 67.2761905 32.5578231 67.2761905 53.6408163 67.2408163 53.6408163 67.2408163 53.9945578 67.2054422 53.9945578 67.2054422 54.2068027 67.170068 54.2068027 67.170068 54.3836735 67.1346939 54.3836735 67.1346939 54.5251701 67.0993197 54.5251701 67.0993197 54.6666667 67.0639456 54.6666667 67.0639456 54.7727891 67.0285714 54.7727891 67.0285714 54.8789116 66.9931973 54.8789116 66.9931973 54.985034 66.9578231 54.985034 66.9578231 55.0911565 66.922449 55.0911565 66.922449 55.1619048 66.8870748 55.1619048 66.8870748 55.2680272 66.8517007 55.2680272 66.8517007 55.3387755 66.8163265 55.3387755 66.8163265 55.4095238 66.7809524 55.4095238 66.7809524 55.4802721 66.7455782 55.4802721 66.7455782 55.5510204 66.7102041 55.5510204 66.7102041 55.6217687 66.6748299 55.6217687 66.6748299 55.692517 66.6394558 55.692517 66.6394558 55.7632653 66.6040816 55.7632653 66.6040816 55.7986395 66.5687075 55.7986395 66.5687075 55.8693878 66.5333333 55.8693878 66.5333333 55.9401361 66.4979592 55.9401361 66.4979592 55.9755102 66.462585 55.9755102 66.462585 56.0462585 66.4272109 56.0462585 66.4272109 56.0816327 66.3918367 56.0816327 66.3918367 56.152381 66.3564626 56.152381 66.3564626 56.1877551 66.3210884 56.1877551 66.3210884 56.2231293 66.2857143 56.2231293 66.2857143 56.2938776 66.2503401 56.2938776 66.2503401 56.3292517 66.214966 56.3292517 66.214966 56.3646259 66.1795918 56.3646259 66.1795918 56.4353741 66.1442177 56.4353741 66.1442177 56.4707483 66.1088435 56.4707483 66.1088435 56.5061224 66.0734694 56.5061224 66.0734694 56.5414966 66.0380952 56.5414966 66.0380952 56.5768707 66.0027211 56.5768707 66.0027211 56.6122449 65.9673469 56.6122449 65.9673469 56.647619 65.9319728 56.647619 65.9319728 56.7183673 65.8965986 56.7183673 65.8965986 56.7537415 65.8612245 56.7537415 65.8612245 56.7891156 65.8258503 56.7891156 65.8258503 56.8244898 65.7904762 56.8244898 65.7904762 56.8598639 65.7197279 56.8598639 65.7197279 56.8952381 65.6843537 56.8952381 65.6843537 56.9306122 65.6489796 56.9306122 65.6489796 56.9659864 65.6136054 56.9659864 65.6136054 57.0013605 65.5782313 57.0013605 65.5782313 57.0367347 65.5428571 57.0367347 65.5428571 57.0721088 65.507483 57.0721088 65.507483 57.107483 65.4721088 57.107483 65.4721088 57.1428571 65.4013605 57.1428571 65.4013605 57.1782313 65.3659864 57.1782313 65.3659864 57.2136054 65.3306122 57.2136054 65.3306122 57.2489796 65.2598639 57.2489796 65.2598639 57.2843537 65.2244898 57.2843537 65.2244898 57.3197279 65.1891156 57.3197279 65.1891156 57.355102 65.1183673 57.355102 65.1183673 57.3904762 65.0829932 57.3904762 65.0829932 57.4258503 65.0122449 57.4258503 65.0122449 57.4612245 64.9768707 57.4612245 64.9768707 57.4965986 64.9061224 57.4965986 64.9061224 57.5319728 64.8353741 57.5319728 64.8353741 57.5673469 64.8 57.5673469 64.8 57.6027211 64.7292517 57.6027211 64.7292517 57.6380952 64.6585034 57.6380952 64.6585034 57.6734694 64.5877551 57.6734694 64.5877551 57.7088435 64.5170068 57.7088435 64.5170068 57.7442177 64.4462585 57.7442177 64.4462585 57.7795918 64.3755102 57.7795918 64.3755102 57.814966 64.3047619 57.814966 64.3047619 57.8503401 64.1986395 57.8503401 64.1986395 57.8857143 64.1278912 57.8857143 64.1278912 57.9210884 64.0217687 57.9210884 64.0217687 57.9564626 63.9156463 57.9564626 63.9156463 57.9918367 63.8095238 57.9918367 63.8095238 58.0272109 63.7034014 58.0272109 63.7034014 58.062585 63.5619048 58.062585 63.5619048 58.0979592 63.385034 58.0979592 63.385034 58.1333333 63.2081633 58.1333333 63.2081633 58.1687075 62.9605442 58.1687075 62.9605442 58.2040816 62.5360544 58.2040816 62.5360544 58.2394558 62.2176871 58.2394558 62.2176871 58.2040816 61.7931973 58.2040816 61.7931973 58.1687075 61.5455782 58.1687075 61.5455782 58.1333333 61.3687075 58.1333333 61.3687075 58.0979592 61.1918367 58.0979592 61.1918367 58.062585 61.0857143 58.062585 61.0857143 58.0272109 60.9442177 58.0272109 60.9442177 57.9918367 60.8380952 57.9918367 60.8380952 57.9564626 60.7319728 57.9564626 60.7319728 57.9210884 60.6612245 57.9210884 60.6612245 57.8857143 60.555102 57.8857143 60.555102 57.8503401 60.4489796 57.8503401 60.4489796 57.814966 60.3782313 57.814966 60.3782313 57.7795918 60.307483 57.7795918 60.307483 57.7442177 60.2367347 57.7442177 60.2367347 57.7088435 60.1659864 57.7088435 60.1659864 57.6734694 60.0952381 57.6734694 60.0952381 57.6380952 60.0244898 57.6380952 60.0244898 57.6027211 59.9891156 57.6027211 59.9891156 57.5673469 59.9183673 57.5673469 59.9183673 57.5319728 59.847619 57.5319728 59.847619 57.4965986 59.7768707 57.4965986 59.7768707 57.4612245 59.7414966 57.4612245 59.7414966 57.4258503 59.6707483 57.4258503 59.6707483 57.3904762 59.6353741 57.3904762 59.6353741 57.355102 59.5646259 57.355102 59.5646259 57.3197279 59.5292517 57.3197279 59.5292517 57.2843537 59.4938776 57.2843537 59.4938776 57.2489796 59.4231293 57.2489796 59.4231293 57.2136054 59.3877551 57.2136054 59.3877551 57.1782313 59.352381 57.1782313 59.352381 57.1428571 59.2816327 57.1428571 59.2816327 57.107483 59.2462585 57.107483 59.2462585 57.0721088 59.2108844 57.0721088 59.2108844 57.0367347 59.1755102 57.0367347 59.1755102 57.0013605 59.1401361 57.0013605 59.1401361 56.9659864 59.1047619 56.9659864 59.1047619 56.9306122 59.0693878 56.9306122 59.0693878 56.8952381 59.0340136 56.8952381 59.0340136 56.8598639 58.9986395 56.8598639 58.9986395 56.8244898 58.9278912 56.8244898 58.9278912 56.7891156 58.892517 56.7891156 58.892517 56.7537415 58.8571429 56.7537415 58.8571429 56.6829932 58.8217687 56.6829932 58.8217687 56.647619 58.7863946 56.647619 58.7863946 56.6122449 58.7510204 56.6122449 58.7510204 56.5768707 58.7156463 56.5768707 58.7156463 56.5414966 58.6802721 56.5414966 58.6802721 56.5061224 58.644898 56.5061224 58.644898 56.4707483 58.6095238 56.4707483 58.6095238 56.4353741 58.5741497 56.4353741 58.5741497 56.3646259 58.5387755 56.3646259 58.5387755 56.3292517 58.5034014 56.3292517 58.5034014 56.2938776 58.4680272 56.2938776 58.4680272 56.2231293 58.4326531 56.2231293 58.4326531 56.1877551 58.3972789 56.1877551 58.3972789 56.152381 58.3619048 56.152381 58.3619048 56.0816327 58.3265306 56.0816327 58.3265306 56.0462585 58.2911565 56.0462585 58.2911565 55.9755102 58.2557823 55.9755102 58.2557823 55.9401361 58.2204082 55.9401361 58.2204082 55.8693878 58.185034 55.8693878 58.185034 55.7986395 58.1496599 55.7986395 58.1496599 55.7632653 58.1142857 55.7632653 58.1142857 55.692517 58.0789116 55.692517 58.0789116 55.6217687 58.0435374 55.6217687 58.0435374 55.5510204 58.0081633 55.5510204 58.0081633 55.4802721 57.9727891 55.4802721 57.9727891 55.4095238 57.937415 55.4095238 57.937415 55.3387755 57.9020408 55.3387755 57.9020408 55.2680272 57.8666667 55.2680272 57.8666667 55.1619048 57.8312925 55.1619048 57.8312925 55.0911565 57.7959184 55.0911565 57.7959184 54.985034 57.7605442 54.985034 57.7605442 54.8789116 57.7251701 54.8789116 57.7251701 54.7727891 57.6897959 54.7727891 57.6897959 54.6666667 57.6544218 54.6666667 57.6544218 54.5251701 57.6190476 54.5251701 57.6190476 54.3836735 57.5836735 54.3836735 57.5836735 54.2068027 57.5482993 54.2068027 57.5482993 53.9591837 57.5129252 53.9591837 57.5129252 53.6054422 57.477551 53.6054422"></polygon>
                        <path d="M18.0919411,11.7612674 C18.9554537,10.9231522 19.8049598,10.418564 20.6591716,9.68638247 C20.5705837,9.65345344 20.8297364,9.60241826 20.9053444,9.54571231 C21.5017035,9.09844298 22.3720279,8.69057829 23.0857319,8.24451331 C23.1890194,8.17995858 22.9339427,7.97209438 22.9098942,7.92800545 C22.6682004,7.48490021 22.4839703,7.06287334 22.2417109,6.62680646 C21.536561,5.35753662 20.7282842,3.98704043 20.0261559,2.72320948 C19.7733074,2.26808229 19.2989013,1.62175194 19.7799831,1.14067016 C19.8468117,1.07384155 19.9325958,1.01336572 20.0261559,1 C20.1890355,0.976731475 20.36893,0.966613959 20.5185014,1.03516754 C20.6692074,1.10424113 20.7731134,1.25244743 20.8701768,1.38684294 C20.9288179,1.4680383 20.9270388,1.58063012 21.0460145,1.70335081 C21.0827981,1.76772208 21.079566,1.84998478 21.1866847,1.94952359 C21.3054544,2.16546852 21.3844228,2.40176193 21.5735276,2.6528744 C21.6221683,2.74042754 21.6303896,2.84666158 21.7493653,2.96938226 C21.798006,3.0569354 21.8062273,3.16316944 21.925203,3.28589012 C21.9738437,3.37344327 21.982065,3.4796773 22.1010407,3.60239799 C22.1496814,3.68995113 22.1579027,3.79618517 22.2768784,3.91890585 C22.3255191,4.00645899 22.3337404,4.11269303 22.4527161,4.23541371 C22.5013568,4.32296686 22.5095781,4.42920089 22.6285538,4.55192158 C22.6771945,4.63947472 22.6854158,4.74570876 22.8043915,4.86842944 C22.8648492,4.97926844 22.8846041,5.10926584 23.0153968,5.25527238 C23.0640374,5.34282553 23.0722588,5.44905956 23.1912345,5.57178025 C23.2398751,5.65933339 23.2480965,5.76556743 23.3670722,5.88828811 C23.4157128,5.97584125 23.4239342,6.08207529 23.5429099,6.20479597 C23.5915505,6.29234912 23.5997719,6.39858315 23.7187476,6.52130384 C23.7673882,6.60885698 23.7756096,6.71509102 23.8945853,6.8378117 C24.036463,7.08882605 24.1000079,7.38739014 24.2814282,7.61149759 C24.3262934,7.66691924 24.4262282,7.60281216 24.4924335,7.57633005 C24.5468539,7.55456189 24.578823,7.49294177 24.6331036,7.47082743 C24.8974677,7.36312356 25.1769124,7.29550498 25.4419571,7.1894871 C25.4727419,7.17717317 25.4811321,7.13048295 25.5122922,7.11915202 C25.6138615,7.08221772 25.7272307,7.08575125 25.8288,7.04881694 C25.8599601,7.03748601 25.8681341,6.99024087 25.8991351,6.97848186 C26.211077,6.86015907 26.5268642,6.75004407 26.8486587,6.661974 C27.6411773,6.44507417 28.4392475,6.24809428 29.2400514,6.06412581 C29.3086009,6.04837796 29.3817443,6.07607623 29.4510567,6.06412581 C29.7229601,6.01724591 29.9870177,5.92901831 30.2599101,5.88828811 C30.7733331,5.81165781 31.2891143,5.74371914 31.8072819,5.71245041 C32.6500953,5.66159098 33.4951948,5.62389626 34.3393448,5.64211533 C35.1267538,5.65910977 35.9135,5.72484946 36.69557,5.81795303 C37.3921436,5.90087846 38.0833733,6.02817046 38.7704549,6.16962843 C39.8200644,6.38572451 40.980741,6.73594169 41.970701,7.11915202 C42.2348858,7.22141708 42.4813612,7.36561715 42.7443869,7.47082743 C42.7952633,7.49117796 43.1599326,7.66292575 43.201565,7.61149759 C43.5631326,7.1648552 43.8351235,6.3937236 44.115921,5.88828811 C44.7199617,4.80101478 45.3862394,3.70590256 45.9798006,2.61770686 C46.1728857,2.26371753 46.5959743,1.17937002 46.9644918,1.03516754 C47.1177122,0.975211707 47.2939577,0.976731475 47.4568373,1 C47.5503974,1.01336572 47.6361815,1.07384155 47.7030101,1.14067016 C47.7926701,1.23033015 47.8870796,1.33327365 47.9140154,1.45717802 C47.9489671,1.61795609 47.9165324,1.78936403 47.8788478,1.94952359 C47.8674567,1.99793592 47.7969243,2.0112365 47.7733452,2.05502621 C47.7134876,2.16619038 47.6931327,2.29586262 47.56234,2.44186915 C47.5136993,2.5294223 47.505478,2.63565633 47.3865023,2.75837702 C47.3378616,2.84593016 47.3296403,2.9521642 47.2106646,3.07488488 C47.1620239,3.16243803 47.1538026,3.26867206 47.0348269,3.39139274 C46.9861862,3.47894589 46.9779649,3.58517992 46.8589892,3.70790061 C46.8103485,3.79545375 46.8021272,3.90168779 46.6831515,4.02440847 C46.6345108,4.11196162 46.6262895,4.21819565 46.5073137,4.34091633 C46.5073137,4.34091633 46.3442059,4.63451049 46.331476,4.6574242 C45.8526617,5.51929004 45.4362142,6.36736462 44.959942,7.22465464 C44.8541967,7.41499616 44.3393554,8.0823767 44.3972613,8.24451331 C44.480152,8.47660724 44.8494997,8.44225147 45.0654446,8.56102118 C49.6482475,11.0815628 53.3947218,15.4089207 54.8586582,20.5326983 C55.1818322,21.6638074 55.6077621,22.715283 55.7077259,23.9291293 C55.7510643,24.4553816 56.4018263,27.0048309 55.874142,27.0240427 C41.3712792,27.5520596 26.6095868,27.3876203 12.1016701,27.0240427 C11.7381973,27.0149339 11.9827682,24.960133 12.0079567,24.5974196 C12.1046594,23.2049003 12.2400494,22.3426251 12.6058048,20.9048278 C13.5032455,17.3769577 15.5237289,14.2539439 18.0919411,11.7612674 Z M24,18 C25.1045695,18 26,17.1045695 26,16 C26,14.8954305 25.1045695,14 24,14 C22.8954305,14 22,14.8954305 22,16 C22,17.1045695 22.8954305,18 24,18 Z M44,18 C45.1045695,18 46,17.1045695 46,16 C46,14.8954305 45.1045695,14 44,14 C42.8954305,14 42,14.8954305 42,16 C42,17.1045695 42.8954305,18 44,18 Z" id="Combined-Shape"></path>
                    </g>
                </g>
            </g>
        </g>
    </g>
</svg>