<?xml version="1.0" encoding="UTF-8"?>
<svg width="178px" height="145px" viewBox="0 0 178 145" version="1.1" xmlns="http://www.w3.org/2000/svg" xmlns:xlink="http://www.w3.org/1999/xlink">
    <!-- Generator: Sketch 42 (36781) - http://www.bohemiancoding.com/sketch -->
    <title>Logo_Blender</title>
    <desc>Created with Sketch.</desc>
    <defs></defs>
    <g id="Page-1" stroke="none" stroke-width="1" fill="none" fill-rule="evenodd">
        <g id="Skills" transform="translate(-107.000000, -854.000000)" fill-rule="nonzero" fill="#757575">
            <g id="Logo_Blender" transform="translate(107.000000, 854.000000)">
                <g id="generated-by-pstoedit">
                    <g id="Group">
                        <g transform="translate(92.000000, 60.000000)" id="Shape">
                            <path d="M0.871,21.254 C1.199,15.359 4.09,10.16 8.445,6.473 L8.445,6.473 C12.723,2.852 18.477,0.645 24.754,0.641 L24.754,0.641 C31.031,0.645 36.785,2.852 41.063,6.473 L41.063,6.473 C45.418,10.16 48.309,15.359 48.641,21.254 C48.973,27.316 46.539,32.953 42.262,37.125 L42.262,37.125 C37.906,41.371 31.699,44.039 24.758,44.039 L24.758,44.039 C17.813,44.039 11.602,41.371 7.242,37.125 L7.242,37.125 C2.969,32.953 0.535,27.316 0.871,21.254 Z"></path>
                        </g>
                        <g id="Shape">
                            <path d="M54.8281,93.191 C54.8672,95.492 55.6094,99.977 56.7109,103.488 L56.7109,103.488 C59.0313,110.902 62.9688,117.766 68.4531,123.816 L68.4531,123.816 C74.0781,130.027 80.996,135.023 88.996,138.562 L88.996,138.562 C97.406,142.289 106.52,144.191 115.969,144.172 L115.969,144.172 C125.422,144.156 134.531,142.223 142.941,138.473 L142.941,138.473 C150.934,134.895 157.852,129.887 163.473,123.66 L163.473,123.66 C168.949,117.586 172.879,110.711 175.203,103.293 L175.203,103.293 C176.379,99.543 177.109,95.742 177.41,91.926 L177.41,91.926 C177.703,88.168 177.578,84.398 177.047,80.637 L177.047,80.637 C176.004,73.305 173.465,66.422 169.563,60.148 C165.98,54.387 161.379,49.34 155.902,45.09 L155.902,45.09 L155.91,45.082 L155.91,45.082 L100.648,2.645 L100.648,2.645 C100.602,2.605 100.555,2.566 100.508,2.527 L100.508,2.527 C96.871,-0.25 90.777,-0.242 86.793,2.547 L86.793,2.547 C82.754,5.371 82.301,10.031 85.883,12.98 L85.883,12.98 L85.871,12.988 L85.871,12.988 L108.922,31.738 L38.6563,31.812 L38.6563,31.812 L38.5586,31.812 L38.5586,31.812 C32.7539,31.816 27.1758,35.633 26.0664,40.445 L26.0664,40.445 C24.9375,45.352 28.8828,49.418 34.918,49.441 L34.918,49.441 L34.9102,49.465 L34.9102,49.465 L70.5234,49.395 L6.9688,98.172 L6.9688,98.172 C6.8906,98.234 6.8047,98.293 6.7266,98.355 L6.7266,98.355 C0.7383,102.945 -1.2031,110.582 2.5703,115.414 L2.5703,115.414 C6.4063,120.328 14.5508,120.332 20.6094,115.434 L20.6094,115.434 L55.293,87.055 C55.293,87.055 54.7891,90.887 54.8281,93.191 Z M143.949,106.016 C136.805,113.305 126.805,117.43 115.973,117.449 L115.973,117.449 C105.137,117.469 95.133,113.375 87.984,106.105 L87.984,106.105 C84.492,102.559 81.926,98.492 80.34,94.145 L80.34,94.145 C78.793,89.879 78.1875,85.355 78.5859,80.789 L78.5859,80.789 C78.9727,76.32 80.289,72.062 82.418,68.207 L82.418,68.207 C84.508,64.418 87.379,60.996 90.922,58.098 L90.922,58.098 C97.867,52.434 106.707,49.371 115.965,49.359 L115.965,49.359 C125.223,49.348 134.059,52.387 141.008,58.027 L141.008,58.027 C144.547,60.91 147.418,64.32 149.504,68.102 L149.504,68.102 C151.633,71.953 152.953,76.203 153.344,80.672 L153.344,80.672 C153.738,85.238 153.137,89.762 151.586,94.031 L151.586,94.031 C150.004,98.383 147.441,102.457 143.949,106.016 Z"></path>
                        </g>
                    </g>
                </g>
            </g>
        </g>
    </g>
</svg>