<?xml version="1.0" encoding="UTF-8"?>
<svg width="528px" height="382px" viewBox="0 0 528 382" version="1.1" xmlns="http://www.w3.org/2000/svg" xmlns:xlink="http://www.w3.org/1999/xlink">
    <!-- Generator: Sketch 42 (36781) - http://www.bohemiancoding.com/sketch -->
    <title>facetime-button</title>
    <desc>Created with Sketch.</desc>
    <defs></defs>
    <g id="Page-1" stroke="none" stroke-width="1" fill="none" fill-rule="evenodd">
        <g id="Artboard-2" transform="translate(-32.000000, -50.000000)" stroke-width="16" stroke="#212121" fill-rule="nonzero">
            <g id="facetime-button" transform="translate(40.000000, 58.000000)">
                <g id="Capa_1">
                    <path d="M500.491,10.65 C498.017,9.7 495.638,9.223 493.352,9.223 C488.212,9.223 483.934,11.035 480.505,14.649 L365.445,129.425 L365.445,82.317 C365.445,59.664 357.403,40.3 341.319,24.215 C325.234,8.132 305.872,0.09 283.217,0.09 L82.224,0.09 C59.576,0.09 40.208,8.132 24.122,24.215 C8.042,40.3 0,59.664 0,82.317 L0,283.313 C0,305.964 8.042,325.327 24.123,341.411 C40.209,357.495 59.577,365.537 82.225,365.537 L283.219,365.537 C305.873,365.537 325.236,357.495 341.321,341.411 C357.405,325.327 365.447,305.965 365.447,283.313 L365.447,235.916 L480.507,350.977 C483.936,354.59 488.214,356.401 493.354,356.401 C495.64,356.401 498.019,355.925 500.493,354.977 C507.92,351.74 511.629,346.127 511.629,338.133 L511.629,27.499 C511.626,19.501 507.917,13.887 500.491,10.65 Z" id="Shape"></path>
                </g>
            </g>
        </g>
    </g>
</svg>