<?xml version="1.0" encoding="UTF-8"?>
<svg width="80px" height="80px" viewBox="0 0 80 80" version="1.1" xmlns="http://www.w3.org/2000/svg" xmlns:xlink="http://www.w3.org/1999/xlink">
    <!-- Generator: Sketch 42 (36781) - http://www.bohemiancoding.com/sketch -->
    <title>ionic</title>
    <desc>Created with Sketch.</desc>
    <defs></defs>
    <g id="Page-1" stroke="none" stroke-width="1" fill="none" fill-rule="evenodd" fill-opacity="0.57">
        <g id="Skills" transform="translate(-580.000000, -427.000000)" fill-rule="nonzero" fill="#000000">
            <g id="Group-6" transform="translate(382.000000, 427.000000)">
                <g id="ionic" transform="translate(198.000000, 0.000000)">
                    <g id="Artboard">
                        <g>
                            <g id="Page-1">
                                <g id="Artboard">
                                    <g id="ionic">
                                        <g id="Group">
                                            <path d="M72.5961538,16.8076923 C73.5,15.6730769 74.0384615,14.2115385 74.0384615,12.6538462 C74.0384615,8.96153846 71.0384615,5.96153846 67.3461538,5.96153846 C65.7692308,5.96153846 64.3269231,6.5 63.1923077,7.40384615 C56.6538462,2.75 48.6346154,0 40,0 C17.9038462,0 0,17.9038462 0,40 C0,62.0961538 17.9038462,80 40,80 C62.0961538,80 80,62.0961538 80,40 C80,31.3653846 77.25,23.3461538 72.5961538,16.8076923 Z M66.1153846,66.1153846 C62.7307692,69.5 58.7692308,72.1730769 54.3653846,74.0384615 C49.8076923,75.9615385 44.9807692,76.9423077 39.9807692,76.9423077 C35,76.9423077 30.1538462,75.9615385 25.5961538,74.0384615 C21.1923077,72.1730769 17.25,69.5192308 13.8461538,66.1153846 C10.4615385,62.7307692 7.78846154,58.7692308 5.92307692,54.3653846 C4,49.8076923 3.01923077,44.9807692 3.01923077,39.9807692 C3.01923077,35 4,30.1538462 5.92307692,25.5961538 C7.78846154,21.1923077 10.4423077,17.25 13.8461538,13.8461538 C17.25,10.4423077 21.1923077,7.78846154 25.5961538,5.92307692 C30.1538462,4 34.9807692,3.01923077 39.9807692,3.01923077 C44.9615385,3.01923077 49.8076923,4 54.3653846,5.92307692 C56.8076923,6.96153846 59.1153846,8.25 61.2692308,9.76923077 C60.8653846,10.6346154 60.6346154,11.5961538 60.6346154,12.6346154 C60.6346154,16.3269231 63.6346154,19.3269231 67.3269231,19.3269231 C68.3461538,19.3269231 69.3076923,19.0961538 70.1923077,18.6923077 C71.7115385,20.8461538 73,23.1538462 74.0384615,25.5961538 C75.9615385,30.1538462 76.9423077,34.9807692 76.9423077,39.9807692 C76.9423077,44.9615385 75.9615385,49.8076923 74.0384615,54.3653846 C72.1730769,58.7692308 69.5192308,62.7307692 66.1153846,66.1153846 Z" id="Shape"></path>
                                            <circle id="Oval" cx="40" cy="40" r="18.4807692"></circle>
                                        </g>
                                    </g>
                                </g>
                            </g>
                        </g>
                    </g>
                </g>
            </g>
        </g>
    </g>
</svg>