<?xml version="1.0" encoding="UTF-8"?>
<svg width="80px" height="80px" viewBox="0 0 80 80" version="1.1" xmlns="http://www.w3.org/2000/svg" xmlns:xlink="http://www.w3.org/1999/xlink">
    <!-- Generator: Sketch 42 (36781) - http://www.bohemiancoding.com/sketch -->
    <title>Group 6</title>
    <desc>Created with Sketch.</desc>
    <defs></defs>
    <g id="Page-1" stroke="none" stroke-width="1" fill="none" fill-rule="evenodd">
        <g id="Skills" transform="translate(-498.000000, -995.000000)" fill="#757575">
            <g id="ror" transform="translate(498.000000, 995.000000)">
                <g id="Group-6">
                    <polygon id="Shape" points="24.6875 24.6875 24.6875 24.75 24.625 24.75 24.625 24.875 24.5625 24.875 24.5625 25 24.5 25 24.5 25.0625 24.4375 25.0625 24.4375 25.1875 24.375 25.1875 24.375 25.25 24.3125 25.25 24.3125 25.375 24.25 25.375 24.25 25.5 24.1875 25.5 24.1875 25.5625 24.125 25.5625 24.125 25.6875 24.0625 25.6875 24.0625 25.8125 24 25.8125 24 25.875 23.9375 25.875 23.9375 26 23.875 26 23.875 26.125 23.8125 26.125 23.8125 26.1875 23.75 26.1875 23.75 26.3125 23.6875 26.3125 23.6875 26.4375 23.625 26.4375 23.625 26.5625 23.5625 26.5625 23.5625 26.625 23.5 26.625 23.5 26.75 23.4375 26.75 23.4375 26.875 23.375 26.875 23.375 27 23.3125 27 23.3125 27.0625 23.25 27.0625 23.25 27.1875 23.1875 27.1875 23.1875 27.3125 23.125 27.3125 23.125 27.4375 23.0625 27.4375 23.0625 27.5 23 27.5 23 27.625 22.9375 27.625 22.9375 27.75 22.875 27.75 22.875 27.875 22.8125 27.875 22.8125 28 22.75 28 22.75 28.125 22.6875 28.125 22.6875 28.25 22.625 28.25 22.625 28.3125 22.5625 28.3125 22.5625 28.4375 22.5 28.4375 22.5 28.5625 22.4375 28.5625 22.4375 28.6875 22.375 28.6875 22.375 28.8125 22.3125 28.8125 22.3125 28.9375 22.25 28.9375 22.25 29.0625 22.1875 29.0625 22.1875 29.125 22.125 29.125 22.125 29.25 22.0625 29.25 22.0625 29.375 22 29.375 22 29.5 21.9375 29.5 21.9375 29.625 21.875 29.625 21.875 29.75 21.8125 29.75 21.8125 29.875 21.75 29.875 21.75 30 21.6875 30 21.6875 30.125 21.625 30.125 21.625 30.1875 21.5625 30.1875 21.5625 30.3125 21.5 30.3125 21.5 30.4375 21.4375 30.4375 21.4375 30.5625 21.375 30.5625 21.375 30.6875 21.3125 30.6875 21.3125 30.8125 21.25 30.8125 21.25 30.9375 21.1875 30.9375 21.1875 31.0625 21.125 31.0625 21.125 31.1875 21.0625 31.1875 21.0625 31.25 21 31.25 21 31.375 20.9375 31.375 20.9375 31.5 20.875 31.5 20.875 31.625 20.8125 31.625 20.8125 31.75 20.75 31.75 20.75 31.875 20.6875 31.875 20.6875 32 20.625 32 20.625 32.125 20.5625 32.125 20.5625 32.25 20.5 32.25 20.5 32.375 20.4375 32.375 20.4375 32.5 20.375 32.5 20.375 32.625 20.3125 32.625 20.3125 32.75 20.25 32.75 20.25 32.8125 20.1875 32.8125 20.1875 32.9375 20.125 32.9375 20.125 33.0625 20.0625 33.0625 20.0625 33.1875 20 33.1875 20 33.3125 19.9375 33.3125 19.9375 33.4375 19.875 33.4375 19.875 33.5625 19.8125 33.5625 19.8125 33.6875 19.75 33.6875 19.75 33.8125 19.6875 33.8125 19.6875 33.9375 19.625 33.9375 19.625 34.0625 19.5625 34.0625 19.5625 34.1875 19.5 34.1875 19.5 34.3125 19.4375 34.3125 19.4375 34.4375 19.375 34.4375 19.375 34.5625 19.3125 34.5625 19.3125 34.6875 19.25 34.6875 19.25 34.8125 19.1875 34.8125 19.1875 34.9375 19.125 34.9375 19.125 35.0625 19.0625 35.0625 19.0625 35.1875 19 35.1875 19 35.3125 18.9375 35.3125 18.9375 35.4375 18.875 35.4375 18.875 35.5625 18.8125 35.5625 18.8125 35.6875 18.75 35.6875 18.75 35.8125 18.6875 35.8125 18.6875 35.9375 18.625 35.9375 18.625 36.0625 18.5625 36.0625 18.5625 36.1875 18.5 36.1875 18.5 36.3125 18.4375 36.3125 18.4375 36.4375 18.375 36.4375 18.375 36.5625 18.3125 36.5625 18.3125 36.75 18.25 36.75 18.25 36.875 18.1875 36.875 18.1875 37 18.125 37 18.125 37.125 18.0625 37.125 18.0625 37.25 18 37.25 18 37.375 17.9375 37.375 17.9375 37.5 17.875 37.5 17.875 37.625 17.8125 37.625 17.8125 37.75 17.75 37.75 17.75 37.875 17.6875 37.875 17.6875 38 17.625 38 17.625 38.1875 17.5625 38.1875 17.5625 38.3125 17.5 38.3125 17.5 38.4375 17.4375 38.4375 17.4375 38.5625 17.375 38.5625 17.375 38.6875 17.3125 38.6875 17.3125 38.8125 17.25 38.8125 17.25 39 17.1875 39 17.1875 39.125 17.125 39.125 17.125 39.25 17.0625 39.25 17.0625 39.375 17 39.375 17 39.5 16.9375 39.5 16.9375 39.625 16.875 39.625 16.875 39.8125 16.8125 39.8125 16.8125 39.9375 16.75 39.9375 16.75 40.0625 16.6875 40.0625 16.6875 40.1875 16.625 40.1875 16.625 40.375 16.5625 40.375 16.5625 40.5 16.5 40.5 16.5 40.625 16.4375 40.625 16.4375 40.75 16.375 40.75 16.375 40.9375 16.3125 40.9375 16.3125 41.0625 16.25 41.0625 16.25 41.1875 16.1875 41.1875 16.1875 41.375 16.125 41.375 16.125 41.5 16.0625 41.5 16.0625 41.625 16 41.625 16 41.75 15.9375 41.75 15.9375 41.9375 15.875 41.9375 15.875 42.0625 15.8125 42.0625 15.8125 42.25 15.75 42.25 15.75 42.375 15.6875 42.375 15.6875 42.5 15.625 42.5 15.625 42.6875 15.5625 42.6875 15.5625 42.8125 15.5 42.8125 15.5 42.9375 15.4375 42.9375 15.4375 43.125 15.375 43.125 15.375 43.25 15.3125 43.25 15.3125 43.4375 15.25 43.4375 15.25 43.5625 15.1875 43.5625 15.1875 43.75 15.125 43.75 15.125 43.875 15.0625 43.875 15.0625 44.0625 15 44.0625 15 44.1875 14.9375 44.1875 14.9375 44.375 14.875 44.375 14.875 44.5 14.8125 44.5 14.8125 44.6875 14.75 44.6875 14.75 44.8125 14.6875 44.8125 14.6875 45 14.625 45 14.625 45.1875 14.5625 45.1875 14.5625 45.3125 14.5 45.3125 14.5 45.5 14.4375 45.5 14.4375 45.625 14.375 45.625 14.375 45.8125 14.3125 45.8125 14.3125 46 14.25 46 14.25 46.125 14.1875 46.125 14.1875 46.3125 14.125 46.3125 14.125 46.5 14.0625 46.5 14.0625 46.625 14 46.625 14 46.8125 13.9375 46.8125 13.9375 47 13.875 47 13.875 47.1875 13.8125 47.1875 13.8125 47.375 13.75 47.375 13.75 47.5625 13.6875 47.5625 13.6875 47.6875 13.625 47.6875 13.625 47.875 13.5625 47.875 13.5625 48.0625 13.5 48.0625 13.5 48.25 13.4375 48.25 13.4375 48.4375 13.375 48.4375 13.375 48.625 13.3125 48.625 13.3125 48.8125 13.25 48.8125 13.25 49 13.1875 49 13.1875 49.1875 13.125 49.1875 13.125 49.375 13.0625 49.375 13.0625 49.5625 13 49.5625 13 49.75 12.9375 49.75 12.9375 49.9375 12.875 49.9375 12.875 50.125 12.8125 50.125 12.8125 50.3125 12.75 50.3125 12.75 50.5625 12.6875 50.5625 12.6875 50.75 12.625 50.75 12.625 50.9375 12.5625 50.9375 12.5625 51.125 12.5 51.125 12.5 51.375 12.4375 51.375 12.4375 51.5625 12.375 51.5625 12.375 51.75 12.3125 51.75 12.3125 51.9375 12.25 51.9375 12.25 52.1875 12.1875 52.1875 12.1875 52.4375 12.125 52.4375 12.125 52.625 12.0625 52.625 12.0625 52.875 12 52.875 12 53.0625 11.9375 53.0625 11.9375 53.3125 11.875 53.3125 11.875 53.5 11.8125 53.5 11.8125 53.75 11.75 53.75 11.75 53.9375 11.6875 53.9375 11.6875 54.1875 11.625 54.1875 11.625 54.4375 11.5625 54.4375 11.5625 54.6875 11.5 54.6875 11.5 54.9375 11.4375 54.9375 11.4375 55.1875 11.375 55.1875 11.375 55.375 11.3125 55.375 11.3125 55.625 11.25 55.625 11.25 55.875 11.1875 55.875 11.1875 56.125 11.125 56.125 11.125 56.375 11.0625 56.375 11.0625 56.6875 11 56.6875 11 56.9375 10.9375 56.9375 10.9375 57.1875 10.875 57.1875 10.875 57.5 10.8125 57.5 10.8125 57.75 10.75 57.75 10.75 58 10.6875 58 10.6875 58.3125 10.625 58.3125 10.625 58.5625 10.5625 58.5625 10.5625 58.875 10.5 58.875 10.5 59.1875 10.4375 59.1875 10.4375 59.4375 10.375 59.4375 10.375 59.75 10.3125 59.75 10.3125 60.0625 10.25 60.0625 10.25 60.375 10.1875 60.375 10.1875 60.6875 10.125 60.6875 10.125 60.9375 10.0625 60.9375 10.0625 61.3125 10 61.3125 10 61.625 9.9375 61.625 9.9375 61.9375 9.875 61.9375 9.875 62.3125 9.8125 62.3125 9.8125 62.625 9.75 62.625 9.75 63 9.6875 63 9.6875 63.3125 9.625 63.3125 9.625 63.6875 9.5625 63.6875 9.5625 64.0625 9.5 64.0625 9.5 64.4375 9.4375 64.4375 9.4375 64.875 9.375 64.875 9.375 65.25 9.3125 65.25 9.3125 65.75 9.25 65.75 9.25 66.125 9.1875 66.125 9.1875 66.625 9.125 66.625 9.125 67.0625 9.0625 67.0625 9.0625 67.5625 9 67.5625 9 68.0625 8.9375 68.0625 8.9375 68.625 8.875 68.625 8.875 69.25 8.8125 69.25 8.8125 69.875 8.75 69.875 8.75 70.625 8.6875 70.625 8.6875 71.4375 8.625 71.4375 8.625 72.5 8.5625 72.5 8.5625 74 8.5 74 8.5 76.6875 8.5625 76.6875 8.5625 77.9375 8.625 77.9375 8.625 78.6875 8.6875 78.6875 8.6875 79.25 47.6875 79.25 47.6875 79.1875 47.625 79.1875 47.625 79.0625 47.5625 79.0625 47.5625 78.9375 47.5 78.9375 47.5 78.8125 47.4375 78.8125 47.4375 78.625 47.375 78.625 47.375 78.5 47.3125 78.5 47.3125 78.3125 47.25 78.3125 47.25 78.1875 47.1875 78.1875 47.1875 78 47.125 78 47.125 77.875 47.0625 77.875 47.0625 77.6875 47 77.6875 47 77.5625 46.9375 77.5625 46.9375 77.375 46.875 77.375 46.875 77.1875 46.8125 77.1875 46.8125 77.0625 46.75 77.0625 46.75 76.875 46.6875 76.875 46.6875 76.6875 46.625 76.6875 46.625 76.5625 46.5625 76.5625 46.5625 76.375 46.5 76.375 46.5 76.1875 46.4375 76.1875 46.4375 76.0625 46.375 76.0625 46.375 75.875 46.3125 75.875 46.3125 75.6875 46.25 75.6875 46.25 75.5625 46.1875 75.5625 46.1875 75.375 46.125 75.375 46.125 75.1875 46.0625 75.1875 46.0625 75 46 75 46 74.8125 45.9375 74.8125 45.9375 74.625 45.875 74.625 45.875 74.4375 45.8125 74.4375 45.8125 74.3125 45.75 74.3125 45.75 74.125 45.6875 74.125 45.6875 73.9375 45.625 73.9375 45.625 73.75 45.5625 73.75 45.5625 73.5625 45.5 73.5625 45.5 73.375 45.4375 73.375 45.4375 73.1875 45.375 73.1875 45.375 73 45.3125 73 45.3125 72.8125 45.25 72.8125 45.25 72.625 45.1875 72.625 45.1875 72.4375 45.125 72.4375 45.125 72.25 45.0625 72.25 45.0625 72.0625 45 72.0625 45 71.8125 44.9375 71.8125 44.9375 71.625 44.875 71.625 44.875 71.4375 44.8125 71.4375 44.8125 71.1875 44.75 71.1875 44.75 71 44.6875 71 44.6875 70.8125 44.625 70.8125 44.625 70.625 44.5625 70.625 44.5625 70.4375 44.5 70.4375 44.5 70.1875 44.4375 70.1875 44.4375 70 44.375 70 44.375 69.75 44.3125 69.75 44.3125 69.5625 44.25 69.5625 44.25 69.3125 44.1875 69.3125 44.1875 69.125 44.125 69.125 44.125 68.875 44.0625 68.875 44.0625 68.6875 44 68.6875 44 68.4375 43.9375 68.4375 43.9375 68.25 43.875 68.25 43.875 68 43.8125 68 43.8125 67.75 43.75 67.75 43.75 67.5625 43.6875 67.5625 43.6875 67.3125 43.625 67.3125 43.625 67.0625 43.5625 67.0625 43.5625 66.8125 43.5 66.8125 43.5 66.5625 43.4375 66.5625 43.4375 66.3125 43.375 66.3125 43.375 66.125 43.3125 66.125 43.3125 65.875 43.25 65.875 43.25 65.5625 43.1875 65.5625 43.1875 65.3125 43.125 65.3125 43.125 65.0625 43.0625 65.0625 43.0625 64.8125 43 64.8125 43 64.5625 42.9375 64.5625 42.9375 64.25 42.875 64.25 42.875 64 42.8125 64 42.8125 63.75 42.75 63.75 42.75 63.4375 42.6875 63.4375 42.6875 63.1875 42.625 63.1875 42.625 62.875 42.5625 62.875 42.5625 62.5625 42.5 62.5625 42.5 62.25 42.4375 62.25 42.4375 61.9375 42.375 61.9375 42.375 61.625 42.3125 61.625 42.3125 61.3125 42.25 61.3125 42.25 61 42.1875 61 42.1875 60.6875 42.125 60.6875 42.125 60.375 42.0625 60.375 42.0625 60 42 60 42 59.6875 41.9375 59.6875 41.9375 59.3125 41.875 59.3125 41.875 58.875 41.8125 58.875 41.8125 58.5 41.75 58.5 41.75 58.125 41.6875 58.125 41.6875 57.75 41.625 57.75 41.625 57.3125 41.5625 57.3125 41.5625 56.875 41.5 56.875 41.5 56.4375 41.4375 56.4375 41.4375 55.9375 41.375 55.9375 41.375 55.4375 41.3125 55.4375 41.3125 54.875 41.25 54.875 41.25 54.3125 41.1875 54.3125 41.1875 53.6875 41.125 53.6875 41.125 52.9375 41.0625 52.9375 41.0625 52.125 41 52.125 41 51.1875 40.9375 51.1875 40.9375 49.875 40.875 49.875 40.875 45.5 40.9375 45.5 40.9375 44.3125 41 44.3125 41 43.4375 41.0625 43.4375 41.0625 42.75 41.125 42.75 41.125 42.125 41.1875 42.125 41.1875 41.5625 41.25 41.5625 41.25 41.125 41.3125 41.125 41.3125 40.625 41.375 40.625 41.375 40.1875 41.4375 40.1875 41.4375 39.8125 41.5 39.8125 41.5 39.5 41.5625 39.5 41.5625 39.125 41.625 39.125 41.625 38.8125 41.6875 38.8125 41.6875 38.5 41.75 38.5 41.75 38.25 41.8125 38.25 41.8125 37.9375 41.875 37.9375 41.875 37.625 41.9375 37.625 41.9375 37.375 42 37.375 42 37.125 42.0625 37.125 42.0625 36.875 42.125 36.875 42.125 36.6875 42.1875 36.6875 42.1875 36.4375 42.25 36.4375 42.25 36.1875 42.3125 36.1875 42.3125 36 42.375 36 42.375 35.8125 42.4375 35.8125 42.4375 35.5625 42.5 35.5625 42.5 35.375 42.5625 35.375 42.5625 35.1875 42.625 35.1875 42.625 34.9375 42.6875 34.9375 42.6875 34.75 42.75 34.75 42.75 34.5625 42.8125 34.5625 42.8125 34.4375 42.875 34.4375 42.875 34.25 42.9375 34.25 42.9375 34.0625 43 34.0625 43 33.875 43.0625 33.875 43.0625 33.6875 43.125 33.6875 43.125 33.5625 43.1875 33.5625 43.1875 33.375 43.25 33.375 43.25 33.1875 43.3125 33.1875 43.3125 33.0625 43.375 33.0625 43.375 32.875 43.4375 32.875 43.4375 32.75 43.5 32.75 43.5 32.5625 43.5625 32.5625 43.5625 32.4375 43.625 32.4375 43.625 32.3125 43.6875 32.3125 43.6875 32.125 43.75 32.125 43.75 32 43.8125 32 43.8125 31.875 43.875 31.875 43.875 31.6875 43.9375 31.6875 43.9375 31.5625 44 31.5625 44 31.4375 44.0625 31.4375 44.0625 31.3125 44.125 31.3125 44.125 31.1875 44.1875 31.1875 44.1875 31.0625 44.25 31.0625 44.25 30.9375 44.3125 30.9375 44.3125 30.8125 44.375 30.8125 44.375 30.625 44.4375 30.625 44.4375 30.5 44.5 30.5 44.5 30.4375 44.5625 30.4375 44.5625 30.3125 44.625 30.3125 44.625 30.1875 44.6875 30.1875 44.6875 30.0625 44.75 30.0625 44.75 29.9375 44.8125 29.9375 44.8125 29.8125 44.875 29.8125 44.875 29.6875 44.9375 29.6875 44.9375 29.5625 45 29.5625 45 29.4375 45.0625 29.4375 45.0625 29.375 45.125 29.375 45.125 29.25 45.1875 29.25 45.1875 29.125 45.25 29.125 45.25 29 45.3125 29 45.3125 28.875 45.375 28.875 45.375 28.8125 45.4375 28.8125 45.4375 28.6875 45.5 28.6875 45.5 28.5625 45.5625 28.5625 45.5625 28.5 45.625 28.5 45.625 28.375 45.6875 28.375 45.6875 28.25 45.75 28.25 45.75 28.1875 45.8125 28.1875 45.8125 28.0625 45.875 28.0625 45.875 27.9375 45.9375 27.9375 45.9375 27.875 46 27.875 46 27.75 46.0625 27.75 46.0625 27.6875 46.125 27.6875 46.125 27.5625 46.1875 27.5625 46.1875 27.5 46.25 27.5 46.25 27.375 46.3125 27.375 46.3125 27.25 46.375 27.25 46.375 27.1875 46.4375 27.1875 46.4375 27.125 46.5 27.125 46.5 27 46.5625 27 46.5625 26.9375 46.625 26.9375 46.625 26.8125 46.6875 26.8125 46.6875 26.75 46.75 26.75 46.75 26.625 46.8125 26.625 46.8125 26.5625 46.875 26.5625 46.875 26.4375 46.9375 26.4375 46.9375 26.375 47 26.375 47 26.3125 47.0625 26.3125 47.0625 26.1875 47.125 26.1875 47.125 26.125 47.1875 26.125 47.1875 26 47.25 26 47.25 25.9375 47.3125 25.9375 47.3125 25.875 47.375 25.875 47.375 25.75 47.4375 25.75 47.4375 25.6875 47.5 25.6875 47.5 25.625 47.5625 25.625 47.5625 25.5 47.625 25.5 47.625 25.4375 47.6875 25.4375 47.6875 25.375 47.75 25.375 47.75 25.3125 47.8125 25.3125 47.8125 25.1875 47.875 25.1875 47.875 25.125 47.9375 25.125 47.9375 25.0625 48 25.0625 48 25 48.0625 25 48.0625 24.875 48.125 24.875 48.125 24.8125 48.1875 24.8125 48.1875 24.75 48.25 24.75 48.25 24.6875 48.3125 24.6875 48.3125 24.5625 48.375 24.5625 48.375 24.5 48.4375 24.5 48.4375 24.4375 48.5 24.4375 48.5 24.375 48.5625 24.375 48.5625 24.3125 48.625 24.3125 48.625 24.25 48.6875 24.25 48.6875 24.125 48.75 24.125 48.75 24.0625 48.8125 24.0625 48.8125 24 48.875 24 48.875 23.9375 48.9375 23.9375 48.9375 23.875 49 23.875 49 23.8125 49.0625 23.8125 49.0625 23.75 49.125 23.75 49.125 23.625 49.1875 23.625 49.1875 23.5625 49.25 23.5625 49.25 23.5 49.3125 23.5 49.3125 23.4375 49.375 23.4375 49.375 23.375 49.4375 23.375 49.4375 23.3125 49.5 23.3125 49.5 23.25 49.5625 23.25 49.5625 23.1875 49.625 23.1875 49.625 23.125 49.6875 23.125 49.6875 23.0625 49.75 23.0625 49.75 23 49.8125 23 49.8125 22.9375 49.875 22.9375 49.875 22.875 49.9375 22.875 49.9375 22.8125 50 22.8125 50 22.6875 50.0625 22.6875 50.0625 22.625 50.125 22.625 50.125 22.5625 50.1875 22.5625 50.1875 22.5 50.25 22.5 50.25 22.4375 50.3125 22.4375 50.3125 22.375 50.375 22.375 50.375 22.3125 50.4375 22.3125 50.4375 22.25 50.5625 22.25 50.5625 22.1875 50.625 22.1875 50.625 22.125 50.6875 22.125 50.6875 22.0625 50.75 22.0625 50.75 22 50.8125 22 50.8125 21.9375 50.875 21.9375 50.875 21.875 50.9375 21.875 50.9375 21.8125 51 21.8125 51 21.75 51.0625 21.75 51.0625 21.6875 51.125 21.6875 51.125 21.625 51.1875 21.625 51.1875 21.5625 51.25 21.5625 51.25 21.5 51.3125 21.5 51.3125 21.4375 51.375 21.4375 51.375 21.375 51.4375 21.375 51.4375 21.3125 51.5625 21.3125 51.5625 21.25 51.625 21.25 51.625 21.1875 51.6875 21.1875 51.6875 21.125 51.75 21.125 51.75 21.0625 51.8125 21.0625 51.8125 21 51.875 21 51.875 20.9375 51.9375 20.9375 51.9375 20.875 52.0625 20.875 52.0625 20.8125 52.125 20.8125 52.125 20.75 52.1875 20.75 52.1875 20.6875 52.25 20.6875 52.25 20.625 52.3125 20.625 52.3125 20.5625 52.375 20.5625 52.375 20.5 52.5 20.5 52.5 20.4375 52.5625 20.4375 52.5625 20.375 52.625 20.375 52.625 20.3125 52.6875 20.3125 52.6875 20.25 52.8125 20.25 52.8125 20.1875 52.875 20.1875 52.875 20.125 52.9375 20.125 52.9375 20.0625 53 20.0625 53 20 53.125 20 53.125 19.9375 53.1875 19.9375 53.1875 19.875 53.25 19.875 53.25 19.8125 53.375 19.8125 53.375 19.75 53.4375 19.75 53.4375 19.6875 53.5 19.6875 53.5 19.625 53.5625 19.625 53.5625 19.5625 53.6875 19.5625 53.6875 19.5 53.75 19.5 53.75 19.4375 53.875 19.4375 53.875 19.375 53.9375 19.375 53.9375 19.3125 54 19.3125 54 19.25 54.125 19.25 54.125 19.1875 54.1875 19.1875 54.1875 19.125 54.25 19.125 54.25 19.0625 54.375 19.0625 54.375 19 54.4375 19 54.4375 18.9375 54.5625 18.9375 54.5625 18.875 54.625 18.875 54.625 18.8125 54.75 18.8125 54.75 18.75 54.8125 18.75 54.8125 18.6875 54.9375 18.6875 54.9375 18.625 55 18.625 55 18.5625 55.125 18.5625 55.125 18.5 55.1875 18.5 55.1875 18.4375 55.3125 18.4375 55.3125 18.375 55.375 18.375 55.375 18.3125 55.5 18.3125 55.5 18.25 55.5625 18.25 55.5625 18.1875 55.6875 18.1875 55.6875 18.125 55.8125 18.125 55.8125 18.0625 55.875 18.0625 55.875 18 56 18 56 17.9375 56.0625 17.9375 56.0625 17.875 56.1875 17.875 56.1875 17.8125 56.3125 17.8125 56.3125 17.75 56.375 17.75 56.375 17.6875 56.5 17.6875 56.5 17.625 56.625 17.625 56.625 17.5625 56.75 17.5625 56.75 17.5 56.8125 17.5 56.8125 17.4375 56.9375 17.4375 56.9375 17.375 57.0625 17.375 57.0625 17.3125 57.1875 17.3125 57.1875 17.25 57.25 17.25 57.25 17.1875 57.375 17.1875 57.375 17.125 57.5 17.125 57.5 17.0625 57.625 17.0625 57.625 17 57.75 17 57.75 16.9375 57.875 16.9375 57.875 16.875 58 16.875 58 16.8125 58.125 16.8125 58.125 16.75 58.25 16.75 58.25 16.6875 58.375 16.6875 58.375 16.625 58.5 16.625 58.5 16.5625 58.625 16.5625 58.625 16.5 58.75 16.5 58.75 16.4375 58.875 16.4375 58.875 16.375 59 16.375 59 16.3125 59.125 16.3125 59.125 16.25 59.3125 16.25 59.3125 16.1875 59.4375 16.1875 59.4375 16.125 59.5625 16.125 59.5625 16.0625 59.75 16.0625 59.75 16 59.875 16 59.875 15.9375 60 15.9375 60 15.875 60.1875 15.875 60.1875 15.8125 60.3125 15.8125 60.3125 15.75 60.5 15.75 60.5 15.6875 60.625 15.6875 60.625 15.625 60.8125 15.625 60.8125 15.5625 61 15.5625 61 15.5 61.125 15.5 61.125 15.4375 61.3125 15.4375 61.3125 15.375 61.5 15.375 61.5 15.3125 61.6875 15.3125 61.6875 15.25 61.875 15.25 61.875 15.1875 62.0625 15.1875 62.0625 15.125 62.25 15.125 62.25 15.0625 62.5 15.0625 62.5 15 62.6875 15 62.6875 14.9375 62.9375 14.9375 62.9375 14.875 63.1875 14.875 63.1875 14.8125 63.375 14.8125 63.375 14.75 63.6875 14.75 63.6875 14.6875 63.9375 14.6875 63.9375 14.625 64.1875 14.625 64.1875 14.5625 64.5625 14.5625 64.5625 14.5 64.875 14.5 64.875 14.4375 65.3125 14.4375 65.3125 14.375 65.8125 14.375 65.8125 14.3125 66.5 14.3125 66.5 14.25 68.8125 14.25 68.8125 14.3125 69.5 14.3125 69.5 14.375 70 14.375 70 14.4375 70.375 14.4375 70.375 14.5 70.75 14.5 70.75 14.5625 71 14.5625 71 14.625 71.3125 14.625 71.3125 14.6875 71.5625 14.6875 71.5625 14.75 71.8125 14.75 71.8125 14.8125 72 14.8125 72 14.875 72.25 14.875 72.25 14.9375 72.4375 14.9375 72.4375 15 72.625 15 72.625 15.0625 72.8125 15.0625 72.8125 15.125 73 15.125 73 15.1875 73.1875 15.1875 73.1875 15.25 73.3125 15.25 73.3125 15.3125 73.5 15.3125 73.5 15.375 73.625 15.375 73.625 15.4375 73.8125 15.4375 73.8125 15.5 73.9375 15.5 73.9375 15.5625 74.0625 15.5625 74.0625 15.625 74.25 15.625 74.25 15.6875 74.375 15.6875 74.375 15.75 74.5 15.75 74.5 15.8125 74.625 15.8125 74.625 15.875 74.75 15.875 74.75 15.9375 74.875 15.9375 74.875 16 75 16 75 16.0625 75.0625 16.0625 75.0625 16.125 75.1875 16.125 75.1875 16.1875 75.3125 16.1875 75.3125 16.25 75.4375 16.25 75.4375 16.3125 75.5625 16.3125 75.5625 16.375 75.625 16.375 75.625 16.4375 75.75 16.4375 75.75 16.5 75.875 16.5 75.875 16.5625 75.9375 16.5625 75.9375 16.625 76.0625 16.625 76.0625 16.6875 76.125 16.6875 76.125 16.75 76.25 16.75 76.25 16.8125 76.3125 16.8125 76.3125 16.875 76.4375 16.875 76.4375 16.9375 76.5 16.9375 76.5 17 76.625 17 76.625 17.0625 76.6875 17.0625 76.6875 17.125 76.75 17.125 76.75 17.1875 76.875 17.1875 76.875 17.25 76.9375 17.25 76.9375 17.3125 77 17.3125 77 17.375 77.125 17.375 77.125 17.4375 77.1875 17.4375 77.1875 17.5 77.25 17.5 77.25 17.5625 77.3125 17.5625 77.3125 17.625 77.4375 17.625 77.4375 17.6875 77.5 17.6875 77.5 17.75 77.5625 17.75 77.5625 17.8125 77.625 17.8125 77.625 17.875 77.6875 17.875 77.6875 17.9375 77.75 17.9375 77.75 18 77.8125 18 77.8125 18.0625 77.875 18.0625 77.875 18.125 78 18.125 78 18.1875 78.0625 18.1875 78.0625 18.25 78.125 18.25 78.125 18.3125 78.1875 18.3125 78.1875 18.4375 78.25 18.4375 78.25 18.375 78.3125 18.375 78.3125 18.3125 78.375 18.3125 78.375 18.1875 78.4375 18.1875 78.4375 18.125 78.5 18.125 78.5 18 78.5625 18 78.5625 17.9375 78.625 17.9375 78.625 17.8125 78.6875 17.8125 78.6875 17.75 78.75 17.75 78.75 17.625 78.8125 17.625 78.8125 17.5625 78.875 17.5625 78.875 17.4375 78.9375 17.4375 78.9375 17.375 79 17.375 79 17.25 79.0625 17.25 79.0625 17.1875 79.125 17.1875 79.125 17.0625 79.1875 17.0625 79.1875 17 79.25 17 79.25 16.875 79.3125 16.875 79.3125 16.8125 79.375 16.8125 79.375 16.6875 79.4375 16.6875 79.4375 16.625 79.5 16.625 79.5 16.5 79.5625 16.5 79.5625 16.4375 79.625 16.4375 79.625 16.3125 79.6875 16.3125 79.6875 16.25 79.75 16.25 79.75 16.125 79.8125 16.125 79.8125 16.0625 79.875 16.0625 79.875 15.9375 79.9375 15.9375 79.9375 15.8125 79.875 15.8125 79.875 15.75 79.8125 15.75 79.8125 15.6875 79.75 15.6875 79.75 15.625 79.6875 15.625 79.6875 15.5625 79.625 15.5625 79.625 15.5 79.5625 15.5 79.5625 15.4375 79.5 15.4375 79.5 15.375 79.4375 15.375 79.4375 15.3125 79.375 15.3125 79.375 15.25 79.3125 15.25 79.3125 15.1875 79.1875 15.1875 79.1875 15.125 79.125 15.125 79.125 15.0625 79.0625 15.0625 79.0625 15 79 15 79 14.9375 78.9375 14.9375 78.9375 14.875 78.875 14.875 78.875 14.8125 78.8125 14.8125 78.8125 14.75 78.75 14.75 78.75 14.6875 78.625 14.6875 78.625 14.625 78.5625 14.625 78.5625 14.5625 78.5 14.5625 78.5 14.5 78.4375 14.5 78.4375 14.4375 78.375 14.4375 78.375 14.375 78.25 14.375 78.25 14.3125 78.1875 14.3125 78.1875 14.25 78.125 14.25 78.125 14.1875 78.0625 14.1875 78.0625 14.125 78 14.125 78 14.0625 77.875 14.0625 77.875 14 77.8125 14 77.8125 13.9375 77.75 13.9375 77.75 13.875 77.6875 13.875 77.6875 13.8125 77.625 13.8125 77.625 13.75 77.5 13.75 77.5 13.6875 77.4375 13.6875 77.4375 13.625 77.375 13.625 77.375 13.5625 77.25 13.5625 77.25 13.5 77.1875 13.5 77.1875 13.4375 77.125 13.4375 77.125 13.375 77.0625 13.375 77.0625 13.3125 76.9375 13.3125 76.9375 13.25 76.875 13.25 76.875 13.1875 76.8125 13.1875 76.8125 13.125 76.6875 13.125 76.6875 13.0625 76.625 13.0625 76.625 13 76.5625 13 76.5625 12.9375 76.4375 12.9375 76.4375 12.875 76.375 12.875 76.375 12.8125 76.3125 12.8125 76.3125 12.75 76.1875 12.75 76.1875 12.6875 76.125 12.6875 76.125 12.625 76.0625 12.625 76.0625 12.5625 75.9375 12.5625 75.9375 12.5 75.875 12.5 75.875 12.4375 75.75 12.4375 75.75 12.375 75.6875 12.375 75.6875 12.3125 75.625 12.3125 75.625 12.25 75.5 12.25 75.5 12.1875 75.4375 12.1875 75.4375 12.125 75.3125 12.125 75.3125 12.0625 75.25 12.0625 75.25 12 75.1875 12 75.1875 11.9375 75.0625 11.9375 75.0625 11.875 75 11.875 75 11.8125 74.875 11.8125 74.875 11.75 74.8125 11.75 74.8125 11.6875 74.6875 11.6875 74.6875 11.625 74.625 11.625 74.625 11.5625 74.5 11.5625 74.5 11.5 74.4375 11.5 74.4375 11.4375 74.3125 11.4375 74.3125 11.375 74.25 11.375 74.25 11.3125 74.125 11.3125 74.125 11.25 74.0625 11.25 74.0625 11.1875 73.9375 11.1875 73.9375 11.125 73.875 11.125 73.875 11.0625 73.75 11.0625 73.75 11 73.625 11 73.625 10.9375 73.5625 10.9375 73.5625 10.875 73.4375 10.875 73.4375 10.8125 73.375 10.8125 73.375 10.75 73.25 10.75 73.25 10.6875 73.125 10.6875 73.125 10.625 73.0625 10.625 73.0625 10.5625 72.9375 10.5625 72.9375 10.5 72.8125 10.5 72.8125 10.4375 72.75 10.4375 72.75 10.375 72.625 10.375 72.625 10.3125 72.5 10.3125 72.5 10.25 72.4375 10.25 72.4375 10.1875 72.3125 10.1875 72.3125 10.125 72.1875 10.125 72.1875 10.0625 72.125 10.0625 72.125 10 72 10 72 9.9375 71.875 9.9375 71.875 9.875 71.75 9.875 71.75 9.8125 71.6875 9.8125 71.6875 9.75 71.5625 9.75 71.5625 9.6875 71.4375 9.6875 71.4375 9.625 71.3125 9.625 71.3125 9.5625 71.1875 9.5625 71.1875 9.5 71.0625 9.5 71.0625 9.4375 71 9.4375 71 9.375 70.875 9.375 70.875 9.3125 70.75 9.3125 70.75 9.25 70.625 9.25 70.625 9.1875 70.5 9.1875 70.5 9.125 70.375 9.125 70.375 9.0625 70.25 9.0625 70.25 9 70.125 9 70.125 8.9375 70 8.9375 70 8.875 69.875 8.875 69.875 8.8125 69.75 8.8125 69.75 8.75 69.625 8.75 69.625 8.6875 69.5 8.6875 69.5 8.625 69.375 8.625 69.375 8.5625 69.25 8.5625 69.25 8.5 69.125 8.5 69.125 8.4375 68.9375 8.4375 68.9375 8.375 68.8125 8.375 68.8125 8.3125 68.6875 8.3125 68.6875 8.25 68.5625 8.25 68.5625 8.1875 68.4375 8.1875 68.4375 8.125 68.25 8.125 68.25 8.0625 68.125 8.0625 68.125 8 68 8 68 7.9375 67.8125 7.9375 67.8125 7.875 67.6875 7.875 67.6875 7.8125 67.5625 7.8125 67.5625 7.75 67.375 7.75 67.375 7.6875 67.25 7.6875 67.25 7.625 67.0625 7.625 67.0625 7.5625 66.9375 7.5625 66.9375 7.5 66.75 7.5 66.75 7.4375 66.625 7.4375 66.625 7.375 66.4375 7.375 66.4375 7.3125 66.25 7.3125 66.25 7.25 66.0625 7.25 66.0625 7.1875 65.9375 7.1875 65.9375 7.125 65.75 7.125 65.75 7.0625 65.5625 7.0625 65.5625 7 65.375 7 65.375 6.9375 65.1875 6.9375 65.1875 6.875 65 6.875 65 6.8125 64.8125 6.8125 64.8125 6.75 64.625 6.75 64.625 6.6875 64.375 6.6875 64.375 6.625 64.1875 6.625 64.1875 6.5625 64 6.5625 64 6.5 63.75 6.5 63.75 6.4375 63.5625 6.4375 63.5625 6.375 63.3125 6.375 63.3125 6.3125 63.0625 6.3125 63.0625 6.25 62.8125 6.25 62.8125 6.1875 62.5625 6.1875 62.5625 6.125 62.3125 6.125 62.3125 6.0625 62 6.0625 62 6 61.75 6 61.75 5.9375 61.375 5.9375 61.375 5.875 61.0625 5.875 61.0625 5.8125 60.75 5.8125 60.75 5.75 60.375 5.75 60.375 5.6875 59.9375 5.6875 59.9375 5.625 59.5 5.625 59.5 5.5625 59 5.5625 59 5.5 58.3125 5.5 58.3125 5.4375 57.375 5.4375 57.375 5.375 54.75 5.375 54.75 5.4375 53.875 5.4375 53.875 5.5 53.1875 5.5 53.1875 5.5625 52.625 5.5625 52.625 5.625 52.125 5.625 52.125 5.6875 51.6875 5.6875 51.6875 5.75 51.3125 5.75 51.3125 5.8125 50.9375 5.8125 50.9375 5.875 50.5625 5.875 50.5625 5.9375 50.1875 5.9375 50.1875 6 49.875 6 49.875 6.0625 49.5625 6.0625 49.5625 6.125 49.3125 6.125 49.3125 6.1875 49 6.1875 49 6.25 48.75 6.25 48.75 6.3125 48.5 6.3125 48.5 6.375 48.25 6.375 48.25 6.4375 48 6.4375 48 6.5 47.75 6.5 47.75 6.5625 47.5 6.5625 47.5 6.625 47.3125 6.625 47.3125 6.6875 47.0625 6.6875 47.0625 6.75 46.875 6.75 46.875 6.8125 46.625 6.8125 46.625 6.875 46.4375 6.875 46.4375 6.9375 46.25 6.9375 46.25 7 46.0625 7 46.0625 7.0625 45.875 7.0625 45.875 7.125 45.6875 7.125 45.6875 7.1875 45.5 7.1875 45.5 7.25 45.3125 7.25 45.3125 7.3125 45.125 7.3125 45.125 7.375 44.9375 7.375 44.9375 7.4375 44.8125 7.4375 44.8125 7.5 44.625 7.5 44.625 7.5625 44.4375 7.5625 44.4375 7.625 44.3125 7.625 44.3125 7.6875 44.125 7.6875 44.125 7.75 43.9375 7.75 43.9375 7.8125 43.8125 7.8125 43.8125 7.875 43.625 7.875 43.625 7.9375 43.5 7.9375 43.5 8 43.375 8 43.375 8.0625 43.1875 8.0625 43.1875 8.125 43.0625 8.125 43.0625 8.1875 42.9375 8.1875 42.9375 8.25 42.75 8.25 42.75 8.3125 42.625 8.3125 42.625 8.375 42.5 8.375 42.5 8.4375 42.375 8.4375 42.375 8.5 42.25 8.5 42.25 8.5625 42.0625 8.5625 42.0625 8.625 41.9375 8.625 41.9375 8.6875 41.8125 8.6875 41.8125 8.75 41.6875 8.75 41.6875 8.8125 41.5625 8.8125 41.5625 8.875 41.4375 8.875 41.4375 8.9375 41.3125 8.9375 41.3125 9 41.1875 9 41.1875 9.0625 41.0625 9.0625 41.0625 9.125 40.9375 9.125 40.9375 9.1875 40.8125 9.1875 40.8125 9.25 40.6875 9.25 40.6875 9.3125 40.5625 9.3125 40.5625 9.375 40.4375 9.375 40.4375 9.4375 40.375 9.4375 40.375 9.5 40.25 9.5 40.25 9.5625 40.125 9.5625 40.125 9.625 40 9.625 40 9.6875 39.875 9.6875 39.875 9.75 39.75 9.75 39.75 9.8125 39.6875 9.8125 39.6875 9.875 39.5625 9.875 39.5625 9.9375 39.4375 9.9375 39.4375 10 39.3125 10 39.3125 10.0625 39.25 10.0625 39.25 10.125 39.125 10.125 39.125 10.1875 39 10.1875 39 10.25 38.9375 10.25 38.9375 10.3125 38.8125 10.3125 38.8125 10.375 38.6875 10.375 38.6875 10.4375 38.625 10.4375 38.625 10.5 38.5 10.5 38.5 10.5625 38.375 10.5625 38.375 10.625 38.3125 10.625 38.3125 10.6875 38.1875 10.6875 38.1875 10.75 38.125 10.75 38.125 10.8125 38 10.8125 38 10.875 37.9375 10.875 37.9375 10.9375 37.8125 10.9375 37.8125 11 37.6875 11 37.6875 11.0625 37.625 11.0625 37.625 11.125 37.5 11.125 37.5 11.1875 37.4375 11.1875 37.4375 11.25 37.3125 11.25 37.3125 11.3125 37.25 11.3125 37.25 11.375 37.125 11.375 37.125 11.4375 37.0625 11.4375 37.0625 11.5 37 11.5 37 11.5625 36.875 11.5625 36.875 11.625 36.8125 11.625 36.8125 11.6875 36.6875 11.6875 36.6875 11.75 36.625 11.75 36.625 11.8125 36.5 11.8125 36.5 11.875 36.4375 11.875 36.4375 11.9375 36.375 11.9375 36.375 12 36.25 12 36.25 12.0625 36.1875 12.0625 36.1875 12.125 36.0625 12.125 36.0625 12.1875 36 12.1875 36 12.25 35.9375 12.25 35.9375 12.3125 35.8125 12.3125 35.8125 12.375 35.75 12.375 35.75 12.4375 35.6875 12.4375 35.6875 12.5 35.5625 12.5 35.5625 12.5625 35.5 12.5625 35.5 12.625 35.4375 12.625 35.4375 12.6875 35.375 12.6875 35.375 12.75 35.25 12.75 35.25 12.8125 35.1875 12.8125 35.1875 12.875 35.125 12.875 35.125 12.9375 35 12.9375 35 13 34.9375 13 34.9375 13.0625 34.875 13.0625 34.875 13.125 34.8125 13.125 34.8125 13.1875 34.6875 13.1875 34.6875 13.25 34.625 13.25 34.625 13.3125 34.5625 13.3125 34.5625 13.375 34.5 13.375 34.5 13.4375 34.375 13.4375 34.375 13.5 34.3125 13.5 34.3125 13.5625 34.25 13.5625 34.25 13.625 34.1875 13.625 34.1875 13.6875 34.125 13.6875 34.125 13.75 34 13.75 34 13.8125 33.9375 13.8125 33.9375 13.875 33.875 13.875 33.875 13.9375 33.8125 13.9375 33.8125 14 33.75 14 33.75 14.0625 33.6875 14.0625 33.6875 14.125 33.5625 14.125 33.5625 14.1875 33.5 14.1875 33.5 14.25 33.4375 14.25 33.4375 14.3125 33.375 14.3125 33.375 14.375 33.3125 14.375 33.3125 14.4375 33.25 14.4375 33.25 14.5 33.1875 14.5 33.1875 14.5625 33.125 14.5625 33.125 14.625 33 14.625 33 14.6875 32.9375 14.6875 32.9375 14.75 32.875 14.75 32.875 14.8125 32.8125 14.8125 32.8125 14.875 32.75 14.875 32.75 14.9375 32.6875 14.9375 32.6875 15 32.625 15 32.625 15.0625 32.5625 15.0625 32.5625 15.125 32.5 15.125 32.5 15.1875 32.4375 15.1875 32.4375 15.25 32.375 15.25 32.375 15.3125 32.3125 15.3125 32.3125 15.375 32.1875 15.375 32.1875 15.4375 32.125 15.4375 32.125 15.5 32.0625 15.5 32.0625 15.5625 32 15.5625 32 15.625 31.9375 15.625 31.9375 15.6875 31.875 15.6875 31.875 15.75 31.8125 15.75 31.8125 15.8125 31.75 15.8125 31.75 15.875 31.6875 15.875 31.6875 15.9375 31.625 15.9375 31.625 16 31.5625 16 31.5625 16.0625 31.5 16.0625 31.5 16.125 31.4375 16.125 31.4375 16.1875 31.375 16.1875 31.375 16.25 31.3125 16.25 31.3125 16.3125 31.25 16.3125 31.25 16.375 31.1875 16.375 31.1875 16.4375 31.125 16.4375 31.125 16.5 31.0625 16.5 31.0625 16.5625 31 16.5625 31 16.625 30.9375 16.625 30.9375 16.6875 30.875 16.6875 30.875 16.75 30.8125 16.75 30.8125 16.8125 30.75 16.8125 30.75 16.875 30.6875 16.875 30.6875 17 30.625 17 30.625 17.0625 30.5625 17.0625 30.5625 17.125 30.5 17.125 30.5 17.1875 30.4375 17.1875 30.4375 17.25 30.375 17.25 30.375 17.3125 30.3125 17.3125 30.3125 17.375 30.25 17.375 30.25 17.4375 30.1875 17.4375 30.1875 17.5 30.125 17.5 30.125 17.5625 30.0625 17.5625 30.0625 17.625 30 17.625 30 17.6875 29.9375 17.6875 29.9375 17.8125 29.875 17.8125 29.875 17.875 29.8125 17.875 29.8125 17.9375 29.75 17.9375 29.75 18 29.6875 18 29.6875 18.0625 29.625 18.0625 29.625 18.125 29.5625 18.125 29.5625 18.1875 29.5 18.1875 29.5 18.25 29.4375 18.25 29.4375 18.375 29.375 18.375 29.375 18.4375 29.3125 18.4375 29.3125 18.5 29.25 18.5 29.25 18.5625 29.1875 18.5625 29.1875 18.625 29.125 18.625 29.125 18.6875 29.0625 18.6875 29.0625 18.75 29 18.75 29 18.875 28.9375 18.875 28.9375 18.9375 28.875 18.9375 28.875 19 28.8125 19 28.8125 19.0625 28.75 19.0625 28.75 19.125 28.6875 19.125 28.6875 19.25 28.625 19.25 28.625 19.3125 28.5625 19.3125 28.5625 19.375 28.5 19.375 28.5 19.4375 28.4375 19.4375 28.4375 19.5625 28.375 19.5625 28.375 19.625 28.3125 19.625 28.3125 19.6875 28.25 19.6875 28.25 19.75 28.1875 19.75 28.1875 19.8125 28.125 19.8125 28.125 19.9375 28.0625 19.9375 28.0625 20 28 20 28 20.0625 27.9375 20.0625 27.9375 20.125 27.875 20.125 27.875 20.25 27.8125 20.25 27.8125 20.3125 27.75 20.3125 27.75 20.375 27.6875 20.375 27.6875 20.5 27.625 20.5 27.625 20.5625 27.5625 20.5625 27.5625 20.625 27.5 20.625 27.5 20.6875 27.4375 20.6875 27.4375 20.8125 27.375 20.8125 27.375 20.875 27.3125 20.875 27.3125 20.9375 27.25 20.9375 27.25 21.0625 27.1875 21.0625 27.1875 21.125 27.125 21.125 27.125 21.1875 27.0625 21.1875 27.0625 21.3125 27 21.3125 27 21.375 26.9375 21.375 26.9375 21.4375 26.875 21.4375 26.875 21.5625 26.8125 21.5625 26.8125 21.625 26.75 21.625 26.75 21.75 26.6875 21.75 26.6875 21.8125 26.625 21.8125 26.625 21.875 26.5625 21.875 26.5625 22 26.5 22 26.5 22.0625 26.4375 22.0625 26.4375 22.1875 26.375 22.1875 26.375 22.25 26.3125 22.25 26.3125 22.3125 26.25 22.3125 26.25 22.4375 26.1875 22.4375 26.1875 22.5 26.125 22.5 26.125 22.625 26.0625 22.625 26.0625 22.6875 26 22.6875 26 22.75 25.9375 22.75 25.9375 22.875 25.875 22.875 25.875 22.9375 25.8125 22.9375 25.8125 23.0625 25.75 23.0625 25.75 23.125 25.6875 23.125 25.6875 23.25 25.625 23.25 25.625 23.3125 25.5625 23.3125 25.5625 23.4375 25.5 23.4375 25.5 23.5 25.4375 23.5 25.4375 23.625 25.375 23.625 25.375 23.6875 25.3125 23.6875 25.3125 23.8125 25.25 23.8125 25.25 23.875 25.1875 23.875 25.1875 24 25.125 24 25.125 24.0625 25.0625 24.0625 25.0625 24.1875 25 24.1875 25 24.3125 24.9375 24.3125 24.9375 24.375 24.875 24.375 24.875 24.5 24.8125 24.5 24.8125 24.5625 24.75 24.5625 24.75 24.6875"></polygon>
                    <polygon id="Shape" points="0.6875 61.875 0.6875 61.4375 0.75 61.4375 0.75 60.9375 0.8125 60.9375 0.8125 60.4375 0.875 60.4375 0.875 59.9375 0.9375 59.9375 0.9375 59.625 1.0625 59.625 1.0625 59.6875 1.875 59.6875 1.875 59.75 2.6875 59.75 2.6875 59.8125 3.5625 59.8125 3.5625 59.875 4.3125 59.875 4.3125 59.9375 5.125 59.9375 5.125 60 5.9375 60 5.9375 60.0625 6.75 60.0625 6.75 60.125 7.5625 60.125 7.5625 60.1875 8.375 60.1875 8.375 60.25 8.5 60.25 8.5 60.3125 8.4375 60.3125 8.4375 60.625 8.375 60.625 8.375 61.0625 8.3125 61.0625 8.3125 61.375 8.25 61.375 8.25 61.75 8.1875 61.75 8.1875 62.125 8.125 62.125 8.125 62.5 8.0625 62.5 8.0625 62.8125 8 62.8125 8 63.1875 7.9375 63.1875 7.9375 63.5625 7.875 63.5625 7.875 63.875 7.8125 63.875 7.8125 64.25 7.75 64.25 7.75 64.625 7.6875 64.625 7.6875 65 7.625 65 7.625 65.375 7.5625 65.375 7.5625 65.75 7.5 65.75 7.5 66.0625 7.4375 66.0625 7.4375 66.4375 7.375 66.4375 7.375 66.8125 7.3125 66.8125 7.3125 67.125 7.25 67.125 7.25 67.5 7.1875 67.5 7.1875 67.75 6.6875 67.75 6.6875 67.6875 6.1875 67.6875 6.1875 67.625 5.6875 67.625 5.6875 67.5625 5.1875 67.5625 5.1875 67.5 4.6875 67.5 4.6875 67.4375 4.125 67.4375 4.125 67.375 3.625 67.375 3.625 67.3125 3.125 67.3125 3.125 67.25 2.625 67.25 2.625 67.1875 2.125 67.1875 2.125 67.125 1.625 67.125 1.625 67.0625 1.125 67.0625 1.125 67 0.5625 67 0.5625 66.9375 0.0625 66.9375 0.0625 66.6875 0.125 66.6875 0.125 66.125 0.1875 66.125 0.1875 65.625 0.25 65.625 0.25 65.125 0.3125 65.125 0.3125 64.625 0.375 64.625 0.375 64.0625 0.4375 64.0625 0.4375 63.5625 0.5 63.5625 0.5 63 0.5625 63 0.5625 62.5 0.625 62.5 0.625 62 0.6875 62"></polygon>
                    <polygon id="Shape" points="6.3125 40.6875 6.3125 40.5 6.375 40.5 6.375 40.3125 6.4375 40.3125 6.4375 40.1875 6.5 40.1875 6.5 40 6.5625 40 6.5625 39.8125 6.625 39.8125 6.625 39.625 6.6875 39.625 6.6875 39.5 6.75 39.5 6.75 39.3125 6.8125 39.3125 6.8125 39.125 6.875 39.125 6.875 38.9375 6.9375 38.9375 6.9375 38.75 7 38.75 7 38.5625 7.0625 38.5625 7.0625 38.4375 7.125 38.4375 7.125 38.25 7.1875 38.25 7.1875 38.0625 7.25 38.0625 7.25 37.875 7.3125 37.875 7.3125 37.75 7.375 37.75 7.375 37.5625 7.4375 37.5625 7.4375 37.375 7.5 37.375 7.5 37.1875 7.5625 37.1875 7.5625 37 7.625 37 7.625 36.875 7.6875 36.875 7.6875 36.6875 7.75 36.6875 7.75 36.5 7.8125 36.5 7.8125 36.3125 7.875 36.3125 7.875 36.125 7.9375 36.125 7.9375 36 8 36 8 35.8125 8.0625 35.8125 8.0625 35.625 8.125 35.625 8.125 35.4375 8.1875 35.4375 8.1875 35.25 8.25 35.25 8.25 35.125 8.3125 35.125 8.3125 35.1875 8.4375 35.1875 8.4375 35.25 8.625 35.25 8.625 35.3125 8.8125 35.3125 8.8125 35.375 8.9375 35.375 8.9375 35.4375 9.125 35.4375 9.125 35.5 9.25 35.5 9.25 35.5625 9.4375 35.5625 9.4375 35.625 9.5625 35.625 9.5625 35.6875 9.75 35.6875 9.75 35.75 9.875 35.75 9.875 35.8125 10.0625 35.8125 10.0625 35.875 10.25 35.875 10.25 35.9375 10.375 35.9375 10.375 36 10.5625 36 10.5625 36.0625 10.6875 36.0625 10.6875 36.125 10.875 36.125 10.875 36.1875 11 36.1875 11 36.25 11.1875 36.25 11.1875 36.3125 11.3125 36.3125 11.3125 36.375 11.5 36.375 11.5 36.4375 11.6875 36.4375 11.6875 36.5 11.8125 36.5 11.8125 36.5625 12 36.5625 12 36.625 12.125 36.625 12.125 36.6875 12.3125 36.6875 12.3125 36.75 12.4375 36.75 12.4375 36.8125 12.625 36.8125 12.625 36.875 12.75 36.875 12.75 36.9375 12.9375 36.9375 12.9375 37 13.125 37 13.125 37.0625 13.25 37.0625 13.25 37.125 13.4375 37.125 13.4375 37.1875 13.5625 37.1875 13.5625 37.25 13.75 37.25 13.75 37.3125 13.875 37.3125 13.875 37.375 14.0625 37.375 14.0625 37.4375 14.1875 37.4375 14.1875 37.5 14.375 37.5 14.375 37.5625 14.5625 37.5625 14.5625 37.625 14.6875 37.625 14.6875 37.6875 14.875 37.6875 14.875 37.75 14.9375 37.75 14.9375 37.8125 14.875 37.8125 14.875 38 14.8125 38 14.8125 38.1875 14.75 38.1875 14.75 38.375 14.6875 38.375 14.6875 38.5625 14.625 38.5625 14.625 38.6875 14.5625 38.6875 14.5625 38.875 14.5 38.875 14.5 39.0625 14.4375 39.0625 14.4375 39.25 14.375 39.25 14.375 39.375 14.3125 39.375 14.3125 39.5625 14.25 39.5625 14.25 39.75 14.1875 39.75 14.1875 39.9375 14.125 39.9375 14.125 40.125 14.0625 40.125 14.0625 40.25 14 40.25 14 40.4375 13.9375 40.4375 13.9375 40.625 13.875 40.625 13.875 40.8125 13.8125 40.8125 13.8125 41 13.75 41 13.75 41.125 13.6875 41.125 13.6875 41.3125 13.625 41.3125 13.625 41.5 13.5625 41.5 13.5625 41.6875 13.5 41.6875 13.5 41.8125 13.4375 41.8125 13.4375 42 13.375 42 13.375 42.1875 13.3125 42.1875 13.3125 42.375 13.25 42.375 13.25 42.5625 13.1875 42.5625 13.1875 42.6875 13.125 42.6875 13.125 42.875 13.0625 42.875 13.0625 43.0625 13 43.0625 13 43.25 12.9375 43.25 12.9375 43.375 12.6875 43.375 12.6875 43.3125 12.5 43.3125 12.5 43.25 12.3125 43.25 12.3125 43.1875 12.125 43.1875 12.125 43.125 11.9375 43.125 11.9375 43.0625 11.75 43.0625 11.75 43 11.5625 43 11.5625 42.9375 11.375 42.9375 11.375 42.875 11.1875 42.875 11.1875 42.8125 10.9375 42.8125 10.9375 42.75 10.75 42.75 10.75 42.6875 10.5625 42.6875 10.5625 42.625 10.375 42.625 10.375 42.5625 10.1875 42.5625 10.1875 42.5 10 42.5 10 42.4375 9.8125 42.4375 9.8125 42.375 9.5625 42.375 9.5625 42.3125 9.375 42.3125 9.375 42.25 9.1875 42.25 9.1875 42.1875 9 42.1875 9 42.125 8.8125 42.125 8.8125 42.0625 8.625 42.0625 8.625 42 8.4375 42 8.4375 41.9375 8.1875 41.9375 8.1875 41.875 8 41.875 8 41.8125 7.8125 41.8125 7.8125 41.75 7.625 41.75 7.625 41.6875 7.4375 41.6875 7.4375 41.625 7.25 41.625 7.25 41.5625 7.0625 41.5625 7.0625 41.5 6.875 41.5 6.875 41.4375 6.625 41.4375 6.625 41.375 6.4375 41.375 6.4375 41.3125 6.25 41.3125 6.25 41.25 6.0625 41.25 6.0625 41.1875 6.125 41.1875 6.125 41.0625 6.1875 41.0625 6.1875 40.875 6.25 40.875 6.25 40.6875"></polygon>
                    <polygon id="Shape" points="18.6875 18.6875 18.6875 18.625 18.75 18.625 18.75 18.5625 18.8125 18.5625 18.8125 18.5 18.875 18.5 18.875 18.4375 18.9375 18.4375 18.9375 18.375 19 18.375 19 18.3125 19.0625 18.3125 19.0625 18.1875 19.125 18.1875 19.125 18.125 19.1875 18.125 19.1875 18.0625 19.25 18.0625 19.25 18 19.3125 18 19.3125 17.9375 19.375 17.9375 19.375 17.875 19.4375 17.875 19.4375 17.8125 19.5 17.8125 19.5 17.75 19.5625 17.75 19.5625 17.6875 19.625 17.6875 19.625 17.5625 19.6875 17.5625 19.6875 17.5 19.75 17.5 19.75 17.4375 19.8125 17.4375 19.8125 17.375 19.875 17.375 19.875 17.3125 19.9375 17.3125 19.9375 17.25 20 17.25 20 17.1875 20.0625 17.1875 20.0625 17.125 20.125 17.125 20.125 17.0625 20.1875 17.0625 20.1875 17 20.25 17 20.25 16.875 20.3125 16.875 20.3125 16.8125 20.375 16.8125 20.375 16.75 20.4375 16.75 20.4375 16.6875 20.5 16.6875 20.5 16.625 20.5625 16.625 20.5625 16.5625 20.625 16.5625 20.625 16.5 20.6875 16.5 20.6875 16.4375 20.75 16.4375 20.75 16.375 20.8125 16.375 20.8125 16.25 20.875 16.25 20.875 16.1875 20.9375 16.1875 20.9375 16.125 21 16.125 21 16.0625 21.0625 16.0625 21.0625 16 21.125 16 21.125 15.9375 21.1875 15.9375 21.1875 15.875 21.25 15.875 21.25 15.8125 21.4375 15.8125 21.4375 15.875 21.5 15.875 21.5 15.9375 21.625 15.9375 21.625 16 21.75 16 21.75 16.0625 21.8125 16.0625 21.8125 16.125 21.9375 16.125 21.9375 16.1875 22 16.1875 22 16.25 22.125 16.25 22.125 16.3125 22.1875 16.3125 22.1875 16.375 22.3125 16.375 22.3125 16.4375 22.375 16.4375 22.375 16.5 22.5 16.5 22.5 16.5625 22.5625 16.5625 22.5625 16.625 22.6875 16.625 22.6875 16.6875 22.75 16.6875 22.75 16.75 22.875 16.75 22.875 16.8125 22.9375 16.8125 22.9375 16.875 23.0625 16.875 23.0625 16.9375 23.125 16.9375 23.125 17 23.25 17 23.25 17.0625 23.3125 17.0625 23.3125 17.125 23.4375 17.125 23.4375 17.1875 23.5 17.1875 23.5 17.25 23.625 17.25 23.625 17.3125 23.6875 17.3125 23.6875 17.375 23.8125 17.375 23.8125 17.4375 23.9375 17.4375 23.9375 17.5 24 17.5 24 17.5625 24.125 17.5625 24.125 17.625 24.1875 17.625 24.1875 17.6875 24.3125 17.6875 24.3125 17.75 24.375 17.75 24.375 17.8125 24.5 17.8125 24.5 17.875 24.5625 17.875 24.5625 17.9375 24.6875 17.9375 24.6875 18 24.75 18 24.75 18.0625 24.875 18.0625 24.875 18.125 24.9375 18.125 24.9375 18.1875 25.0625 18.1875 25.0625 18.25 25.125 18.25 25.125 18.3125 25.25 18.3125 25.25 18.375 25.3125 18.375 25.3125 18.4375 25.4375 18.4375 25.4375 18.5 25.5 18.5 25.5 18.5625 25.625 18.5625 25.625 18.625 25.6875 18.625 25.6875 18.6875 25.8125 18.6875 25.8125 18.75 25.875 18.75 25.875 18.8125 26 18.8125 26 18.875 26.0625 18.875 26.0625 18.9375 26.1875 18.9375 26.1875 19 26.3125 19 26.3125 19.0625 26.375 19.0625 26.375 19.125 26.3125 19.125 26.3125 19.1875 26.25 19.1875 26.25 19.3125 26.1875 19.3125 26.1875 19.375 26.125 19.375 26.125 19.4375 26.0625 19.4375 26.0625 19.5 26 19.5 26 19.5625 25.9375 19.5625 25.9375 19.6875 25.875 19.6875 25.875 19.75 25.8125 19.75 25.8125 19.8125 25.75 19.8125 25.75 19.875 25.6875 19.875 25.6875 19.9375 25.625 19.9375 25.625 20 25.5625 20 25.5625 20.125 25.5 20.125 25.5 20.1875 25.4375 20.1875 25.4375 20.25 25.375 20.25 25.375 20.3125 25.3125 20.3125 25.3125 20.375 25.25 20.375 25.25 20.5 25.1875 20.5 25.1875 20.5625 25.125 20.5625 25.125 20.625 25.0625 20.625 25.0625 20.6875 25 20.6875 25 20.75 24.9375 20.75 24.9375 20.875 24.875 20.875 24.875 20.9375 24.8125 20.9375 24.8125 21 24.75 21 24.75 21.0625 24.6875 21.0625 24.6875 21.125 24.625 21.125 24.625 21.1875 24.5625 21.1875 24.5625 21.3125 24.5 21.3125 24.5 21.375 24.4375 21.375 24.4375 21.4375 24.375 21.4375 24.375 21.5 24.3125 21.5 24.3125 21.5625 24.25 21.5625 24.25 21.6875 24.1875 21.6875 24.1875 21.75 24.125 21.75 24.125 21.8125 24.0625 21.8125 24.0625 21.875 24 21.875 24 21.9375 23.9375 21.9375 23.9375 22 23.875 22 23.875 22.125 23.8125 22.125 23.8125 22.1875 23.75 22.1875 23.75 22.25 23.6875 22.25 23.6875 22.3125 23.625 22.3125 23.625 22.375 23.5625 22.375 23.5625 22.5 23.5 22.5 23.5 22.5625 23.4375 22.5625 23.4375 22.625 23.375 22.625 23.375 22.6875 23.3125 22.6875 23.3125 22.75 23.25 22.75 23.25 22.875 23.1875 22.875 23.1875 22.9375 23.125 22.9375 23.125 23 23.0625 23 23.0625 23.0625 23 23.0625 23 23.125 22.9375 23.125 22.9375 23.1875 22.875 23.1875 22.875 23.3125 22.8125 23.3125 22.8125 23.375 22.75 23.375 22.75 23.4375 22.6875 23.4375 22.6875 23.5 22.625 23.5 22.625 23.5625 22.5625 23.5625 22.5625 23.6875 22.5 23.6875 22.5 23.75 22.4375 23.75 22.4375 23.6875 22.375 23.6875 22.375 23.625 22.25 23.625 22.25 23.5625 22.1875 23.5625 22.1875 23.5 22.0625 23.5 22.0625 23.4375 22 23.4375 22 23.375 21.875 23.375 21.875 23.3125 21.8125 23.3125 21.8125 23.25 21.6875 23.25 21.6875 23.1875 21.625 23.1875 21.625 23.125 21.5 23.125 21.5 23.0625 21.4375 23.0625 21.4375 23 21.3125 23 21.3125 22.9375 21.25 22.9375 21.25 22.875 21.125 22.875 21.125 22.8125 21.0625 22.8125 21.0625 22.75 20.9375 22.75 20.9375 22.6875 20.875 22.6875 20.875 22.625 20.75 22.625 20.75 22.5625 20.6875 22.5625 20.6875 22.5 20.5625 22.5 20.5625 22.4375 20.5 22.4375 20.5 22.375 20.375 22.375 20.375 22.3125 20.3125 22.3125 20.3125 22.25 20.1875 22.25 20.1875 22.1875 20.125 22.1875 20.125 22.125 20 22.125 20 22.0625 19.9375 22.0625 19.9375 22 19.8125 22 19.8125 21.9375 19.75 21.9375 19.75 21.875 19.625 21.875 19.625 21.8125 19.5625 21.8125 19.5625 21.75 19.4375 21.75 19.4375 21.6875 19.375 21.6875 19.375 21.625 19.25 21.625 19.25 21.5625 19.1875 21.5625 19.1875 21.5 19.0625 21.5 19.0625 21.4375 19 21.4375 19 21.375 18.875 21.375 18.875 21.3125 18.8125 21.3125 18.8125 21.25 18.6875 21.25 18.6875 21.1875 18.625 21.1875 18.625 21.125 18.5 21.125 18.5 21.0625 18.4375 21.0625 18.4375 21 18.3125 21 18.3125 20.9375 18.25 20.9375 18.25 20.875 18.125 20.875 18.125 20.8125 18.0625 20.8125 18.0625 20.75 17.9375 20.75 17.9375 20.6875 17.875 20.6875 17.875 20.625 17.75 20.625 17.75 20.5625 17.6875 20.5625 17.6875 20.5 17.5625 20.5 17.5625 20.4375 17.5 20.4375 17.5 20.375 17.375 20.375 17.375 20.3125 17.3125 20.3125 17.3125 20.25 17.25 20.25 17.25 20.1875 17.3125 20.1875 17.3125 20.125 17.375 20.125 17.375 20.0625 17.4375 20.0625 17.4375 20 17.5 20 17.5 19.9375 17.5625 19.9375 17.5625 19.875 17.625 19.875 17.625 19.8125 17.6875 19.8125 17.6875 19.75 17.75 19.75 17.75 19.6875 17.8125 19.6875 17.8125 19.625 17.875 19.625 17.875 19.5 17.9375 19.5 17.9375 19.4375 18 19.4375 18 19.375 18.0625 19.375 18.0625 19.3125 18.125 19.3125 18.125 19.25 18.1875 19.25 18.1875 19.1875 18.25 19.1875 18.25 19.125 18.3125 19.125 18.3125 19.0625 18.375 19.0625 18.375 19 18.4375 19 18.4375 18.9375 18.5 18.9375 18.5 18.8125 18.5625 18.8125 18.5625 18.75 18.625 18.75 18.625 18.6875"></polygon>
                    <polygon id="Shape" points="36.1875 9.5 36.1875 9.4375 36.125 9.4375 36.125 9.375 36.0625 9.375 36.0625 9.3125 36 9.3125 36 9.25 35.9375 9.25 35.9375 9.125 35.875 9.125 35.875 9.0625 35.8125 9.0625 35.8125 9 35.75 9 35.75 8.9375 35.6875 8.9375 35.6875 8.875 35.625 8.875 35.625 8.75 35.5625 8.75 35.5625 8.6875 35.5 8.6875 35.5 8.625 35.4375 8.625 35.4375 8.5625 35.375 8.5625 35.375 8.5 35.3125 8.5 35.3125 8.375 35.25 8.375 35.25 8.3125 35.1875 8.3125 35.1875 8.25 35.125 8.25 35.125 8.1875 35.0625 8.1875 35.0625 8.125 35 8.125 35 8 34.9375 8 34.9375 7.9375 34.875 7.9375 34.875 7.875 34.8125 7.875 34.8125 7.8125 34.75 7.8125 34.75 7.6875 34.6875 7.6875 34.6875 7.625 34.625 7.625 34.625 7.5625 34.5625 7.5625 34.5625 7.5 34.5 7.5 34.5 7.4375 34.4375 7.4375 34.4375 7.3125 34.375 7.3125 34.375 7.25 34.3125 7.25 34.3125 7.1875 34.25 7.1875 34.25 7.125 34.1875 7.125 34.1875 7.0625 34.125 7.0625 34.125 6.9375 34.0625 6.9375 34.0625 6.875 34 6.875 34 6.8125 33.9375 6.8125 33.9375 6.75 33.875 6.75 33.875 6.6875 33.8125 6.6875 33.8125 6.5625 33.75 6.5625 33.75 6.5 33.6875 6.5 33.6875 6.4375 33.625 6.4375 33.625 6.375 33.5625 6.375 33.5625 6.3125 33.5 6.3125 33.5 6.1875 33.4375 6.1875 33.4375 6.125 33.375 6.125 33.375 6.0625 33.3125 6.0625 33.3125 6 33.25 6 33.25 5.875 33.1875 5.875 33.1875 5.8125 33.125 5.8125 33.125 5.75 33.0625 5.75 33.0625 5.6875 33 5.6875 33 5.625 32.9375 5.625 32.9375 5.5625 33.0625 5.5625 33.0625 5.5 33.1875 5.5 33.1875 5.4375 33.3125 5.4375 33.3125 5.375 33.4375 5.375 33.4375 5.3125 33.5625 5.3125 33.5625 5.25 33.6875 5.25 33.6875 5.1875 33.8125 5.1875 33.8125 5.125 33.9375 5.125 33.9375 5.0625 34.0625 5.0625 34.0625 5 34.1875 5 34.1875 4.9375 34.3125 4.9375 34.3125 4.875 34.4375 4.875 34.4375 4.8125 34.5625 4.8125 34.5625 4.75 34.6875 4.75 34.6875 4.6875 34.8125 4.6875 34.8125 4.625 34.875 4.625 34.875 4.5625 35 4.5625 35 4.5 35.125 4.5 35.125 4.4375 35.25 4.4375 35.25 4.375 35.375 4.375 35.375 4.3125 35.5 4.3125 35.5 4.25 35.625 4.25 35.625 4.1875 35.75 4.1875 35.75 4.125 35.875 4.125 35.875 4.0625 36 4.0625 36 4 36.125 4 36.125 3.9375 36.25 3.9375 36.25 3.875 36.375 3.875 36.375 3.8125 36.5 3.8125 36.5 3.75 36.625 3.75 36.625 3.6875 36.75 3.6875 36.75 3.625 36.8125 3.625 36.8125 3.5625 36.9375 3.5625 36.9375 3.5 37.0625 3.5 37.0625 3.4375 37.1875 3.4375 37.1875 3.375 37.3125 3.375 37.3125 3.3125 37.4375 3.3125 37.4375 3.25 37.5625 3.25 37.5625 3.1875 37.6875 3.1875 37.6875 3.125 37.75 3.125 37.75 3.1875 37.8125 3.1875 37.8125 3.25 37.875 3.25 37.875 3.3125 37.9375 3.3125 37.9375 3.375 38 3.375 38 3.5 38.0625 3.5 38.0625 3.5625 38.125 3.5625 38.125 3.625 38.1875 3.625 38.1875 3.6875 38.25 3.6875 38.25 3.75 38.3125 3.75 38.3125 3.8125 38.375 3.8125 38.375 3.875 38.4375 3.875 38.4375 3.9375 38.5 3.9375 38.5 4.0625 38.5625 4.0625 38.5625 4.125 38.625 4.125 38.625 4.1875 38.6875 4.1875 38.6875 4.25 38.75 4.25 38.75 4.3125 38.8125 4.3125 38.8125 4.375 38.875 4.375 38.875 4.4375 38.9375 4.4375 38.9375 4.5 39 4.5 39 4.625 39.0625 4.625 39.0625 4.6875 39.125 4.6875 39.125 4.75 39.1875 4.75 39.1875 4.8125 39.25 4.8125 39.25 4.875 39.3125 4.875 39.3125 4.9375 39.375 4.9375 39.375 5 39.4375 5 39.4375 5.0625 39.5 5.0625 39.5 5.1875 39.5625 5.1875 39.5625 5.25 39.625 5.25 39.625 5.3125 39.6875 5.3125 39.6875 5.375 39.75 5.375 39.75 5.4375 39.8125 5.4375 39.8125 5.5 39.875 5.5 39.875 5.5625 39.9375 5.5625 39.9375 5.625 40 5.625 40 5.75 40.0625 5.75 40.0625 5.8125 40.125 5.8125 40.125 5.875 40.1875 5.875 40.1875 5.9375 40.25 5.9375 40.25 6 40.3125 6 40.3125 6.0625 40.375 6.0625 40.375 6.125 40.4375 6.125 40.4375 6.1875 40.5 6.1875 40.5 6.25 40.5625 6.25 40.5625 6.375 40.625 6.375 40.625 6.4375 40.6875 6.4375 40.6875 6.5 40.75 6.5 40.75 6.5625 40.8125 6.5625 40.8125 6.625 40.875 6.625 40.875 6.6875 40.9375 6.6875 40.9375 6.75 41 6.75 41 6.875 41.0625 6.875 41.0625 6.9375 41.125 6.9375 41.125 7 41.1875 7 41.1875 7.0625 41.125 7.0625 41.125 7.125 41 7.125 41 7.1875 40.875 7.1875 40.875 7.25 40.8125 7.25 40.8125 7.3125 40.6875 7.3125 40.6875 7.375 40.5625 7.375 40.5625 7.4375 40.4375 7.4375 40.4375 7.5 40.375 7.5 40.375 7.5625 40.25 7.5625 40.25 7.625 40.125 7.625 40.125 7.6875 40 7.6875 40 7.75 39.9375 7.75 39.9375 7.8125 39.8125 7.8125 39.8125 7.875 39.6875 7.875 39.6875 7.9375 39.5625 7.9375 39.5625 8 39.5 8 39.5 8.0625 39.375 8.0625 39.375 8.125 39.25 8.125 39.25 8.1875 39.1875 8.1875 39.1875 8.25 39.0625 8.25 39.0625 8.3125 38.9375 8.3125 38.9375 8.375 38.8125 8.375 38.8125 8.4375 38.75 8.4375 38.75 8.5 38.625 8.5 38.625 8.5625 38.5 8.5625 38.5 8.625 38.375 8.625 38.375 8.6875 38.3125 8.6875 38.3125 8.75 38.1875 8.75 38.1875 8.8125 38.0625 8.8125 38.0625 8.875 37.9375 8.875 37.9375 8.9375 37.875 8.9375 37.875 9 37.75 9 37.75 9.0625 37.625 9.0625 37.625 9.125 37.5 9.125 37.5 9.1875 37.4375 9.1875 37.4375 9.25 37.3125 9.25 37.3125 9.3125 37.1875 9.3125 37.1875 9.375 37.125 9.375 37.125 9.4375 37 9.4375 37 9.5 36.875 9.5 36.875 9.5625 36.75 9.5625 36.75 9.625 36.6875 9.625 36.6875 9.6875 36.5625 9.6875 36.5625 9.75 36.375 9.75 36.375 9.6875 36.3125 9.6875 36.3125 9.625 36.25 9.625 36.25 9.5"></polygon>
                    <polygon id="Shape" points="56.25 1.0625 55.5 1.0625 55.5 1 54.125 1 54.125 0.9375 52.8125 0.9375 52.8125 0.875 51.5 0.875 51.5 0.8125 50.1875 0.8125 50.1875 0.75 50.125 0.75 50.125 0.9375 50.1875 0.9375 50.1875 1.25 50.25 1.25 50.25 1.5 50.3125 1.5 50.3125 1.8125 50.375 1.8125 50.375 2.125 50.4375 2.125 50.4375 2.4375 50.5 2.4375 50.5 2.75 50.5625 2.75 50.5625 3.0625 50.625 3.0625 50.625 3.375 50.6875 3.375 50.6875 3.625 50.75 3.625 50.75 3.9375 50.8125 3.9375 50.8125 4.25 50.875 4.25 50.875 4.5625 50.9375 4.5625 50.9375 4.8125 51 4.8125 51 4.9375 52.875 4.9375 52.875 4.875 55.375 4.875 55.375 4.8125 56.9375 4.8125 56.9375 4.6875 56.875 4.6875 56.875 4.3125 56.8125 4.3125 56.8125 3.875 56.75 3.875 56.75 3.5 56.6875 3.5 56.6875 3.125 56.625 3.125 56.625 2.625 56.5625 2.625 56.5625 2.25 56.5 2.25 56.5 1.875 56.4375 1.875 56.4375 1.4375 56.375 1.4375 56.375 1.0625"></polygon>
                    <polygon id="Shape" points="72.0625 6.5 72.0625 6.4375 71.9375 6.4375 71.9375 6.375 71.875 6.375 71.875 6.3125 71.75 6.3125 71.75 6.25 71.6875 6.25 71.6875 6.1875 71.625 6.1875 71.625 6.125 71.5 6.125 71.5 6.0625 71.4375 6.0625 71.4375 6 71.375 6 71.375 5.9375 71.25 5.9375 71.25 5.875 71.1875 5.875 71.1875 5.8125 71.0625 5.8125 71.0625 5.75 71 5.75 71 5.6875 70.9375 5.6875 70.9375 5.625 70.8125 5.625 70.8125 5.5625 70.75 5.5625 70.75 5.5 70.6875 5.5 70.6875 5.4375 70.5625 5.4375 70.5625 5.375 70.5 5.375 70.5 6.25 70.4375 6.25 70.4375 7.375 70.375 7.375 70.375 7.9375 70.5 7.9375 70.5 8 70.625 8 70.625 8.0625 70.75 8.0625 70.75 8.125 70.8125 8.125 70.8125 8.1875 70.9375 8.1875 70.9375 8.25 71.0625 8.25 71.0625 8.3125 71.1875 8.3125 71.1875 8.375 71.3125 8.375 71.3125 8.4375 71.4375 8.4375 71.4375 8.5 71.5625 8.5 71.5625 8.5625 71.625 8.5625 71.625 8.625 71.75 8.625 71.75 8.6875 71.875 8.6875 71.875 8.75 72 8.75 72 8.8125 72.125 8.8125 72.125 8.875 72.25 8.875 72.25 8.9375 72.375 8.9375 72.375 9 72.5 9 72.5 9.0625 72.5625 9.0625 72.5625 9.125 72.6875 9.125 72.6875 9.1875 72.8125 9.1875 72.8125 9.25 72.9375 9.25 72.9375 9.3125 73.0625 9.3125 73.0625 9.375 73.1875 9.375 73.1875 9.4375 73.3125 9.4375 73.3125 9.5 73.375 9.5 73.375 9.5625 73.5 9.5625 73.5 9.625 73.625 9.625 73.625 9.6875 73.75 9.6875 73.75 9.75 73.875 9.75 73.875 9.8125 74 9.8125 74 9.875 74.125 9.875 74.125 9.9375 74.1875 9.9375 74.1875 10 74.3125 10 74.3125 10.0625 74.4375 10.0625 74.4375 10 74.5 10 74.5 9.9375 74.5625 9.9375 74.5625 9.8125 74.625 9.8125 74.625 9.75 74.6875 9.75 74.6875 9.625 74.75 9.625 74.75 9.5625 74.8125 9.5625 74.8125 9.4375 74.875 9.4375 74.875 9.375 74.9375 9.375 74.9375 9.25 75 9.25 75 9.1875 75.0625 9.1875 75.0625 9.0625 75.125 9.0625 75.125 9 75.1875 9 75.1875 8.875 75.25 8.875 75.25 8.8125 75.1875 8.8125 75.1875 8.75 75.125 8.75 75.125 8.6875 75.0625 8.6875 75.0625 8.625 74.9375 8.625 74.9375 8.5625 74.875 8.5625 74.875 8.5 74.8125 8.5 74.8125 8.4375 74.6875 8.4375 74.6875 8.375 74.625 8.375 74.625 8.3125 74.5 8.3125 74.5 8.25 74.4375 8.25 74.4375 8.1875 74.375 8.1875 74.375 8.125 74.25 8.125 74.25 8.0625 74.1875 8.0625 74.1875 8 74.125 8 74.125 7.9375 74 7.9375 74 7.875 73.9375 7.875 73.9375 7.8125 73.8125 7.8125 73.8125 7.75 73.75 7.75 73.75 7.6875 73.6875 7.6875 73.6875 7.625 73.5625 7.625 73.5625 7.5625 73.5 7.5625 73.5 7.5 73.4375 7.5 73.4375 7.4375 73.3125 7.4375 73.3125 7.375 73.25 7.375 73.25 7.3125 73.125 7.3125 73.125 7.25 73.0625 7.25 73.0625 7.1875 73 7.1875 73 7.125 72.875 7.125 72.875 7.0625 72.8125 7.0625 72.8125 7 72.75 7 72.75 6.9375 72.625 6.9375 72.625 6.875 72.5625 6.875 72.5625 6.8125 72.4375 6.8125 72.4375 6.75 72.375 6.75 72.375 6.6875 72.3125 6.6875 72.3125 6.625 72.1875 6.625 72.1875 6.5625 72.125 6.5625 72.125 6.5"></polygon>
                    <polygon id="Shape" points="47.0625 66.8125 44.8125 66.8125 44.8125 66.875 44.875 66.875 44.875 67.0625 44.9375 67.0625 44.9375 67.25 45 67.25 45 67.5 45.0625 67.5 45.0625 67.75 45.125 67.75 45.125 67.9375 45.1875 67.9375 45.1875 68.1875 45.25 68.1875 45.25 68.4375 45.3125 68.4375 45.3125 68.625 45.375 68.625 45.375 68.875 45.4375 68.875 45.4375 69.0625 45.5 69.0625 45.5 69.3125 45.5625 69.3125 45.5625 69.5 45.625 69.5 45.625 69.75 45.6875 69.75 45.6875 70 45.75 70 45.75 70.1875 45.8125 70.1875 45.8125 70.4375 45.875 70.4375 45.875 70.6875 45.9375 70.6875 45.9375 70.875 46 70.875 46 71.125 46.0625 71.125 46.0625 71.3125 46.125 71.3125 46.125 71.5625 46.1875 71.5625 46.1875 71.75 46.25 71.75 46.25 72 46.3125 72 46.3125 72.0625 47.25 72.0625 47.25 72.125 48.375 72.125 48.375 72.1875 49.4375 72.1875 49.4375 72.25 50.5625 72.25 50.5625 72.3125 51.6875 72.3125 51.6875 72.375 52.8125 72.375 52.8125 72.4375 53.875 72.4375 53.875 72.5 54 72.5 54 72.4375 53.9375 72.4375 53.9375 72.375 53.875 72.375 53.875 72.25 53.8125 72.25 53.8125 72.0625 53.75 72.0625 53.75 71.9375 53.6875 71.9375 53.6875 71.8125 53.625 71.8125 53.625 71.6875 53.5625 71.6875 53.5625 71.5625 53.5 71.5625 53.5 71.4375 53.4375 71.4375 53.4375 71.3125 53.375 71.3125 53.375 71.1875 53.3125 71.1875 53.3125 71.0625 53.25 71.0625 53.25 70.9375 53.1875 70.9375 53.1875 70.8125 53.125 70.8125 53.125 70.6875 53.0625 70.6875 53.0625 70.5625 53 70.5625 53 70.4375 52.9375 70.4375 52.9375 70.3125 52.875 70.3125 52.875 70.1875 52.8125 70.1875 52.8125 70.0625 52.75 70.0625 52.75 69.9375 52.6875 69.9375 52.6875 69.8125 52.625 69.8125 52.625 69.6875 52.5625 69.6875 52.5625 69.5 52.5 69.5 52.5 69.375 52.4375 69.375 52.4375 69.25 52.375 69.25 52.375 69.125 52.3125 69.125 52.3125 69 52.25 69 52.25 68.875 52.1875 68.875 52.1875 68.75 52.125 68.75 52.125 68.625 52.0625 68.625 52.0625 68.5 52 68.5 52 68.375 51.9375 68.375 51.9375 68.25 51.875 68.25 51.875 68.125 51.8125 68.125 51.8125 68 51.75 68 51.75 67.875 51.6875 67.875 51.6875 67.75 51.625 67.75 51.625 67.625 51.5625 67.625 51.5625 67.5 51.5 67.5 51.5 67.375 51.4375 67.375 51.4375 67.1875 51.375 67.1875 51.375 67.0625 51.3125 67.0625 51.3125 66.9375 51.25 66.9375 51.25 66.8125"></polygon>
                    <polygon id="Shape" points="48.125 56 48.0625 56 48.0625 55.9375 47.9375 55.9375 47.9375 55.875 47.75 55.875 47.75 55.8125 47.625 55.8125 47.625 55.75 47.5 55.75 47.5 55.6875 47.3125 55.6875 47.3125 55.625 47.1875 55.625 47.1875 55.5625 47.0625 55.5625 47.0625 55.5 46.875 55.5 46.875 55.4375 46.75 55.4375 46.75 55.375 46.625 55.375 46.625 55.3125 46.4375 55.3125 46.4375 55.25 46.3125 55.25 46.3125 55.1875 46.1875 55.1875 46.1875 55.125 46 55.125 46 55.0625 45.875 55.0625 45.875 55 45.75 55 45.75 54.9375 45.5625 54.9375 45.5625 54.875 45.4375 54.875 45.4375 54.8125 45.3125 54.8125 45.3125 54.75 45.125 54.75 45.125 54.6875 45 54.6875 45 54.625 44.875 54.625 44.875 54.5625 44.6875 54.5625 44.6875 54.5 44.5625 54.5 44.5625 54.4375 44.4375 54.4375 44.4375 54.375 44.25 54.375 44.25 54.3125 44.125 54.3125 44.125 54.25 44 54.25 44 54.1875 43.8125 54.1875 43.8125 54.125 43.6875 54.125 43.6875 54.0625 43.5625 54.0625 43.5625 54 43.375 54 43.375 53.9375 43.25 53.9375 43.25 53.875 43.125 53.875 43.125 53.8125 42.9375 53.8125 42.9375 53.75 42.8125 53.75 42.8125 53.6875 42.75 53.6875 42.75 53.625 42.8125 53.625 42.8125 52.5625 42.875 52.5625 42.875 51.4375 42.9375 51.4375 42.9375 50.375 43 50.375 43 49.25 43.0625 49.25 43.0625 48.6875 43.1875 48.6875 43.1875 48.75 43.3125 48.75 43.3125 48.8125 43.4375 48.8125 43.4375 48.875 43.5625 48.875 43.5625 48.9375 43.6875 48.9375 43.6875 49 43.75 49 43.75 49.0625 43.875 49.0625 43.875 49.125 44 49.125 44 49.1875 44.125 49.1875 44.125 49.25 44.25 49.25 44.25 49.3125 44.375 49.3125 44.375 49.375 44.5 49.375 44.5 49.4375 44.625 49.4375 44.625 49.5 44.75 49.5 44.75 49.5625 44.875 49.5625 44.875 49.625 44.9375 49.625 44.9375 49.6875 45.0625 49.6875 45.0625 49.75 45.1875 49.75 45.1875 49.8125 45.3125 49.8125 45.3125 49.875 45.4375 49.875 45.4375 49.9375 45.5625 49.9375 45.5625 50 45.6875 50 45.6875 50.0625 45.8125 50.0625 45.8125 50.125 45.9375 50.125 45.9375 50.1875 46.0625 50.1875 46.0625 50.25 46.125 50.25 46.125 50.3125 46.25 50.3125 46.25 50.375 46.375 50.375 46.375 50.4375 46.5 50.4375 46.5 50.5 46.625 50.5 46.625 50.5625 46.75 50.5625 46.75 50.625 46.875 50.625 46.875 50.6875 47 50.6875 47 50.75 47.125 50.75 47.125 50.8125 47.25 50.8125 47.25 50.875 47.3125 50.875 47.3125 50.9375 47.4375 50.9375 47.4375 51 47.5625 51 47.5625 51.0625 47.6875 51.0625 47.6875 51.125 47.8125 51.125 47.8125 51.1875 47.9375 51.1875 47.9375 51.25 48.0625 51.25 48.0625 51.3125 48.1875 51.3125 48.1875 51.375 48.3125 51.375 48.3125 51.4375 48.4375 51.4375 48.4375 51.5 48.5 51.5 48.5 51.5625 48.5625 51.5625 48.5625 52.0625 48.625 52.0625 48.625 53.0625 48.6875 53.0625 48.6875 54.0625 48.75 54.0625 48.75 55.125 48.8125 55.125 48.8125 56.1875 48.875 56.1875 48.875 56.3125 48.8125 56.3125 48.8125 56.25 48.625 56.25 48.625 56.1875 48.5 56.1875 48.5 56.125 48.375 56.125 48.375 56.0625 48.1875 56.0625 48.1875 56"></polygon>
                    <polygon id="Shape" points="43.5625 38.4375 43.5625 38.3125 43.625 38.3125 43.625 38.1875 43.6875 38.1875 43.6875 38.0625 43.75 38.0625 43.75 37.9375 43.8125 37.9375 43.8125 37.8125 43.875 37.8125 43.875 37.6875 43.9375 37.6875 43.9375 37.5625 44 37.5625 44 37.4375 44.0625 37.4375 44.0625 37.3125 44.125 37.3125 44.125 37.1875 44.1875 37.1875 44.1875 37.0625 44.25 37.0625 44.25 36.9375 44.3125 36.9375 44.3125 36.8125 44.375 36.8125 44.375 36.6875 44.4375 36.6875 44.4375 36.5625 44.5 36.5625 44.5 36.4375 44.5625 36.4375 44.5625 36.3125 44.625 36.3125 44.625 36.1875 44.6875 36.1875 44.6875 36.0625 44.75 36.0625 44.75 35.9375 44.8125 35.9375 44.8125 35.8125 44.875 35.8125 44.875 35.6875 44.9375 35.6875 44.9375 35.5625 45 35.5625 45 35.4375 45.0625 35.4375 45.0625 35.3125 45.1875 35.3125 45.1875 35.375 45.25 35.375 45.25 35.4375 45.3125 35.4375 45.3125 35.5 45.4375 35.5 45.4375 35.5625 45.5 35.5625 45.5 35.625 45.5625 35.625 45.5625 35.6875 45.6875 35.6875 45.6875 35.75 45.75 35.75 45.75 35.8125 45.8125 35.8125 45.8125 35.875 45.875 35.875 45.875 35.9375 46 35.9375 46 36 46.0625 36 46.0625 36.0625 46.125 36.0625 46.125 36.125 46.25 36.125 46.25 36.1875 46.3125 36.1875 46.3125 36.25 46.375 36.25 46.375 36.3125 46.5 36.3125 46.5 36.375 46.5625 36.375 46.5625 36.4375 46.625 36.4375 46.625 36.5 46.75 36.5 46.75 36.5625 46.8125 36.5625 46.8125 36.625 46.875 36.625 46.875 36.6875 47 36.6875 47 36.75 47.0625 36.75 47.0625 36.8125 47.125 36.8125 47.125 36.875 47.25 36.875 47.25 36.9375 47.3125 36.9375 47.3125 37 47.375 37 47.375 37.0625 47.5 37.0625 47.5 37.125 47.5625 37.125 47.5625 37.1875 47.625 37.1875 47.625 37.25 47.6875 37.25 47.6875 37.3125 47.8125 37.3125 47.8125 37.375 47.875 37.375 47.875 37.4375 47.9375 37.4375 47.9375 37.5 48.0625 37.5 48.0625 37.5625 48.125 37.5625 48.125 37.625 48.1875 37.625 48.1875 37.6875 48.3125 37.6875 48.3125 37.75 48.375 37.75 48.375 37.8125 48.4375 37.8125 48.4375 37.875 48.5625 37.875 48.5625 37.9375 48.625 37.9375 48.625 38 48.6875 38 48.6875 38.0625 48.8125 38.0625 48.8125 38.125 48.875 38.125 48.875 38.1875 48.9375 38.1875 48.9375 38.25 49.0625 38.25 49.0625 38.3125 49.125 38.3125 49.125 38.375 49.1875 38.375 49.1875 38.4375 49.3125 38.4375 49.3125 38.5 49.25 38.5 49.25 38.75 49.1875 38.75 49.1875 39 49.125 39 49.125 39.25 49.0625 39.25 49.0625 39.5625 49 39.5625 49 39.8125 48.9375 39.8125 48.9375 40.0625 48.875 40.0625 48.875 40.3125 48.8125 40.3125 48.8125 40.5625 48.75 40.5625 48.75 40.8125 48.6875 40.8125 48.6875 41.0625 48.625 41.0625 48.625 41.375 48.5625 41.375 48.5625 41.625 48.5 41.625 48.5 41.875 48.4375 41.875 48.4375 42.125 48.375 42.125 48.375 42.375 48.3125 42.375 48.3125 42.625 48.25 42.625 48.25 42.9375 48.1875 42.9375 48.1875 43.1875 48.0625 43.1875 48.0625 43.125 48 43.125 48 43.0625 47.875 43.0625 47.875 43 47.8125 43 47.8125 42.9375 47.75 42.9375 47.75 42.875 47.6875 42.875 47.6875 42.8125 47.625 42.8125 47.625 42.75 47.5625 42.75 47.5625 42.6875 47.4375 42.6875 47.4375 42.625 47.375 42.625 47.375 42.5625 47.3125 42.5625 47.3125 42.5 47.25 42.5 47.25 42.4375 47.1875 42.4375 47.1875 42.375 47.0625 42.375 47.0625 42.3125 47 42.3125 47 42.25 46.9375 42.25 46.9375 42.1875 46.875 42.1875 46.875 42.125 46.8125 42.125 46.8125 42.0625 46.75 42.0625 46.75 42 46.625 42 46.625 41.9375 46.5625 41.9375 46.5625 41.875 46.5 41.875 46.5 41.8125 46.4375 41.8125 46.4375 41.75 46.375 41.75 46.375 41.6875 46.3125 41.6875 46.3125 41.625 46.1875 41.625 46.1875 41.5625 46.125 41.5625 46.125 41.5 46.0625 41.5 46.0625 41.4375 46 41.4375 46 41.375 45.9375 41.375 45.9375 41.3125 45.875 41.3125 45.875 41.25 45.75 41.25 45.75 41.1875 45.6875 41.1875 45.6875 41.125 45.625 41.125 45.625 41.0625 45.5625 41.0625 45.5625 41 45.5 41 45.5 40.9375 45.4375 40.9375 45.4375 40.875 45.3125 40.875 45.3125 40.8125 45.25 40.8125 45.25 40.75 45.1875 40.75 45.1875 40.6875 45.125 40.6875 45.125 40.625 45.0625 40.625 45.0625 40.5625 44.9375 40.5625 44.9375 40.5 44.875 40.5 44.875 40.4375 44.8125 40.4375 44.8125 40.375 44.75 40.375 44.75 40.3125 44.6875 40.3125 44.6875 40.25 44.625 40.25 44.625 40.1875 44.5 40.1875 44.5 40.125 44.4375 40.125 44.4375 40.0625 44.375 40.0625 44.375 40 44.3125 40 44.3125 39.9375 44.25 39.9375 44.25 39.875 44.1875 39.875 44.1875 39.8125 44.0625 39.8125 44.0625 39.75 44 39.75 44 39.6875 43.9375 39.6875 43.9375 39.625 43.875 39.625 43.875 39.5625 43.8125 39.5625 43.8125 39.5 43.75 39.5 43.75 39.4375 43.625 39.4375 43.625 39.375 43.5625 39.375 43.5625 39.3125 43.5 39.3125 43.5 39.25 43.4375 39.25 43.4375 39.1875 43.375 39.1875 43.375 39.125 43.3125 39.125 43.3125 39.0625 43.25 39.0625 43.25 38.9375 43.3125 38.9375 43.3125 38.8125 43.375 38.8125 43.375 38.6875 43.4375 38.6875 43.4375 38.5625 43.5 38.5625 43.5 38.4375"></polygon>
                    <polygon id="Shape" points="51.9375 30.3125 51.9375 30.25 51.875 30.25 51.875 30.1875 51.8125 30.1875 51.8125 30.125 51.75 30.125 51.75 30 51.6875 30 51.6875 29.9375 51.625 29.9375 51.625 29.875 51.5625 29.875 51.5625 29.8125 51.5 29.8125 51.5 29.75 51.4375 29.75 51.4375 29.6875 51.375 29.6875 51.375 29.625 51.3125 29.625 51.3125 29.5625 51.25 29.5625 51.25 29.5 51.1875 29.5 51.1875 29.375 51.125 29.375 51.125 29.3125 51.0625 29.3125 51.0625 29.25 51 29.25 51 29.1875 50.9375 29.1875 50.9375 29.125 50.875 29.125 50.875 29.0625 50.8125 29.0625 50.8125 29 50.75 29 50.75 28.9375 50.6875 28.9375 50.6875 28.875 50.625 28.875 50.625 28.8125 50.5625 28.8125 50.5625 28.6875 50.5 28.6875 50.5 28.625 50.4375 28.625 50.4375 28.5625 50.375 28.5625 50.375 28.5 50.3125 28.5 50.3125 28.4375 50.25 28.4375 50.25 28.375 50.1875 28.375 50.1875 28.3125 50.125 28.3125 50.125 28.25 50.0625 28.25 50.0625 28.1875 50 28.1875 50 28.125 49.9375 28.125 49.9375 28 49.875 28 49.875 27.9375 49.8125 27.9375 49.8125 27.875 49.75 27.875 49.75 27.8125 49.6875 27.8125 49.6875 27.75 49.625 27.75 49.625 27.6875 49.5625 27.6875 49.5625 27.625 49.5 27.625 49.5 27.5625 49.4375 27.5625 49.4375 27.5 49.375 27.5 49.375 27.4375 49.3125 27.4375 49.3125 27.3125 49.25 27.3125 49.25 27.25 49.1875 27.25 49.1875 27.1875 49.125 27.1875 49.125 27.125 49.0625 27.125 49.0625 27.0625 49 27.0625 49 27 48.9375 27 48.9375 26.9375 48.875 26.9375 48.875 26.875 48.8125 26.875 48.8125 26.8125 48.75 26.8125 48.75 26.6875 48.6875 26.6875 48.6875 26.625 48.625 26.625 48.625 26.5625 48.5625 26.5625 48.5625 26.5 48.5 26.5 48.5 26.4375 48.4375 26.4375 48.4375 26.375 48.375 26.375 48.375 26.3125 48.3125 26.3125 48.3125 26.25 48.25 26.25 48.25 26.1875 48.1875 26.1875 48.1875 26.125 48.125 26.125 48.125 26 48.0625 26 48.0625 25.9375 48 25.9375 48 25.875 47.9375 25.875 47.9375 25.8125 48 25.8125 48 25.75 48.0625 25.75 48.0625 25.6875 48.125 25.6875 48.125 25.625 48.1875 25.625 48.1875 25.5625 48.25 25.5625 48.25 25.5 48.3125 25.5 48.3125 25.4375 48.4375 25.4375 48.4375 25.375 48.5 25.375 48.5 25.3125 48.5625 25.3125 48.5625 25.25 48.625 25.25 48.625 25.1875 48.6875 25.1875 48.6875 25.125 48.75 25.125 48.75 25.0625 48.8125 25.0625 48.8125 25 48.875 25 48.875 24.9375 48.9375 24.9375 48.9375 24.875 49 24.875 49 24.8125 49.125 24.8125 49.125 24.75 49.1875 24.75 49.1875 24.6875 49.25 24.6875 49.25 24.625 49.3125 24.625 49.3125 24.5625 49.375 24.5625 49.375 24.5 49.4375 24.5 49.4375 24.4375 49.5 24.4375 49.5 24.375 49.5625 24.375 49.5625 24.3125 49.625 24.3125 49.625 24.25 49.75 24.25 49.75 24.1875 49.8125 24.1875 49.8125 24.125 49.875 24.125 49.875 24.0625 49.9375 24.0625 49.9375 24 50 24 50 23.9375 50.0625 23.9375 50.0625 23.875 50.125 23.875 50.125 23.8125 50.1875 23.8125 50.1875 23.75 50.25 23.75 50.25 23.6875 50.3125 23.6875 50.3125 23.625 50.4375 23.625 50.4375 23.5625 50.5 23.5625 50.5 23.5 50.5625 23.5 50.5625 23.4375 50.625 23.4375 50.625 23.375 50.6875 23.375 50.6875 23.3125 50.75 23.3125 50.75 23.25 50.8125 23.25 50.8125 23.1875 50.875 23.1875 50.875 23.125 51 23.125 51 23.25 51.0625 23.25 51.0625 23.3125 51.125 23.3125 51.125 23.4375 51.1875 23.4375 51.1875 23.5 51.25 23.5 51.25 23.625 51.3125 23.625 51.3125 23.6875 51.375 23.6875 51.375 23.8125 51.4375 23.8125 51.4375 23.875 51.5 23.875 51.5 24 51.5625 24 51.5625 24.0625 51.625 24.0625 51.625 24.1875 51.6875 24.1875 51.6875 24.25 51.75 24.25 51.75 24.375 51.8125 24.375 51.8125 24.4375 51.875 24.4375 51.875 24.5625 51.9375 24.5625 51.9375 24.625 52 24.625 52 24.75 52.0625 24.75 52.0625 24.8125 52.125 24.8125 52.125 24.9375 52.1875 24.9375 52.1875 25 52.25 25 52.25 25.125 52.3125 25.125 52.3125 25.1875 52.375 25.1875 52.375 25.3125 52.4375 25.3125 52.4375 25.375 52.5 25.375 52.5 25.5 52.5625 25.5 52.5625 25.5625 52.625 25.5625 52.625 25.6875 52.6875 25.6875 52.6875 25.75 52.75 25.75 52.75 25.875 52.8125 25.875 52.8125 25.9375 52.875 25.9375 52.875 26.0625 52.9375 26.0625 52.9375 26.125 53 26.125 53 26.25 53.0625 26.25 53.0625 26.3125 53.125 26.3125 53.125 26.4375 53.1875 26.4375 53.1875 26.5 53.25 26.5 53.25 26.625 53.3125 26.625 53.3125 26.6875 53.375 26.6875 53.375 26.8125 53.4375 26.8125 53.4375 26.875 53.5 26.875 53.5 27 53.5625 27 53.5625 27.0625 53.625 27.0625 53.625 27.1875 53.6875 27.1875 53.6875 27.25 53.75 27.25 53.75 27.375 53.8125 27.375 53.8125 27.5625 53.75 27.5625 53.75 27.6875 53.6875 27.6875 53.6875 27.75 53.625 27.75 53.625 27.875 53.5625 27.875 53.5625 28 53.5 28 53.5 28.125 53.4375 28.125 53.4375 28.1875 53.375 28.1875 53.375 28.3125 53.3125 28.3125 53.3125 28.4375 53.25 28.4375 53.25 28.5625 53.1875 28.5625 53.1875 28.625 53.125 28.625 53.125 28.75 53.0625 28.75 53.0625 28.875 53 28.875 53 29 52.9375 29 52.9375 29.0625 52.875 29.0625 52.875 29.1875 52.8125 29.1875 52.8125 29.3125 52.75 29.3125 52.75 29.4375 52.6875 29.4375 52.6875 29.5 52.625 29.5 52.625 29.625 52.5625 29.625 52.5625 29.75 52.5 29.75 52.5 29.875 52.4375 29.875 52.4375 29.9375 52.375 29.9375 52.375 30.0625 52.3125 30.0625 52.3125 30.1875 52.25 30.1875 52.25 30.3125 52.1875 30.3125 52.1875 30.375 52.125 30.375 52.125 30.4375 52.0625 30.4375 52.0625 30.375 52 30.375 52 30.3125"></polygon>
                    <polygon id="Shape" points="60.5 20.6875 60.5625 20.6875 60.5625 20.625 60.625 20.625 60.625 20.5625 60.6875 20.5625 60.6875 20.5 60.8125 20.5 60.8125 20.4375 60.875 20.4375 60.875 20.375 60.9375 20.375 60.9375 20.3125 61 20.3125 61 20.25 61.125 20.25 61.125 20.1875 61.1875 20.1875 61.1875 20.125 61.25 20.125 61.25 20.0625 61.3125 20.0625 61.3125 20 61.4375 20 61.4375 19.9375 61.5 19.9375 61.5 19.875 61.5625 19.875 61.5625 19.8125 61.625 19.8125 61.625 19.6875 61.5625 19.6875 61.5625 19.4375 61.5 19.4375 61.5 19.1875 61.4375 19.1875 61.4375 18.9375 61.375 18.9375 61.375 18.6875 61.3125 18.6875 61.3125 18.4375 61.25 18.4375 61.25 18.1875 61.1875 18.1875 61.1875 17.9375 61.125 17.9375 61.125 17.6875 61.0625 17.6875 61.0625 17.5 61 17.5 61 17.5625 60.75 17.5625 60.75 17.625 60.5 17.625 60.5 17.6875 60.25 17.6875 60.25 17.75 60 17.75 60 17.8125 59.75 17.8125 59.75 17.875 59.5 17.875 59.5 17.9375 59.25 17.9375 59.25 18 59 18 59 18.0625 58.75 18.0625 58.75 18.125 58.5 18.125 58.5 18.1875 58.25 18.1875 58.25 18.25 58 18.25 58 18.3125 57.75 18.3125 57.75 18.375 57.5 18.375 57.5 18.4375 57.25 18.4375 57.25 18.5 57 18.5 57 18.5625 57.0625 18.5625 57.0625 18.625 57.125 18.625 57.125 18.75 57.1875 18.75 57.1875 18.875 57.25 18.875 57.25 19 57.3125 19 57.3125 19.125 57.375 19.125 57.375 19.1875 57.4375 19.1875 57.4375 19.3125 57.5 19.3125 57.5 19.4375 57.5625 19.4375 57.5625 19.5625 57.625 19.5625 57.625 19.6875 57.6875 19.6875 57.6875 19.8125 57.75 19.8125 57.75 19.875 57.8125 19.875 57.8125 20 57.875 20 57.875 20.125 57.9375 20.125 57.9375 20.25 58 20.25 58 20.375 58.0625 20.375 58.0625 20.5 58.125 20.5 58.125 20.625 58.1875 20.625 58.1875 20.6875 58.25 20.6875 58.25 20.8125 58.3125 20.8125 58.3125 20.9375 58.375 20.9375 58.375 21.0625 58.4375 21.0625 58.4375 21.1875 58.5 21.1875 58.5 21.3125 58.5625 21.3125 58.5625 21.4375 58.625 21.4375 58.625 21.5 58.6875 21.5 58.6875 21.625 58.75 21.625 58.75 21.75 58.8125 21.75 58.8125 21.875 58.875 21.875 58.875 21.9375 58.9375 21.9375 58.9375 21.875 59.0625 21.875 59.0625 21.8125 59.125 21.8125 59.125 21.75 59.1875 21.75 59.1875 21.6875 59.3125 21.6875 59.3125 21.625 59.375 21.625 59.375 21.5625 59.4375 21.5625 59.4375 21.5 59.5 21.5 59.5 21.4375 59.625 21.4375 59.625 21.375 59.6875 21.375 59.6875 21.3125 59.75 21.3125 59.75 21.25 59.8125 21.25 59.8125 21.1875 59.9375 21.1875 59.9375 21.125 60 21.125 60 21.0625 60.0625 21.0625 60.0625 21 60.125 21 60.125 20.9375 60.25 20.9375 60.25 20.875 60.3125 20.875 60.3125 20.8125 60.375 20.8125 60.375 20.75 60.5 20.75"></polygon>
                    <polygon id="Shape" points="73.5 18.4375 73.5 17.5 73.375 17.5 73.375 17.4375 73.0625 17.4375 73.0625 17.375 72.8125 17.375 72.8125 17.3125 72.5 17.3125 72.5 17.25 72.25 17.25 72.25 17.1875 71.9375 17.1875 71.9375 17.125 71.6875 17.125 71.6875 17.0625 71.375 17.0625 71.375 17 71.125 17 71.125 16.9375 70.8125 16.9375 70.8125 16.875 70.5625 16.875 70.5625 16.8125 70.25 16.8125 70.25 16.75 70 16.75 70 16.6875 69.6875 16.6875 69.6875 16.625 69.625 16.625 69.625 18.75 69.875 18.75 69.875 18.8125 70.4375 18.8125 70.4375 18.875 71 18.875 71 18.9375 71.5625 18.9375 71.5625 19 72.125 19 72.125 19.0625 72.6875 19.0625 72.6875 19.125 73.25 19.125 73.25 19.1875 73.5 19.1875"></polygon>
                </g>
            </g>
        </g>
    </g>
</svg>