<?xml version="1.0" encoding="UTF-8"?>
<svg width="225px" height="95px" viewBox="0 0 225 95" version="1.1" xmlns="http://www.w3.org/2000/svg" xmlns:xlink="http://www.w3.org/1999/xlink">
    <!-- Generator: Sketch 42 (36781) - http://www.bohemiancoding.com/sketch -->
    <title>WebGL_Logo</title>
    <desc>Created with Sketch.</desc>
    <defs></defs>
    <g id="Page-1" stroke="none" stroke-width="1" fill="none" fill-rule="evenodd">
        <g id="Skills" transform="translate(-799.000000, -904.000000)" fill-rule="nonzero" fill="#757575">
            <g id="WebGL_Logo" transform="translate(799.000000, 903.000000)">
                <g id="svg2">
                    <g id="g10" transform="translate(112.500000, 48.497920) scale(-1, 1) rotate(-180.000000) translate(-112.500000, -48.497920) translate(0.000000, 0.997920)">
                        <g id="g12" transform="translate(0.000000, 0.000000)">
                            <polyline id="path14" points="218.538776 31.6201599 217.013845 31.6201599 217.013845 27.6444442 215.68005 27.6444442 215.68005 31.6201599 214.153042 31.6201599 214.153042 32.7687092 218.538776 32.7687092 218.538776 31.6201599 218.538776 31.6201599"></polyline>
                            <polyline id="path16" points="219.135036 32.7687092 221.098332 32.7687092 221.979219 29.3526019 221.993762 29.3526019 222.876726 32.7687092 224.840022 32.7687092 224.840022 27.6444442 223.585174 27.6444442 223.585174 31.5340343 223.570632 31.5340343 222.496532 27.6444442 221.478526 27.6444442 220.402349 31.5340343 220.387806 31.5340343 220.387806 27.6444442 219.135036 27.6444442 219.135036 32.7687092"></polyline>
                            <path d="M165.74958,27.9336099 C163.888916,27.1478698 162.009968,26.7544797 160.1144,26.7544797 C157.121256,26.7544797 154.431021,27.2768502 152.040993,28.3193028 C149.650758,29.3623794 147.635315,30.7986382 145.993625,32.6301593 C144.351104,34.4596001 143.09314,36.6104517 142.217656,39.0812577 C141.341963,41.5520638 140.903805,44.2163404 140.903805,47.0715912 C140.903805,49.9986133 141.340509,52.7169784 142.213708,55.2250224 C143.086492,57.7320261 144.342379,59.9188674 145.980537,61.7861702 C147.618694,63.6532649 149.631437,65.116984 152.020218,66.1796158 C154.409207,67.2407913 157.099234,67.7723152 160.092378,67.7723152 C162.09868,67.7723152 164.040578,67.4692113 165.919733,66.8644599 C167.79868,66.2582522 169.494594,65.3684957 171.009137,64.1951905 C172.523472,63.0214692 173.772918,61.5746008 174.75789,59.8558334 C175.743278,58.1356099 176.345771,56.1624183 176.564954,53.9343866 L168.356505,53.9343866 C167.845217,56.1251805 166.85983,57.769264 165.400758,58.8653891 C163.940024,59.9615141 162.170772,60.5096806 160.092378,60.5096806 C158.15796,60.5096806 156.51627,60.1343894 155.166478,59.3838069 C153.817101,58.6334324 152.722226,57.6261374 151.882683,56.3637941 C151.042933,55.0999946 150.432545,53.6635278 150.050066,52.0527296 C149.666132,50.4421393 149.475827,48.7774605 149.475827,47.0572369 C149.475827,45.4092007 149.667379,43.8075559 150.051104,42.2525104 C150.435246,40.6970488 151.046672,39.2965717 151.886423,38.0525353 C152.725966,36.8080829 153.822088,35.8113975 155.174165,35.060815 C156.524996,34.3102325 158.169387,33.9349413 160.106713,33.9349413 C162.955467,33.9349413 165.154774,34.6545269 166.707752,36.0934901 C168.261145,37.5328693 169.164677,39.6192307 169.421464,42.3527822 L160.774857,42.3527822 L160.774857,48.7903585 L177.168694,48.7903585 L177.168694,27.6330024 L171.713638,27.6330024 L170.840439,32.0715911 C169.308029,30.0986077 167.610453,28.7187258 165.74958,27.9336099" id="path18"></path>
                            <polyline id="path20" points="191.101657 66.7818708 191.101657 34.9251776 210.147502 34.9251776 210.147502 27.6625431 182.530051 27.6625431 182.530051 66.7818708 191.101657 66.7818708"></polyline>
                            <path d="M150.563847,22.7997754 C137.448612,14.8123544 117.805676,10.2660879 95.888848,10.2660879 C56.4024917,10.2660879 24.3922432,26.7303479 24.3922432,47.0405943 C24.3922432,67.3504246 56.4024917,83.8149758 95.888848,83.8149758 C117.88587,83.8149758 137.608999,79.1841648 150.724442,71.1468159 C136.408584,84.6134059 110.740717,94.0761958 81.392865,94.0805645 C36.4448052,94.0880537 0.00389542927,73.0328417 0,47.0532843 C-0.00381427968,21.074559 36.43047,0.00666356237 81.3785298,-3.20418927e-15 C110.609831,-0.00471325448 136.211008,9.42729949 150.563847,22.7997754" id="path22"></path>
                            <polyline id="path24" points="78.5314385 69.8255993 70.9940425 37.1658994 61.8926577 69.8255993 54.9814391 69.8255993 45.9004144 37.1654833 38.3405808 69.8255993 31.2195283 69.8255993 42.4034615 27.2558389 49.0846941 27.2558389 58.4931426 60.6919174 67.7881562 27.2558389 74.48871 27.2558389 86.0657181 69.8255993 78.5314385 69.8255993"></polyline>
                            <path d="M104.898197,51.9079387 C103.851521,53.3828915 102.542449,54.5181268 101.006299,55.2826475 C99.4267288,56.0690116 97.5953577,56.4673945 95.5635018,56.4673945 C93.2765212,56.4673945 91.2159949,56.0521609 89.4392637,55.2331356 C87.7543607,54.456133 86.3160643,53.3140327 85.1642638,51.8380397 C83.0324771,49.1065684 81.9056074,45.2577528 81.9056074,40.7086987 C81.9056074,38.683915 82.1925187,36.7841591 82.7582389,35.0616472 C83.3272832,33.3299818 84.1672417,31.8098858 85.2548455,30.544422 C87.5416183,27.883682 90.801729,26.4771719 94.6828231,26.4771719 C96.720704,26.4771719 98.3846236,26.6906136 99.7686956,27.1295629 C100.97846,27.5127594 101.782269,28.0093338 102.440648,28.4447466 C103.289125,29.005187 104.068418,29.6941918 104.757754,30.4915817 C105.342795,31.1687286 105.863848,31.925136 106.306784,32.7393766 C107.09979,34.1978948 107.483723,35.5603019 107.570981,36.2838401 L107.628945,36.7623157 L102.076867,36.7623157 L102.046327,36.3683015 C101.906299,34.5621603 99.5387094,31.3353629 95.3206347,31.3353629 C89.290718,31.3353629 87.8540837,35.700308 87.7587236,39.5439228 L107.946188,39.5439228 L107.946188,39.9710142 C107.946188,42.4497255 107.692934,44.7129148 107.19328,46.6981722 C106.682407,48.7289888 105.910385,50.4818736 104.898197,51.9079387 L104.898197,51.9079387 Z M94.9256901,51.4513066 C99.3980585,51.4513066 101.789125,49.0408301 102.224582,44.0859038 L87.7647485,44.0859038 C87.9766599,48.1207008 91.1696653,51.4513066 94.9256901,51.4513066 L94.9256901,51.4513066 Z" id="path26"></path>
                            <path d="M135.888778,47.8144765 C135.351105,49.534492 134.558515,51.0500113 133.534069,52.3194277 C132.475966,53.6298265 131.192656,54.6489794 129.72008,55.3485939 C128.182684,56.0789972 126.459346,56.4492956 124.598266,56.4492956 L124.59141,56.4492956 C122.874304,56.4214192 121.306368,56.0465441 119.932061,55.3346557 C118.795634,54.7465468 117.777213,53.9208645 116.894249,52.8732111 L116.894249,65.9330968 L111.365025,65.9330968 L111.365025,27.2491818 L116.628737,27.2491818 L116.628737,29.8820455 C117.090787,29.2766699 117.684554,28.6380091 118.471119,28.073616 C119.964055,27.0022468 121.811008,26.4592811 123.960662,26.4592811 C126.272781,26.4592811 128.33393,26.9756186 130.087808,27.9945635 C131.650966,28.9024188 132.974373,30.2105293 134.021673,31.8818652 C134.936008,33.3410075 135.631783,35.0595668 136.088847,36.9901116 C136.483792,38.6589511 136.692794,40.4850634 136.692794,42.2708173 C136.692794,44.2440088 136.422296,46.1090232 135.888778,47.8144765 Z M130.920495,41.5331328 C130.920495,38.4960614 130.310523,35.9507795 129.155814,34.1723068 C127.92652,32.2775436 126.142518,31.317264 123.854291,31.317264 C120.545565,31.317264 116.681922,33.6341258 116.681922,40.1634446 C116.681922,43.2908023 117.067933,45.6969102 117.86177,47.5205261 C119.008169,50.1533897 120.933861,51.4332077 123.748127,51.4332077 C126.742933,51.4332077 128.745911,50.2578222 129.871326,47.8400645 C130.801036,45.8419091 130.920495,43.4199907 130.920495,41.5331328 L130.920495,41.5331328 Z" id="path28"></path>
                        </g>
                    </g>
                </g>
            </g>
        </g>
    </g>
</svg>